<?xml version="1.0" encoding="UTF-8" standalone="no"?>
<!-- Created with Inkscape (http://www.inkscape.org/) -->

<svg
   width="133.89444mm"
   height="133.87917mm"
   viewBox="0 0 133.89444 133.87917"
   version="1.1"
   id="svg1"
   xml:space="preserve"
   xmlns="http://www.w3.org/2000/svg"
   xmlns:svg="http://www.w3.org/2000/svg"><defs
     id="defs1" /><g
     id="layer2"
     transform="translate(-40.079438,-82.842023)"><path
       style="fill:#000000"
       d="m 95.28648,216.31266 c -0.794141,-0.79414 -1.518755,-2.93934 -2.154306,-6.37776 -1.108418,-5.99669 -3.250187,-12.25206 -4.606601,-13.4543 -1.607553,-1.42484 -8.009557,1.20399 -14.592603,5.99209 -2.101842,1.52875 -4.416405,2.60687 -5.596578,2.60687 H 67.48896 l -7.876274,-7.87628 -7.876274,-7.87627 v -0.83304 c 0,-1.26634 0.768347,-2.80182 3.242569,-6.48 2.442949,-3.6317 5.267227,-9.1153 5.735338,-11.13569 l 0.292084,-1.26066 -0.384726,-0.74397 c -0.868725,-1.67993 -7.32673,-4.04033 -14.59457,-5.33432 -2.973825,-0.52947 -5.288225,-1.40682 -5.68963,-2.15685 -0.165678,-0.30958 -0.262523,-4.68301 -0.257879,-11.6456 l 0.0074,-11.14985 0.43672,-0.48256 c 0.662953,-0.73256 3.050746,-1.52777 6.689952,-2.22796 8.343314,-1.60527 13.783122,-4.0176 13.783122,-6.11223 0,-1.70309 -2.870601,-7.53422 -5.978393,-12.14408 -2.386484,-3.53992 -3.282023,-5.32834 -3.282023,-6.55431 v -0.81307 l 7.87238,-7.88455 7.872379,-7.884547 1.057308,0.0074 c 1.237758,0.0087 2.711689,0.790966 7.060109,3.747001 3.465534,2.355856 9.083631,5.162076 10.803093,5.396106 l 1.185772,0.1614 0.766932,-0.60507 c 1.516565,-1.19649 3.737759,-7.518472 4.801337,-13.665607 0.775281,-4.480871 1.236929,-5.768935 2.256596,-6.296225 l 0.747815,-0.386711 h 11.010733 c 6.85898,0 11.19778,0.100099 11.50678,0.265468 0.57159,0.305907 1.29541,2.539128 2.90328,8.957531 2.52969,10.098254 3.52968,11.964534 6.19653,11.564624 1.67284,-0.25086 7.52408,-3.22301 11.25558,-5.717296 3.42675,-2.290581 5.68962,-3.42866 6.81728,-3.42866 h 0.70091 l 7.6467,7.606766 c 10.00378,9.95154 9.49566,8.3268 4.92066,15.73429 -3.70925,6.00575 -5.75712,9.96334 -5.96761,11.5327 l -0.15165,1.1306 0.63156,0.67669 c 1.52393,1.63284 8.07062,3.8492 14.73335,4.98794 2.59635,0.44374 4.03293,0.96627 5.01436,1.82388 l 0.59531,0.52021 v 11.28039 c 0,8.61353 -0.0782,11.3843 -0.33073,11.71989 -0.51506,0.68445 -3.49377,1.6782 -6.82297,2.27627 -7.81404,1.40373 -13.74838,3.96913 -13.74838,5.94339 0,1.77876 3.07265,8.07691 6.01477,12.32872 2.01373,2.91016 3.24514,5.37517 3.24544,6.49664 l 2e-4,0.79274 -8.01663,8.00465 c -5.71416,5.70561 -8.18605,8.00465 -8.6065,8.00465 -0.83536,0 -2.96461,-1.12516 -8.42581,-4.45245 -10.80302,-6.58184 -11.77269,-6.51338 -14.22977,1.00468 -1.15588,3.53671 -2.0268,7.05691 -2.39132,9.66548 -0.22173,1.58675 -1.33053,4.36776 -1.9252,4.82864 -0.32615,0.25277 -3.09224,0.33073 -11.73435,0.33073 H 95.695043 Z m 22.85469,-1.65032 0.58213,-0.47138 0.37078,-3.01257 c 1.00727,-8.18405 3.90302,-15.81796 6.39517,-16.85925 l 0.96013,-0.40117 1.60341,0.31371 c 2.88661,0.56477 8.92566,3.7679 13.73704,7.28618 1.28922,0.94273 2.62959,1.78572 2.9786,1.87332 l 0.63455,0.15926 5.22349,-5.03136 c 6.10779,-5.88316 10.38286,-10.21098 10.38286,-10.51099 0,-0.37043 -1.36804,-2.58574 -2.55958,-4.14482 -1.8048,-2.36149 -3.75716,-5.63608 -5.33259,-8.94406 l -1.44806,-3.04055 -0.10917,-1.72195 -0.10917,-1.72195 0.52937,-0.83902 c 1.03114,-1.63431 7.87548,-4.20624 14.71774,-5.53055 1.16417,-0.22533 2.74166,-0.52988 3.50555,-0.6768 0.76389,-0.14691 1.56756,-0.44578 1.78594,-0.66416 l 0.39705,-0.39706 v -10.69062 -10.69063 l -0.63994,-0.4193 c -0.35197,-0.23062 -1.81048,-0.59417 -3.24115,-0.80789 -10.23648,-1.5292 -16.3572,-4.18648 -17.02228,-7.39017 l -0.28586,-1.37698 0.66023,-1.75406 c 1.0131,-2.69156 3.12968,-6.64939 5.04326,-9.43046 3.34485,-4.86121 3.84407,-5.6416 3.84407,-6.00904 0,-0.70896 -14.83503,-15.686797 -15.53724,-15.686797 -0.8032,0 -1.42593,0.330036 -3.24817,1.721467 -5.26946,4.02367 -13.8821,8.11051 -15.88289,7.53669 -2.72518,-0.78157 -5.77469,-8.404632 -7.14351,-17.857116 -0.16859,-1.164166 -0.49241,-2.325026 -0.71961,-2.579687 l -0.41309,-0.463021 -6.63972,8.82e-4 c -3.65185,4.84e-4 -8.52469,0.07906 -10.82854,0.174607 l -4.188812,0.173726 -0.367499,0.560875 c -0.202125,0.308481 -0.543426,1.807486 -0.758448,3.331122 -0.49563,3.512027 -1.015445,5.739044 -2.183629,9.355214 -2.678022,8.289948 -4.222837,8.996768 -11.643949,5.327608 -3.278057,-1.62075 -4.800016,-2.55833 -9.590438,-5.908083 -1.200966,-0.839787 -2.246039,-1.374284 -2.687065,-1.374284 h -0.721723 l -7.102519,7.298757 c -9.038055,9.28778 -8.476804,8.10927 -5.659396,11.88353 4.320436,5.78776 7.662051,12.6086 7.342886,14.98815 -0.258651,1.92839 -1.991736,3.58298 -4.523766,4.31889 -6.981237,2.02904 -9.198086,2.59392 -11.996116,3.05676 -3.501146,0.57916 -4.069553,0.73078 -4.366762,1.16482 -0.292815,0.42763 -0.245142,20.90704 0.05048,21.68458 0.281005,0.7391 1.188961,1.05699 3.848073,1.34726 6.328795,0.69085 14.634815,3.56609 16.189322,5.60415 l 0.744011,0.97545 v 1.61197 1.61197 l -1.565454,3.03883 c -2.111292,4.09841 -3.63095,6.644 -5.289031,8.85967 -0.762294,1.01865 -1.71721,2.41955 -2.122036,3.11312 l -0.736047,1.26103 0.400011,0.61049 c 0.705156,1.07621 14.72551,14.58503 15.406824,14.84471 l 0.656377,0.25017 1.51947,-1.11793 c 9.029753,-6.64354 15.459117,-9.43943 17.967103,-7.81322 2.209212,1.43248 5.119286,9.19874 6.182894,16.50059 0.633431,4.34862 -0.740881,3.9001 12.066719,3.93806 l 10.35559,0.0307 z m -10.9285,-8.98747 c -0.31393,-0.5303 -0.29892,-19.36404 0.0157,-19.6796 0.65068,-0.65266 0.7334,0.21769 0.81628,8.58877 0.0971,9.81284 -0.0924,12.34008 -0.83197,11.09083 z m 35.55721,-5.2414 c -5.66295,-3.23695 -8.53518,-5.62942 -7.3187,-6.09623 0.35865,-0.13763 7.46445,4.13934 8.83319,5.31669 1.45613,1.2525 0.32843,1.83296 -1.51449,0.77954 z M 60.601844,183.38678 c -0.299829,-0.48513 5.298441,-5.55931 6.133511,-5.55931 1.023347,0 0.158016,1.1863 -2.449998,3.35876 -2.885611,2.40369 -3.376662,2.69705 -3.683513,2.20055 z m 43.125196,-12.68469 c -5.457808,-1.70061 -10.12562,-3.94179 -11.930357,-5.72818 -1.884303,-1.86514 -5.154402,-9.19482 -6.192908,-13.88092 l -0.325057,-1.46678 0.692005,-2.54012 c 2.399581,-8.80806 5.107465,-12.84556 10.34798,-15.42902 8.330947,-4.10698 11.527357,-4.28862 19.086747,-1.08468 6.35952,2.69539 7.36225,3.58294 9.89484,8.75821 3.91395,7.99801 4.14147,11.43069 1.21614,18.34816 -3.066,7.25011 -4.77435,8.89349 -12.38408,11.91312 -4.9722,1.97302 -6.95673,2.18477 -10.40531,1.11021 z m 7.75221,-1.74643 c 9.65867,-3.23199 12.70326,-6.59709 15.40744,-17.02938 l 0.55433,-2.13852 -0.55604,-2.05358 c -1.01298,-3.74119 -3.54238,-9.59625 -5.09239,-11.78789 -0.85841,-1.21375 -8.11107,-4.69463 -12.3486,-5.92664 l -2.22055,-0.6456 -1.35133,0.31917 c -4.31169,1.01837 -12.300988,4.6138 -13.434762,6.04605 -1.966794,2.48458 -5.63289,11.7762 -5.59274,14.17466 0.04032,2.40889 2.841438,9.66994 5.068697,13.13908 1.244723,1.93876 6.513547,4.71086 12.210605,6.4244 2.71528,0.81669 3.5277,0.75906 7.35534,-0.52175 z M 91.688495,131.04494 c 0,-0.72192 11.154695,-5.34038 12.898325,-5.34038 h 0.44843 l -0.52181,0.49166 c -1.34946,1.27149 -12.824945,5.61002 -12.824945,4.84872 z m 52.507325,-3.50847 c -0.19858,-0.32131 0.37807,-1.08087 4.45403,-5.86681 2.88755,-3.39053 3.19616,-3.66237 3.43906,-3.02938 0.19407,0.50574 -0.29404,1.27956 -2.07267,3.28589 -0.87472,0.98671 -2.34701,2.71675 -3.27175,3.84453 -1.62589,1.98289 -2.17805,2.36544 -2.54867,1.76577 z"
       id="path67" /><path
       style="fill:none;stroke:#000000;stroke-width:0;stroke-dasharray:none;stroke-opacity:1"
       d="m 124.06329,100.96926 c -3.24501,6.20878 -11.39106,31.68716 1.61121,31.68716"
       id="path71" /><path
       style="fill:none;stroke:#000000;stroke-width:1;stroke-dasharray:none;stroke-opacity:1"
       d="m 42.428572,156.28752 c 0.935829,1.34974 -0.243001,4.83363 0.53707,4.83363 1.621126,0 -0.335994,-3.22502 -0.53707,-4.83363 z"
       id="path72" /><path
       style="fill:none;stroke:#000000;stroke-width:1;stroke-dasharray:none;stroke-opacity:1"
       d="m 43.502712,155.21338 c 0.537071,1.96926 1.074141,3.93851 1.611212,5.90777 0,0.17903 0,0.35805 0,0.53708 -0.53707,-2.14829 -1.074142,-4.29657 -1.611212,-6.44485"
       id="path73" /><path
       style="fill:none;stroke:#000000;stroke-width:1;stroke-dasharray:none;stroke-opacity:1"
       d="m 49.410487,162.1953 c 0,3.25205 0.05886,1.42731 -1.074139,-5.37071 0.358046,1.79024 0.716093,3.58047 1.074139,5.37071 z"
       id="path74" /><path
       style="fill:none;stroke:#000000;stroke-width:1;stroke-dasharray:none;stroke-opacity:1"
       d="m 53.70705,162.73237 c -0.179022,0 -0.358044,0 -0.537069,0 -0.53707,-1.61122 -1.07414,-3.22243 -1.611212,-4.83364 0.716094,1.61121 1.432187,3.22243 2.148281,4.83364 z"
       id="path75" /><path
       style="fill:none;stroke:#000000;stroke-width:1;stroke-dasharray:none;stroke-opacity:1"
       d="m 55.318262,160.04701 c 0.716094,1.79024 1.432188,3.58047 2.148282,5.37071 -0.60973,-1.8292 -1.206854,-3.68801 -2.148282,-5.37071"
       id="path76" /><path
       style="fill:none;stroke:#000000;stroke-width:1;stroke-dasharray:none;stroke-opacity:1"
       d="m 61.76311,167.566 c -0.179025,0 -0.358047,0 -0.537072,0 -0.716092,-2.14828 -1.432187,-4.29656 -2.148282,-6.44485 0.895118,2.14828 1.790236,4.29657 2.685354,6.44485 z"
       id="path77" /><path
       style="fill:none;stroke:#000000;stroke-width:1;stroke-dasharray:none;stroke-opacity:1"
       d="m 61.76311,163.26944 c 1.799789,4.79944 1.611212,2.76698 1.611212,5.90777"
       id="path78" /><path
       style="fill:none;stroke:#000000;stroke-width:1;stroke-dasharray:none;stroke-opacity:1"
       d="m 43.502712,153.60217 c 0,12.8282 0.241019,-10.29961 -0.53707,-11.81555 0.376279,15.06403 -3.673235,20.40868 10.20434,20.40868"
       id="path79" /><path
       style="fill:none;stroke:#000000;stroke-width:1;stroke-dasharray:none;stroke-opacity:1"
       d="m 47.799275,158.97287 c 7.459305,2.79724 2.999486,0.80054 12.889693,6.98192 1.630345,0.52558 3.480081,9.10844 2.148283,6.44485 -0.445481,1.29124 -5.689579,8.6938 -3.222423,3.75949"
       id="path80" /><path
       style="fill:none;stroke:#000000;stroke-width:1;stroke-dasharray:none;stroke-opacity:1"
       d="m 61.226038,171.3255 c -1.168308,3.50086 -2.769354,6.84448 -4.296564,10.20433"
       id="path81" /><path
       style="fill:none;stroke:#000000;stroke-width:1;stroke-dasharray:none;stroke-opacity:1"
       d="m 125.6745,192.80832 c -2.38428,1.67554 -9.39816,9.39815 0,0 z"
       id="path82" /><path
       style="fill:none;stroke:#000000;stroke-width:1;stroke-dasharray:none;stroke-opacity:1"
       d="m 120.84087,199.25316 c 2.09651,-6.98838 0.62061,-3.78574 4.29656,-9.66727 -1.43219,3.22242 -2.86437,6.44485 -4.29656,9.66727 z"
       id="path83" /><path
       style="fill:none;stroke:#000000;stroke-width:1;stroke-dasharray:none;stroke-opacity:1"
       d="m 122.45208,196.56781 c 0.35805,-2.50633 0.71609,-5.01266 1.07414,-7.51899 7.37914,2.95166 3.61539,1.35042 11.27848,4.83364"
       id="path84" /><path
       style="fill:none;stroke:#000000;stroke-width:1;stroke-dasharray:none;stroke-opacity:1"
       d="m 134.8047,197.64195 c -5.8209,-5.82089 -2.95095,-2.78275 -8.59313,-9.1302 2.86438,3.0434 5.72875,6.0868 8.59313,9.1302 z"
       id="path85" /><path
       style="fill:none;stroke:#000000;stroke-width:1;stroke-dasharray:none;stroke-opacity:1"
       d="m 124.60036,190.66003 c 1.96926,1.43219 3.93852,2.86438 5.90778,4.29657 0.17902,0 0.35804,0 0.53706,0"
       id="path86" /><path
       style="fill:none;stroke:#000000;stroke-width:1;stroke-dasharray:none;stroke-opacity:1"
       d="m 122.45208,186.36347 c 12.9956,13.54495 -1.61121,-2.88296 -1.61121,13.96383"
       id="path87" /><path
       style="fill:none;stroke:#000000;stroke-width:1;stroke-dasharray:none;stroke-opacity:1"
       d="m 120.84087,192.80832 c 5.65322,-13.75204 -0.53707,6.05223 -0.53707,9.66726 0,1.25317 0,-2.50632 0,-3.75949 0,-3.47032 0.19508,-9.32528 2.68535,-11.81555 0.42445,-0.42445 7.63453,5.96555 8.59313,6.44485 -21.50492,-15.77548 16.03043,11.45031 0,0 2.36249,1.9269 4.82619,3.75205 6.98192,5.90777"
       id="path88" /><path
       style="fill:none;stroke:#000000;stroke-width:1;stroke-dasharray:none;stroke-opacity:1"
       d="m 88.079566,192.27125 c -5.728753,2.86437 -5.728753,2.86437 0,0 z"
       id="path89" /><path
       style="fill:none;stroke:#000000;stroke-width:1;stroke-dasharray:none;stroke-opacity:1"
       d="m 92.913199,201.93851 c 0,-3.6739 0.925166,-6.60769 -3.759494,-9.13019 -0.164367,-0.0885 -6.127067,1.13394 -5.907775,1.07414 1.931016,-0.52665 4.117541,-1.96926 5.907775,-1.07414 1.290958,0.64548 1.96926,4.11754 0.537073,4.29656 -1.43219,0.17902 -0.358048,-2.86438 -0.537073,-4.29656 1.253165,3.0434 2.506329,6.08679 3.759494,9.13019 z"
       id="path90" /><path
       style="fill:none;stroke:#000000;stroke-width:1;stroke-dasharray:none;stroke-opacity:1"
       d="m 144.47197,128.89692 c -2.69119,1.49358 3.11512,7.19652 2.68535,8.05606 -1.48276,2.96552 -6.43617,-9.93147 -2.68535,-8.05606 1.99755,0.99878 -2.60755,8.05606 4.83363,8.05606 3.22243,0.89512 6.45874,1.74167 9.66728,2.68536 3.61242,1.06247 -11.38021,-2.68536 -9.66728,-2.68536 3.14507,0 9.50882,3.06397 9.1302,2.68536 -0.56612,-0.56613 -1.35855,-0.94252 -2.14828,-1.07414 -7.69329,-1.28222 7.65419,3.26749 -6.98192,-1.61122"
       id="path91" /><path
       style="fill:none;stroke:#000000;stroke-width:1;stroke-dasharray:none;stroke-opacity:1"
       d="m 138.02712,125.6745 c -0.32311,0.88659 0.53616,5.90778 0.53707,5.90778 0.29851,0 -0.53707,-7.60418 -0.53707,-5.90778 0,2.17792 -1.10377,6.44485 1.07414,6.44485 0.91285,0 -0.44624,-1.77704 -0.53707,-2.68535 -0.12596,-1.25961 0.35805,-4.65462 -0.53707,-3.7595 -3.18326,3.18326 2.5313,6.44485 0.53707,6.44485 -2.15572,0 -0.84193,-4.31079 -0.53707,-6.44485 z"
       id="path92" /><path
       style="fill:none;stroke:#000000;stroke-width:1;stroke-dasharray:none;stroke-opacity:1"
       d="m 131.0452,145.00904 c -0.53706,-0.71609 -1.72223,-3.03649 -1.6112,-2.14828 1.32118,10.56944 3.88133,6.19338 -1.61122,-3.22243 -0.28525,-0.489 0.0291,-1.61121 -0.53707,-1.61121 -2.64325,0 2.83139,4.50697 3.75949,6.98192 0.63173,1.68461 1.34169,6.97993 0.53708,5.37071 -2.97487,-5.94975 3.98201,5.92701 -0.53708,-5.37071 -0.66487,-1.66219 -2.27359,-2.77845 -3.22242,-4.29656 -0.94882,-1.51812 2.81239,2.55391 3.22242,4.29656 0.37131,1.57803 -0.35804,3.22242 -0.53706,4.83363 -0.88027,16.75981 -1.07414,-2.08395 -1.07414,6.98192 0.88733,-6.7518 1.68176,-7.56796 0,0 6.55277,-1.80326 -2.94822,6.44485 -2.14829,6.44485 2.05392,0 2.15506,-6.44485 2.14829,-6.44485 -1.86906,0 -0.77535,3.69897 -1.61122,5.37071 -0.13458,0.26917 -2.50071,3.75949 -2.14828,3.75949 1.01585,0 2.79665,-5.00057 0.53707,-1.61121 -0.71609,1.07414 -2.14828,4.51338 -2.14828,3.22242 0,-0.52378 3.79839,-5.90777 3.75949,-5.90777 -1.7932,0 -5.80534,6.44484 -4.83363,6.44484 0.10982,0 7.3203,-10.54272 2.14828,-5.3707 2.86245,-2.3381 9.00506,-18.9591 4.29657,-4.83364"
       id="path93" /><path
       style="fill:none;stroke:#000000;stroke-width:1;stroke-dasharray:none;stroke-opacity:1"
       d="m 119.76673,169.71428 c 0.53707,-0.71609 2.3273,-1.61121 1.61121,-2.14828 -0.7161,-0.53707 -1.07414,1.43219 -1.61121,2.14828 z"
       id="path94" /><path
       style="fill:none;stroke:#000000;stroke-width:1;stroke-dasharray:none;stroke-opacity:1"
       d="m 106.87703,125.6745 c 3.3684,1.5914 8.43327,1.05416 0,0 z"
       id="path95" /><path
       style="fill:none;stroke:#000000;stroke-width:1;stroke-dasharray:none;stroke-opacity:1"
       d="m 88.616635,131.58228 c 1.253165,-0.89512 3.95051,-4.21348 3.759494,-2.68536 -2.921823,23.37459 -5.761154,1.68453 -3.759494,2.68536 1.449981,0.72499 0.53707,3.2125 0.53707,4.83363 0,1.62113 1.084056,-4.83363 -0.53707,-4.83363 -1.799164,0 -0.537069,7.16987 -0.537069,5.3707 0,-1.04231 4.750051,-5.3707 0.537069,-5.3707 -1.799164,0 -1.809271,4.0985 -0.537069,5.3707 1.293844,1.29385 3.459006,-8.29264 0.537069,-5.3707 -1.272201,1.2722 -0.537069,7.16987 -0.537069,5.3707 0,-1.79916 -0.586859,-3.96579 0.537069,-5.3707 0.955519,-1.1944 5.826141,-1.61121 4.296564,-1.61121 -1.529578,0 -3.475371,0.32076 -4.296564,1.61121 -0.870344,1.36768 -1.262059,6.28361 -0.537069,4.83363 0.72499,-1.44998 -0.416431,-3.52257 0.537069,-4.83363 1.462826,-2.01139 4.686221,-2.00087 6.444846,-3.7595"
       id="path96" /><path
       style="fill:none;stroke:#000000;stroke-width:1;stroke-dasharray:none;stroke-opacity:1"
       d="m 104.72875,123.52622 c 5.37847,-1.07569 6.07091,-1.47994 -6.444846,4.29656 -0.241337,0.11139 8.447246,-6.29896 6.444846,-4.29656 -3.387,3.387 -8.949804,4.89239 -12.889691,7.51898"
       id="path97" /><path
       style="fill:none;stroke:#000000;stroke-width:1;stroke-dasharray:none;stroke-opacity:1"
       d="m 86.468354,139.63833 c 0,-1.25316 1.253164,-3.75949 0,-3.75949 -1.253165,0 -0.886122,4.64562 0,3.75949 1.02059,-1.02059 1.969259,-4.11754 0.537069,-4.29656 -1.432186,-0.17902 -0.537069,5.7399 -0.537069,4.29656 0,-12.62618 1.509527,-0.75476 0,0 -1.290958,0.64548 0.895117,-4.47558 -0.53707,-4.29656 -1.43219,0.17902 0.967579,2.91893 0.53707,4.29656 -0.577591,1.84829 -2.148282,3.22243 -3.222424,4.83364"
       id="path98" /><path
       style="fill:none;stroke:#000000;stroke-width:1;stroke-dasharray:none;stroke-opacity:1"
       d="m 86.468354,149.3056 c 7.029712,-20.38484 -0.53502,-4.01264 0,0 0.279857,2.09895 3.162218,8.41252 1.611212,3.7595 -0.431147,-1.29344 -1.611212,-2.39609 -1.611212,-3.7595 0,-2.28672 1.611212,-4.15812 1.611212,-6.44484"
       id="path99" /><path
       style="fill:none;stroke:#000000;stroke-width:1;stroke-dasharray:none;stroke-opacity:1"
       d="m 89.690778,136.41591 c -1.480283,12.5824 -1.705438,6.13154 1.074139,19.33454"
       id="path100" /><path
       style="fill:none;stroke:#000000;stroke-width:1;stroke-dasharray:none;stroke-opacity:1"
       d="m 88.616635,149.3056 c 0.358048,-2.68535 3.759494,-7.69801 1.074143,-8.05605 -2.685355,-0.35805 -1.224418,5.35111 -1.074143,8.05605 0.212289,3.8212 1.432187,7.51899 2.148282,11.27848"
       id="path101" /><path
       style="fill:none;stroke:#000000;stroke-width:1;stroke-dasharray:none;stroke-opacity:1"
       d="m 89.153705,155.75045 c -2.921299,-14.97519 -0.265567,9.66727 7.518987,9.66727"
       id="path102" /><path
       style="fill:none;stroke:#000000;stroke-width:1;stroke-dasharray:none;stroke-opacity:1"
       d="m 91.839059,160.58408 c 6.649503,5.81832 2.444107,3.32363 13.426761,5.90778"
       id="path103" /><path
       style="fill:none;stroke:#000000;stroke-width:1;stroke-dasharray:none;stroke-opacity:1"
       d="m 100.96926,164.88065 c -8.379438,0 -2.870463,-0.39629 7.51899,3.75949 1.01107,0.40443 -2.24844,-0.0501 -3.22243,-0.53707 -1.60123,-0.80061 -5.09718,-4.82366 -4.29656,-3.22242 1.10654,2.21309 10.30285,7.85902 12.35262,3.75949"
       id="path104" /><path
       style="fill:none;stroke:#000000;stroke-width:1;stroke-dasharray:none;stroke-opacity:1"
       d="m 109.02532,168.10307 c 2.86437,-0.35805 11.36872,-1.86717 8.59312,-1.07414 -4.01854,1.14816 -8.2184,1.53581 -12.35262,2.14828 -0.70836,0.10495 -2.83682,0.19673 -2.14828,0 6.42966,-1.83704 5.53166,-0.84847 11.27848,-4.29656"
       id="path105" /><path
       style="fill:none;stroke:#000000;stroke-width:1;stroke-dasharray:none;stroke-opacity:1"
       d="m 120.3038,161.12115 c -1.43219,1.25317 -2.75381,2.64528 -4.29657,3.7595 -1.89227,1.36664 -5.90777,1.42531 -5.90777,3.75949 0,3.34651 9.25971,-7.51899 10.20434,-7.51899 6.37453,0 -3.37244,4.64011 -3.7595,4.83364"
       id="path106" /><path
       style="fill:none;stroke:#000000;stroke-width:1;stroke-dasharray:none;stroke-opacity:1"
       d="m 61.76311,184.21519 c 14.377278,-16.4669 -10.784064,15.09769 0,0 z"
       id="path107" /><path
       style="fill:none;stroke:#000000;stroke-width:1;stroke-dasharray:none;stroke-opacity:1"
       d="m 59.614828,185.28933 c 2.755673,-2.13701 4.590881,-5.12795 6.981915,-7.51899"
       id="path108" /><path
       style="fill:none;stroke:#000000;stroke-width:1;stroke-dasharray:none;stroke-opacity:1"
       d="m 67.670886,172.93671 c -8.329711,14.63379 5.035968,-10.07194 -2.685355,5.3707"
       id="path109" /><path
       style="fill:none;stroke:#000000;stroke-width:1;stroke-dasharray:none;stroke-opacity:1"
       d="m 60.688968,186.36347 c -0.716095,0.35805 -2.506329,0.35805 -2.148282,1.07414 0.358048,0.71609 1.704179,-1.74029 2.148282,-1.07414 0.893739,1.34061 1.611212,4.83363 0,4.83363 -1.611212,0 -0.442635,-3.28441 0,-4.83363 z"
       id="path110" /><path
       style="fill:none;stroke:#000000;stroke-width:1;stroke-dasharray:none;stroke-opacity:1"
       d="m 58.003617,187.97468 c 0.716092,0.71609 1.432186,2.86438 2.148281,2.14828 0.716095,-0.71609 -1.432189,-1.43219 -2.148281,-2.14828 z"
       id="path111" /><path
       style="fill:none;stroke:#000000;stroke-width:1;stroke-dasharray:none;stroke-opacity:1"
       d="m 61.226038,180.45569 c -0.179023,0.17903 -0.358045,0.35805 -0.53707,0.53707 -1.07414,0.89512 -2.148282,1.79024 -3.222424,2.68536 5.11874,-4.3875 2.769183,-1.90202 6.981919,-7.51899 1.432188,-1.61121 2.864376,-3.22242 4.296564,-4.83363 0.179024,0 0.358047,0 0.537071,0 -8.54047,17.29332 6.200223,-9.47808 -2.148282,4.83363 -1.448573,2.48327 -3.283198,3.17174 -5.907778,4.29656 z"
       id="path112" /><path
       style="fill:none;stroke:#000000;stroke-width:1;stroke-dasharray:none;stroke-opacity:1"
       d="m 81.097648,105.80289 c 4.221065,0.82982 7.089688,2.02563 0,0 z"
       id="path113" /><path
       style="fill:none;stroke:#000000;stroke-width:1;stroke-dasharray:none;stroke-opacity:1"
       d="m 83.783,109.02532 c -2.864374,-1.43219 -2.864374,-1.43219 0,0 z"
       id="path114" /><path
       style="fill:none;stroke:#000000;stroke-width:1;stroke-dasharray:none;stroke-opacity:1"
       d="m 77.875224,103.65461 c 2.00741,0.63024 0.542991,4.83364 5.370706,4.83364 2.408515,0 -5.370706,-7.24216 -5.370706,-4.83364 0,2.40852 3.667628,6.53671 5.370706,4.83364 0.528275,-0.52828 -11.286966,-4.83364 -5.370706,-4.83364 3.286435,0 6.269268,7.15749 8.59313,4.83364 0.213844,-0.21385 -3.759494,-1.73128 -3.759494,-1.07415 0,0.84841 4.953077,0.41763 4.296563,1.07415 -2.122738,2.12273 1.611212,-4.83228 1.611212,-3.22243 0,5.04841 -6.412362,4.81739 3.222424,0 2.399425,0.84661 -7.378037,5.90778 -4.833634,5.90778 2.544403,0 7.247466,-6.71239 4.833634,-5.90778 -3.618426,1.20614 -3.395257,6.62697 -8.056057,4.29657 -0.07579,-0.0379 -6.578152,-7.9189 -5.907778,-5.90778 0.720556,2.16167 4.833637,2.55504 4.833637,4.83364 0,2.27859 -3.466478,-3.01076 -4.833637,-4.83364 z"
       id="path115" /><path
       style="fill:none;stroke:#000000;stroke-width:1;stroke-dasharray:none;stroke-opacity:1"
       d="m 122.98915,139.63833 c 2.1635,0.39223 5.1277,8.24801 3.75949,12.35263"
       id="path116" /><path
       style="fill:none;stroke:#000000;stroke-width:1;stroke-dasharray:none;stroke-opacity:1"
       d="m 126.21157,145.00904 c 1.75342,3.78995 -3.87544,15.80694 -1.07414,10.20434"
       id="path117" /><path
       style="fill:none;stroke:#000000;stroke-width:1;stroke-dasharray:none;stroke-opacity:1"
       d="m 126.74864,148.76853 c -0.82599,3.11406 -2.41098,5.54194 -4.29656,8.05606"
       id="path118" /><path
       style="fill:none;stroke:#000000;stroke-width:1;stroke-dasharray:none;stroke-opacity:1"
       d="m 117.08137,171.3255 c -1.02059,1.02059 -5.20282,2.14828 -3.75949,2.14828 3.28643,0 11.87956,-4.83364 8.59313,-4.83364 -2.33418,0 -4.25726,5.41001 -5.90778,3.7595 -0.63294,-0.63295 1.38073,-1.15068 2.14828,-1.61121 1.23765,-0.74259 2.50633,-1.43219 3.7595,-2.14829 0.64945,2.67822 -10.74141,3.22677 -10.74141,4.83364 0,0.47467 8.80229,-5.0428 5.90777,-2.14828 -1.4153,1.4153 -3.58047,1.79023 -5.3707,2.68535 -0.32025,0.16012 -1.07414,-0.35805 -1.07414,0 0,0.52174 8.86335,-2.68535 6.44484,-2.68535 -2.09846,0 -10.60286,5.03289 -3.75949,1.61121"
       id="path119" /><path
       style="fill:none;stroke:#000000;stroke-width:1;stroke-dasharray:none;stroke-opacity:1"
       d="m 84.320072,138.02712 c 3.323574,-8.56665 -4.714605,9.66727 -3.759494,9.66727 0.650865,0 0.4347,-3.24765 0.53707,-3.75949 0.705546,-3.52773 4.198887,-7.58405 6.444845,-10.20434 0.288684,-0.3368 -5.172159,5.05503 -6.444845,13.96383 -0.202541,1.4178 0,5.72875 0,4.29657 0,-5.271 0.819383,-9.15775 3.222424,-13.96384 z"
       id="path120" /><path
       style="fill:none;stroke:#000000;stroke-width:1;stroke-dasharray:none;stroke-opacity:1"
       d="m 84.320072,137.49005 c -0.407509,-5.50145 -5.60179,17.95441 -2.685354,15.03798 0.555548,-0.55555 -1.628164,-8.17802 -0.53707,-10.20434 0.918065,-1.70498 3.222424,-6.77007 3.222424,-4.83364 0,2.24316 -2.434799,3.80744 -3.222424,5.90778 -0.659937,1.75983 1.439336,8.22793 0.53707,9.1302 -3.972131,3.97213 1.603378,-13.30682 2.685354,-15.03798 z"
       id="path121" /><path
       style="fill:none;stroke:#000000;stroke-width:1;stroke-dasharray:none;stroke-opacity:1"
       d="m 106.87703,124.06329 c 0.7161,0 2.14829,0.71609 2.14829,0 0,-0.71609 -2.78878,-0.32025 -2.14829,0 1.72459,0.86229 5.37071,0.22014 5.37071,2.14828 0,1.92814 -4.50842,-0.4237 -5.37071,-2.14828 -0.99309,-1.98619 5.97856,2.37449 6.44485,2.68535"
       id="path122" /><path
       style="fill:none;stroke:#000000;stroke-width:1;stroke-dasharray:none;stroke-opacity:1"
       d="m 80.560578,194.41953 c 7.956257,-4.71332 11.055951,-5.52798 0,0 z"
       id="path123" /><path
       style="fill:none;stroke:#000000;stroke-width:1;stroke-dasharray:none;stroke-opacity:1"
       d="m 90.227847,190.66003 c 0.553146,2.15817 2.148282,4.19956 2.148282,6.44485 0,2.26449 0.116205,-6.44485 -2.148282,-6.44485 -0.626046,0 2.148282,7.20232 2.148282,8.59313 -2.545607,-7.58576 1.611213,8.02538 1.611213,6.44485 0,-2.2144 -3.453705,-7.67318 -1.611213,-6.44485 2.2144,1.47627 2.685354,10.18037 2.685354,7.51899 0,-2.66138 -2.685354,-10.18037 -2.685354,-7.51899 0,1.51259 2.542151,6.55231 3.222424,8.59313"
       id="path124" /><path
       style="fill:none;stroke:#000000;stroke-width:1;stroke-dasharray:none;stroke-opacity:1"
       d="m 120.84087,191.1971 c 1.43219,-3.58047 1.43219,-3.58047 0,0 z"
       id="path125" /><path
       style="fill:none;stroke:#000000;stroke-width:1;stroke-dasharray:none;stroke-opacity:1"
       d="m 113.85895,208.92043 c 0.71609,-0.17902 2.32731,0.17902 2.14828,-0.53707 -0.17902,-0.71609 -1.43219,0.35805 -2.14828,0.53707 z"
       id="path126" /><path
       style="fill:none;stroke:#000000;stroke-width:1;stroke-dasharray:none;stroke-opacity:1"
       d="m 118.15551,202.47558 c -0.0922,1.7968 -0.53707,3.57155 -0.53707,5.37071"
       id="path127" /><path
       style="fill:#4d4d4d;stroke:#000000;stroke-width:1;stroke-dasharray:none;stroke-opacity:1"
       d="m 149.3056,161.12115 c 0.2338,1.91082 -3.22242,3.44872 -3.22242,5.37071 0,0.76282 3.22242,-8.36844 3.22242,-5.37071 0,8.28282 -2.96297,3.20426 -1.61121,5.90778 1.61456,13.88909 0.61286,-0.0766 0,0 -1.43219,0.17902 -0.89511,4.47559 0.53707,4.29657 1.43219,-0.17903 -0.68816,-2.86117 -0.53707,-4.29657 0.21368,-2.02997 1.07414,-3.93852 1.61121,-5.90778 z"
       id="path128" /><path
       style="fill:#4d4d4d;stroke:#000000;stroke-width:1;stroke-dasharray:none;stroke-opacity:1"
       d="m 44.576854,153.60217 c 0.358045,0.71609 0.358045,2.50633 1.074139,2.14828 0.716095,-0.35805 -0.716094,-1.43219 -1.074139,-2.14828 z"
       id="path129" /><path
       style="fill:#4d4d4d;stroke:#000000;stroke-width:1;stroke-dasharray:none;stroke-opacity:1"
       d="m 47.799275,161.65823 c -0.457187,-1.82876 -1.317297,-4.26567 -1.074139,-6.44485 0.358046,2.14828 0.716093,4.29657 1.074139,6.44485 z"
       id="path130" /><path
       style="opacity:0.315811;fill:none;stroke:#000000;stroke-width:1;stroke-dasharray:none;stroke-opacity:1"
       d="m 43.502712,141.24955 c 2.864376,-1.43219 2.864376,-1.43219 0,0 z"
       id="path131" /><path
       style="opacity:0.315811;fill:none;stroke:#000000;stroke-width:1;stroke-dasharray:none;stroke-opacity:1"
       d="m 80.560578,148.23146 c -1.20768,4.5163 -0.456456,9.29143 1.611212,13.42677"
       id="path132" /><path
       style="opacity:0.315811;fill:none;stroke:#000000;stroke-width:1;stroke-dasharray:none;stroke-opacity:1"
       d="m 81.634718,152.52803 c -1.024173,-4.0967 -1.751309,-8.13185 -0.53707,-12.35263 -0.256869,4.2401 0.01533,8.1787 0.53707,12.35263 z"
       id="path133" /><path
       style="opacity:0.315811;fill:none;stroke:#000000;stroke-width:1;stroke-dasharray:none;stroke-opacity:1"
       d="m 81.634718,143.9349 c 0.537072,-1.43219 1.074142,-2.86438 1.611212,-4.29657"
       id="path134" /><path
       style="opacity:0.315811;fill:none;stroke:#000000;stroke-width:1;stroke-dasharray:none;stroke-opacity:1"
       d="m 84.857142,135.87884 c -3.841538,4.96027 -3.21468,10.8266 -2.685352,16.64919"
       id="path135" /><path
       style="opacity:0.315811;fill:none;stroke:#000000;stroke-width:1;stroke-dasharray:none;stroke-opacity:1"
       d="m 58.003617,189.04882 c 9.374814,10.22651 2.269003,2.269 0,0 z"
       id="path136" /><path
       style="opacity:0.315811;fill:none;stroke:#000000;stroke-width:1;stroke-dasharray:none;stroke-opacity:1"
       d="m 61.226038,189.58589 c -3.580469,-4.29656 -3.580469,-4.29656 0,0 z"
       id="path137" /><path
       style="opacity:0.315811;fill:none;stroke:#000000;stroke-width:1;stroke-dasharray:none;stroke-opacity:1"
       d="m 59.614828,184.21519 c 0.938761,1.62202 13.171816,17.12336 0,0 z"
       id="path138" /><path
       style="opacity:0.315811;fill:none;stroke:#000000;stroke-width:1;stroke-dasharray:none;stroke-opacity:1"
       d="m 67.133816,192.27125 c 0,-0.17903 0,-0.35805 0,-0.53707 -2.327307,-3.22243 -4.654614,-6.44485 -6.981918,-9.66727 6.788456,7.40559 5.107159,3.64268 6.981918,10.20434 z"
       id="path139" /><path
       style="opacity:0.315811;fill:none;stroke:#000000;stroke-width:1;stroke-dasharray:none;stroke-opacity:1"
       d="m 67.670886,187.43761 c -1.384636,-2.76927 -3.462399,-5.10492 -5.370706,-7.51899 1.611212,1.07414 3.222424,2.14829 4.833636,3.22243 0.179023,0.17902 0.358047,0.35805 0.53707,0.53707"
       id="path140" /><path
       style="opacity:0.315811;fill:none;stroke:#000000;stroke-width:1;stroke-dasharray:none;stroke-opacity:1"
       d="m 64.448462,178.30741 c 1.432189,1.43219 2.864376,2.86438 4.296563,4.29657"
       id="path141" /><path
       style="opacity:0.315811;fill:none;stroke:#000000;stroke-width:1;stroke-dasharray:none;stroke-opacity:1"
       d="m 67.133816,172.93671 c 1.611209,0.71609 3.222421,1.43218 4.833633,2.14828"
       id="path142" /><path
       style="opacity:0.315811;fill:none;stroke:#000000;stroke-width:1;stroke-dasharray:none;stroke-opacity:1"
       d="m 101.50633,211.06871 c 1.18418,0 9.1302,-0.43607 9.1302,1.07415 0,1.40497 -11.890145,-0.53708 -10.741414,-0.53708 2.074254,0 3.821334,0.53708 5.907774,0.53708 0.53707,0 -1.07414,0 -1.61121,0 -1.62502,0 -3.27678,-0.53708 -4.833633,-0.53708 -1.601235,0 -0.547048,-4.29656 -2.148282,-4.29656 -1.43219,0 0.280874,2.89219 0,4.29656 -0.280876,1.40438 -1.526662,-7.31495 0,-4.29656 -0.944923,-12.61664 -0.391971,3.48366 0.53707,4.29657 0.952679,0.83359 3.916505,0.71903 3.759495,-0.53708 -0.23604,-1.88835 -2.864377,-2.50633 -4.296565,-3.75949"
       id="path143" /><path
       style="opacity:0.315811;fill:none;stroke:#000000;stroke-width:1;stroke-dasharray:none;stroke-opacity:1"
       d="m 116.5443,204.62387 c 0,1.79023 0,3.58047 0,5.3707 0,1.79024 -0.41003,-3.62806 0,-5.3707 0.35273,-1.49908 3.31082,-5.16678 2.68535,-3.7595 -0.62545,1.40729 -2.68535,5.29952 -2.68535,3.7595 0,-2.16315 1.83325,-3.91953 2.68535,-5.90778 0.6386,-1.49005 0.53708,-6.45476 0.53708,-4.83363 0,3.91322 -2.80436,6.97884 -3.22243,10.74141 -0.26277,2.36499 1.61121,4.60518 1.61121,6.98191"
       id="path144" /><path
       style="opacity:0.315811;fill:none;stroke:#000000;stroke-width:1;stroke-dasharray:none;stroke-opacity:1"
       d="m 143.9349,197.10488 c -0.35805,0.89512 -1.96926,2.32731 -1.07414,2.68535 0.89512,0.35805 0.17433,-2.33927 1.07414,-2.68535 2.01204,-0.77386 7.96918,0.98726 6.44485,-0.53707 -0.73814,-0.73813 -1.64786,1.72649 -2.68536,1.61121 -1.29534,-0.14392 -5.0628,-1.07414 -3.75949,-1.07414 1.47626,0 2.8203,1.07414 4.29656,1.07414 1.2961,0 5.46481,-6.00187 2.14829,-2.68535 -6.59971,1.64992 -6.98192,-0.38316 -6.98192,5.90778 0,1.44333 -0.57173,-3.37257 0.53707,-4.29657 1.70115,-1.41762 6.98192,0.53707 6.44485,-1.61121 -0.53707,-2.14828 -6.98192,-0.53707 -6.44485,1.61121 0.53707,2.14828 6.98192,0.53707 6.44485,-1.61121 -0.53707,-2.14828 -6.98192,-0.53707 -6.44485,1.61121 0.53707,2.14828 4.75441,-0.18084 6.44485,-1.61121 1.10182,-0.93231 0.35804,-2.86438 0.53707,-4.29656"
       id="path145" /><path
       style="opacity:0.315811;fill:none;stroke:#000000;stroke-width:1;stroke-dasharray:none;stroke-opacity:1"
       d="m 148.23146,169.17721 c 5.12569,7.1425 3.13582,8.36218 0,0 z"
       id="path146" /><path
       style="opacity:0.315811;fill:none;stroke:#000000;stroke-width:1;stroke-dasharray:none;stroke-opacity:1"
       d="m 62.30018,193.88246 c 1.253164,1.25316 2.506329,2.50633 3.759494,3.75949"
       id="path147" /><path
       style="opacity:0.315811;fill:none;stroke:#000000;stroke-width:1;stroke-dasharray:none;stroke-opacity:1"
       d="m 57.466544,187.97468 c 4.296566,3.93852 8.59313,7.87704 12.889693,11.81555"
       id="path148" /><path
       style="opacity:0.315811;fill:none;stroke:#000000;stroke-width:1;stroke-dasharray:none;stroke-opacity:1"
       d="m 85.931284,192.27125 c 0.895117,-0.35805 3.043399,-0.17903 2.685351,-1.07415 -0.358047,-0.89511 -1.74268,0.87214 -2.685351,1.07415 -1.585143,0.33967 -3.222424,0.35804 -4.833636,0.53707 1.901817,-1.30658 -3.648964,1.61121 -2.685351,1.61121 0.929396,0 2.60709,-2.02024 3.759493,-2.14828 1.2455,-0.13839 4.880356,-0.56044 3.759494,0 -2.136315,1.06815 -4.845603,0.54305 -6.981918,1.61121"
       id="path149" /><path
       style="opacity:0.315811;fill:none;stroke:#000000;stroke-width:1;stroke-dasharray:none;stroke-opacity:1"
       d="m 97.209765,189.58589 c -2.864377,-0.71609 -2.864377,-0.71609 0,0 z"
       id="path150" /><path
       style="opacity:0.315811;fill:none;stroke:#000000;stroke-width:1;stroke-dasharray:none;stroke-opacity:1"
       d="m 94.524411,189.58589 c -0.163775,4.72481 1.374965,9.32394 2.148281,13.96384"
       id="path151" /><path
       style="opacity:0.315811;fill:none;stroke:#000000;stroke-width:1;stroke-dasharray:none;stroke-opacity:1"
       d="m 107.4141,189.04882 c 2.86438,0.7161 2.86438,0.7161 0,0 z"
       id="path152" /><path
       style="opacity:0.315811;fill:none;stroke:#000000;stroke-width:1;stroke-dasharray:none;stroke-opacity:1"
       d="m 107.4141,190.66003 c 1.07415,0.35805 2.14829,0.7161 0,0 z"
       id="path153" /><path
       style="opacity:0.315811;fill:none;stroke:#000000;stroke-width:1;stroke-dasharray:none;stroke-opacity:1"
       d="m 107.4141,193.88246 c 0.7161,0.17902 1.43219,0.35804 0,0 z"
       id="path154" /><path
       style="opacity:0.315811;fill:none;stroke:#000000;stroke-width:1;stroke-dasharray:none;stroke-opacity:1"
       d="m 106.87703,194.9566 c 0.89512,0 1.79024,0 0,0 z"
       id="path155" /><path
       style="opacity:0.315811;fill:none;stroke:#000000;stroke-width:1;stroke-dasharray:none;stroke-opacity:1"
       d="m 106.87703,196.03074 c 1.07414,0.35805 2.14829,0.71609 0,0 z"
       id="path156" /><path
       style="opacity:0.315811;fill:none;stroke:#000000;stroke-width:1;stroke-dasharray:none;stroke-opacity:1"
       d="m 111.1736,200.3273 c -3.20473,-0.80118 -1.4202,-0.41572 -5.37071,-1.07414 1.79024,0.35805 3.58047,0.71609 5.37071,1.07414 z"
       id="path157" /><path
       style="opacity:0.315811;fill:none;stroke:#000000;stroke-width:1;stroke-dasharray:none;stroke-opacity:1"
       d="m 106.33996,199.25316 c 3.53771,0.88443 1.41015,0.53707 6.44485,0.53707"
       id="path158" /><path
       style="opacity:0.315811;fill:none;stroke:#000000;stroke-width:1;stroke-dasharray:none;stroke-opacity:1"
       d="m 112.78481,195.49367 c -2.14828,0 -4.29656,0 -6.44485,0 2.14828,0 4.29657,0 6.44485,0 z"
       id="path159" /><path
       style="opacity:0.315811;fill:none;stroke:#000000;stroke-width:1;stroke-dasharray:none;stroke-opacity:1"
       d="m 108.48825,191.1971 c -3.58048,0 -3.58048,0 0,0 z"
       id="path160" /><path
       style="opacity:0.315811;fill:none;stroke:#000000;stroke-width:1;stroke-dasharray:none;stroke-opacity:1"
       d="m 112.78481,189.04882 c -0.17903,0.17903 -0.35805,0.35805 -0.53707,0.53707 -1.61121,-0.17902 -3.22242,-0.35804 -4.83364,-0.53707 7.16095,0 7.16095,0 0,0 1.79024,0 3.58047,0 5.37071,0 z"
       id="path161" /><path
       style="opacity:0.315811;fill:none;stroke:#000000;stroke-width:1;stroke-dasharray:none;stroke-opacity:1"
       d="m 110.09946,190.66003 c -0.17903,0 -0.35805,0 -0.53707,0 -1.25317,-0.17902 -2.50633,-0.35804 -3.7595,-0.53707 1.43219,0.17902 2.86438,0.35805 4.29657,0.53707 z"
       id="path162" /><path
       style="opacity:0.315811;fill:none;stroke:#000000;stroke-width:1;stroke-dasharray:none;stroke-opacity:1"
       d="m 109.02532,201.40144 c 0,-1.46866 0.72085,-11.51876 -3.22243,-10.20434 -1.61121,0.53708 1.332,3.15838 1.61121,4.83364 0.0931,0.55842 -0.32681,2.13684 -0.53707,1.61121 -0.80885,-2.02214 -0.0948,-4.43405 -1.07414,-6.44485 1.07414,3.40145 2.14829,6.80289 3.22243,10.20434 z"
       id="path163" /><path
       style="opacity:0.315811;fill:none;stroke:#000000;stroke-width:1;stroke-dasharray:none;stroke-opacity:1"
       d="m 110.63653,203.54973 c 0,-4.69596 -2.03955,-9.19765 -1.07414,-13.96384 0,7.89803 -0.18826,3.23346 1.07414,13.96384 z"
       id="path164" /><path
       style="opacity:0.315811;fill:none;stroke:#000000;stroke-width:1;stroke-dasharray:none;stroke-opacity:1"
       d="m 98.820974,200.86437 c 1.851316,23.21082 -3.809968,-26.66979 0,0 0.53408,3.73855 1.074142,15.05499 1.074142,11.27849"
       id="path165" /><path
       style="opacity:0.315811;fill:none;stroke:#000000;stroke-width:1;stroke-dasharray:none;stroke-opacity:1"
       d="m 84.320072,140.71248 c -3.042129,7.37463 -0.807942,15.15939 0.53707,22.55696 0.233143,1.28229 -0.661998,-2.52307 -1.074142,-3.7595 -2.322145,-6.96644 -1.786057,-11.82808 0.537072,-18.79746 z"
       id="path166" /><path
       style="opacity:0.315811;fill:none;stroke:#000000;stroke-width:1;stroke-dasharray:none;stroke-opacity:1"
       d="m 82.17179,142.32369 c -5.762908,2.12658 3.274817,15.52265 1.61121,17.18625 -1.303309,1.30332 -2.42469,-3.009 -2.685352,-4.83363 -0.937196,-6.56037 -0.202104,-14.2988 4.833636,-19.33454"
       id="path167" /><path
       style="opacity:0.315811;fill:none;stroke:#000000;stroke-width:1;stroke-dasharray:none;stroke-opacity:1"
       d="m 105.26582,127.82278 c -1.96485,0.74237 5.02389,-1.39024 3.7595,-1.07414 -1.2644,0.3161 -4.48245,2.15856 -3.7595,1.07414 3.81192,-5.71787 6.86515,-2.19207 11.27848,-0.53707 1.12446,0.42168 3.22243,0.41029 3.22243,1.61121 0,0.006 -6.44485,-2.10323 -6.44485,-3.22242 0,-0.91373 9.12696,5.63762 7.51899,4.83364"
       id="path168" /><path
       style="opacity:0.315811;fill:none;stroke:#000000;stroke-width:1;stroke-dasharray:none;stroke-opacity:1"
       d="m 116.5443,126.74864 c 5.39789,2.99883 3.81124,1.15175 5.90778,4.29656"
       id="path169" /><path
       style="opacity:0.315811;fill:none;stroke:#000000;stroke-width:1;stroke-dasharray:none;stroke-opacity:1"
       d="m 107.4141,174.54792 c 4.14767,2.12291 -5.03749,-1.32974 -3.75949,-1.07414 1.278,0.2556 5.0628,1.07414 3.75949,1.07414 -1.65051,0 -3.20974,-0.77889 -4.83363,-1.07414 -0.89812,-0.1633 -3.598198,0.53707 -2.685354,0.53707 1.215504,0 7.518984,-1.80543 7.518984,0.53707 0,0.008 -9.789498,-0.20742 -8.056053,-1.07414 1.121693,-0.56085 7.899143,2.32943 8.056053,1.07414 0.36101,-2.8881 -14.753922,2.31696 -8.056053,-2.14828"
       id="path170" /><path
       style="opacity:0.315811;fill:none;stroke:#000000;stroke-width:1;stroke-dasharray:none;stroke-opacity:1"
       d="m 126.21157,160.04702 c -2.14661,4.29321 7.16884,-9.10598 4.83364,-10.20434 4.40398,-5.87198 1.95549,-1.32202 -3.7595,-15.03798 -0.14609,2.814 4.83364,4.15131 4.83364,6.98192 0,2.83061 -6.83518,-4.98038 -4.83364,-6.98192 0.9858,-0.9858 8.2144,14.73842 2.68536,6.44485 4.53502,0.36774 -0.53707,19.07263 -0.53707,14.5009 -1.07414,1.43219 -2.14829,2.86438 -3.22243,4.29657 z"
       id="path171" /><path
       style="opacity:0.315811;fill:none;stroke:#000000;stroke-width:1;stroke-dasharray:none;stroke-opacity:1"
       d="m 115.47016,172.39964 c -2.3273,0 -4.65696,-0.10466 -6.98191,0 2.3273,0 4.65461,0 6.98191,0 z"
       id="path172" /><path
       style="opacity:0.315811;fill:none;stroke:#000000;stroke-width:1;stroke-dasharray:none;stroke-opacity:1"
       d="m 107.4141,173.47378 c -8.408574,0 1.9983,-0.37608 4.29657,-1.07414 -4.65461,0.35805 -9.30922,0.71609 -13.963835,1.07414 -0.179023,0.17902 -0.358047,0.35805 -0.53707,0.53707"
       id="path173" /><path
       style="opacity:0.315811;fill:none;stroke:#000000;stroke-width:1;stroke-dasharray:none;stroke-opacity:1"
       d="m 102.0434,174.54792 c -3.993102,-3.03682 -12.774516,-3.19363 0,0 0.44708,0.11177 -7.027184,-4.29657 -6.981919,-4.29657 2.732677,0 4.743222,2.72948 6.981919,4.29657 z"
       id="path174" /><path
       style="opacity:0.315811;fill:none;stroke:#000000;stroke-width:1;stroke-dasharray:none;stroke-opacity:1"
       d="m 100.96926,172.93671 c -0.17903,-0.17903 -0.35805,-0.35805 -0.53707,-0.53707 -1.611216,-0.53707 -3.222425,-1.07414 -4.833637,-1.61121 1.790236,0.71609 3.580471,1.43219 5.370707,2.14828 z"
       id="path175" /><path
       style="opacity:0.315811;fill:none;stroke:#000000;stroke-width:1;stroke-dasharray:none;stroke-opacity:1"
       d="m 73.578661,141.78662 c -3.720624,2.88751 1.074142,7.31682 1.074142,10.20434 0,0.96407 -0.973219,-1.72658 -1.074142,-2.68536 -0.523066,-4.96913 -0.483746,-11.34958 2.685351,-15.57504 0.960742,-1.28099 -1.688168,2.76286 -2.148281,4.29656 -1.224653,4.08218 -2.7724,9.05793 -2.148282,13.42677 0.104058,0.72841 1.440259,1.78216 0.53707,2.68535 -0.283059,0.28306 -0.41048,-0.69438 -0.53707,-1.07414 -0.822563,-2.46769 -1.785395,-5.02234 -0.53707,-7.51899 0.432872,-0.86574 3.824608,-9.66727 3.222424,-9.66727 -0.892334,0 -3.306366,12.21816 -3.222424,12.88969 0.18972,1.51777 2.692786,5.37814 1.611212,4.29657 -3.493397,-3.4934 0.53707,-13.06522 0.53707,-17.18626"
       id="path176" /><path
       style="opacity:0.315811;fill:none;stroke:#000000;stroke-width:1;stroke-dasharray:none;stroke-opacity:1"
       d="m 65.522604,155.21338 c -3.201411,-10.12922 3.614515,14.45806 0,0 z"
       id="path177" /><path
       style="opacity:0.315811;fill:none;stroke:#000000;stroke-width:1;stroke-dasharray:none;stroke-opacity:1"
       d="m 61.226038,158.4358 c 1.253164,1.07414 2.506329,2.14828 3.759493,3.22243 0.179025,0.17902 0.358048,0.35804 0.537073,0.53707 -1.432189,-1.25317 -2.864377,-2.50633 -4.296566,-3.7595 z"
       id="path178" /><path
       style="opacity:0.315811;fill:none;stroke:#000000;stroke-width:1;stroke-dasharray:none;stroke-opacity:1"
       d="m 60.688968,162.1953 c 2.586064,1.15458 -7.895661,-2.81092 -5.907775,-2.14829 1.987886,0.66263 7.389458,0.6666 5.907775,2.14829 -1.665015,1.66501 -4.647885,-0.76294 -6.981918,-1.07415 -0.354904,-0.0473 -1.413814,-0.11322 -1.074139,0 1.906961,0.63566 6.788388,0.94738 8.056057,1.07415 z"
       id="path179" /><path
       style="opacity:0.315811;fill:none;stroke:#000000;stroke-width:1;stroke-dasharray:none;stroke-opacity:1"
       d="m 53.169981,162.73237 c 7.915272,1.13075 5.2545,-0.0581 8.593129,1.61121"
       id="path180" /><path
       style="opacity:0.315811;fill:none;stroke:#000000;stroke-width:1;stroke-dasharray:none;stroke-opacity:1"
       d="m 56.929474,163.26944 c 3.565655,-13.48203 0.701779,8.79369 -0.537069,-4.83364 -0.02593,-0.2853 -0.386948,-2.68535 -0.53707,-2.68535 -2.637989,0 3.203398,7.51899 1.074139,7.51899 -3.847139,0 -2.685351,-9.7431 -2.685351,-8.59313 0,1.3232 -1.245738,3.65252 -0.537073,4.83363 0.849186,1.41531 3.744363,5.32531 3.222424,3.7595 -0.886121,-2.65837 -2.506329,-5.01266 -3.759493,-7.51899 -0.316998,-0.634 -0.440111,4.54275 -0.53707,4.83363 -0.521938,1.56582 -1.074142,-6.48414 -1.074142,-4.83363 0,0.55334 -0.988253,5.45659 -1.07414,5.3707 -0.401558,-0.40155 0.30357,-6.44484 0,-6.44484 -0.238471,0 -0.399319,8.46931 -1.074142,6.44484 -1.724766,-5.17429 1.763231,-5.21868 -1.074139,-8.05605 -0.158856,-0.15886 -0.99517,8.59313 -0.537073,8.59313 1.265889,0 -0.358047,-2.50633 -0.53707,-3.7595 -0.138416,-0.96892 0.433795,-3.42897 0,-4.29656 -0.800618,-1.60124 -0.434194,3.63392 0,5.3707 0.393182,1.57273 0.187921,-6.28361 -0.537069,-4.83363 -1.150004,2.3 -1.563489,5.9555 -1.611212,5.90777 -1.688905,-1.6889 -1.611212,-9.37038 -1.611212,-6.98191 0,10.78151 0.65964,2.93049 -0.53707,0.53707"
       id="path181" /><path
       style="opacity:0.315811;fill:none;stroke:#000000;stroke-width:1;stroke-dasharray:none;stroke-opacity:1"
       d="m 149.84267,171.86257 c 2.52057,8.19182 0.42649,5.26012 4.83364,9.66726"
       id="path182" /><path
       style="opacity:0.315811;fill:none;stroke:#000000;stroke-width:1;stroke-dasharray:none;stroke-opacity:1"
       d="m 158.97287,187.97468 c 4.64073,-2.66566 -5.37924,4.84217 -7.51898,6.98192"
       id="path183" /><path
       style="opacity:0.315811;fill:none;stroke:#000000;stroke-width:1;stroke-dasharray:none;stroke-opacity:1"
       d="m 91.301987,189.58589 c 4.054435,9.93291 1.157041,4.62817 1.074142,4.29657"
       id="path184" /><path
       style="opacity:0.315811;fill:none;stroke:#000000;stroke-width:1;stroke-dasharray:none;stroke-opacity:1"
       d="m 153.60217,117.61844 c -1.24875,1.24875 -10.20434,6.66685 -10.20434,8.59313 0,1.5753 11.37748,-9.1302 11.27848,-9.1302 -2.29837,0 -9.26063,6.70571 -10.20434,8.59313 -0.68405,1.3681 -2.97931,4.98062 -1.61121,4.29657 1.95456,-0.97728 2.44834,-3.6225 3.75949,-5.37071 0.10678,-0.14236 2.99824,-3.22242 2.68536,-3.22242 -0.73814,0 -1.48808,0.20697 -2.14829,0.53707 -2.7221,1.36105 -1.61693,6.61319 -4.29656,8.05606 -1.45323,0.78251 -2.50633,-2.14829 -3.7595,-3.22243 2.60471,2.60471 1.30566,1.58653 3.7595,3.22243 6.37162,12.05502 5.44412,7.62176 0,0"
       id="path185" /><path
       style="opacity:0.315811;fill:none;stroke:#000000;stroke-width:1;stroke-dasharray:none;stroke-opacity:1"
       d="m 150.37975,136.41591 c 0.71885,0.1552 14.5009,2.45656 14.5009,2.14828 0,-0.19949 -9.38883,-1.53707 -10.20434,-1.61121 -1.43741,-0.13067 -5.09718,-1.73799 -4.29656,-0.53707 1.06954,1.60431 3.5415,1.53855 5.3707,2.14828 9.74981,3.24994 14.18365,3.00885 0,-0.53707 0.53707,1.07414 -1.61121,-0.53707 -1.61121,0 0,0.91285 1.79976,0.31568 2.68535,0.53707 2.5297,0.63243 5.10832,1.34473 7.51899,2.14829"
       id="path186" /><path
       style="opacity:0.315811;fill:none;stroke:#000000;stroke-width:1;stroke-dasharray:none;stroke-opacity:1"
       d="m 168.64014,143.39783 c 6.08121,14.4876 -1.05367,-7.3757 0.53707,3.75949"
       id="path187" /><path
       style="opacity:0.315811;fill:none;stroke:#000000;stroke-width:1;stroke-dasharray:none;stroke-opacity:1"
       d="m 103.65461,87.005423 c 4.79231,1.369232 2.45618,1.074143 6.98192,1.074143 2.35468,0 -6.98192,-3.428828 -6.98192,-1.074143 0,1.765539 5.19272,1.611212 6.98192,1.611212 2.38847,0 -4.59345,-1.611212 -6.98192,-1.611212 3.41851,1.961902 6.56931,1.611212 10.20434,1.611212 -0.0144,0.01075 5.01166,7.340966 3.75949,8.59313 -1.18142,1.181428 -5.41453,-9.144811 -3.75949,-8.59313 3.52094,1.173647 1.79661,4.334799 2.14828,6.444848 0.1585,0.950954 2.03822,2.685352 1.07414,2.685352 -3.22739,0 -0.33575,-7.686866 -3.22242,-9.1302 -1.13396,-0.566981 -6.14683,4.774681 -4.29656,1.074143"
       id="path188" /><path
       style="opacity:0.315811;fill:none;stroke:#000000;stroke-width:1;stroke-dasharray:none;stroke-opacity:1"
       d="m 147.69439,100.96926 c -11.31132,1.43046 -1.85042,-1.223072 -15.03797,5.3707"
       id="path189" /><path
       style="opacity:0.315811;fill:none;stroke:#000000;stroke-width:1;stroke-dasharray:none;stroke-opacity:1"
       d="m 116.5443,93.987341 c 3.56002,8.010049 1.14939,3.380703 8.05606,13.426759"
       id="path190" /><path
       style="opacity:0.315811;fill:none;stroke:#000000;stroke-width:1;stroke-dasharray:none;stroke-opacity:1"
       d="m 139.10126,104.72875 c -4.85758,0.96062 -9.66725,2.14828 -14.5009,3.22242"
       id="path191" /><path
       style="opacity:0.315811;fill:none;stroke:#000000;stroke-width:1;stroke-dasharray:none;stroke-opacity:1"
       d="m 118.15551,102.0434 c -1.28383,-2.567672 -1.23977,-5.533201 -2.68535,-8.056059 0,-1.969258 0.17829,-3.946604 0,-5.907775 -0.17902,-1.969259 -3.93039,-0.537071 -5.90777,-0.537071 -8.9387,0 7.10059,-1.541479 -2.14829,0 -1.66484,0.277475 -2.89103,0.371378 -4.29656,1.074142 -2.1061,1.053047 4.62723,-1.074142 6.98192,-1.074142 0.56612,0 -1.05609,0.426045 -1.61121,0.537071 -2.62096,0.524192 -5.07626,-0.537071 -7.51899,-0.537071 -1.536301,0 5.05523,-0.221598 4.29656,0.537071 -0.6213,0.621306 -5.720409,0.537071 -6.981914,0.537071"
       id="path192" /><path
       style="opacity:0.315811;fill:none;stroke:#000000;stroke-width:1;stroke-dasharray:none;stroke-opacity:1"
       d="m 83.783,110.09946 c 7.008825,4.69269 -7.924065,-4.29657 -5.907776,-4.29657 0.954733,0 6.3812,5.24341 5.907776,4.29657 -0.851067,-1.70214 -2.88204,-2.48643 -4.296564,-3.7595 -0.501988,-0.45179 -3.028169,-3.22242 -3.222424,-3.22242 -1.398217,0 4.47303,3.31065 3.222424,2.68535 -5.269738,-2.63487 -9.004831,-6.856548 -8.593127,-6.444843 0.738132,0.738133 1.94722,0.873073 2.685352,1.611213 0.53707,0.53707 1.611212,2.37074 1.611212,1.61121 0,-0.56612 -1.140169,-0.22304 -1.611212,-0.53707 -0.421312,-0.28088 -0.716095,-1.43219 -1.074142,-1.07414 -0.222369,0.22237 2.564945,1.53094 2.685354,1.61121 0.421312,0.28087 0.716095,1.43219 1.074139,1.07414 0.456422,-0.45642 -1.033878,-0.78547 -1.611209,-1.07414 -2.165022,-1.08251 -6.328055,-5.253915 -2.148284,-1.07414 1.969259,1.61121 3.938518,3.22242 5.907778,4.83363"
       id="path193" /><path
       style="opacity:0.315811;fill:none;stroke:#000000;stroke-width:1;stroke-dasharray:none;stroke-opacity:1"
       d="m 78.949366,107.4141 c -2.437656,-1.82824 -4.87972,-3.79486 -7.518987,-5.3707 2.506329,1.79023 5.012658,3.58047 7.518987,5.3707 z"
       id="path194" /><path
       style="opacity:0.315811;fill:none;stroke:#000000;stroke-width:1;stroke-dasharray:none;stroke-opacity:1"
       d="m 85.394212,111.1736 c -3.2594,0 -0.780818,0.20532 -6.444846,-3.7595 2.148282,1.25317 4.296564,2.50633 6.444846,3.7595 z"
       id="path195" /><path
       style="opacity:0.315811;fill:none;stroke:#000000;stroke-width:1;stroke-dasharray:none;stroke-opacity:1"
       d="m 90.764917,108.48825 c 0.766776,-1.46933 7.594351,-10.125807 0,0 z"
       id="path196" /><path
       style="opacity:0.315811;fill:none;stroke:#000000;stroke-width:1;stroke-dasharray:none;stroke-opacity:1"
       d="m 93.987341,105.26582 c -2.897516,4.63603 -1.930051,2.78596 -3.222424,5.37071 -1.611211,0.89512 -3.222422,1.79023 -4.833633,2.68535 -0.179024,0 -0.358047,0 -0.537071,0"
       id="path197" /><path
       style="opacity:0.315811;fill:none;stroke:#000000;stroke-width:1;stroke-dasharray:none;stroke-opacity:1"
       d="m 70.893309,105.26582 c -2.864376,-2.86437 -2.864376,-2.86437 0,0 z"
       id="path198" /><path
       style="opacity:0.315811;fill:none;stroke:#000000;stroke-width:1;stroke-dasharray:none;stroke-opacity:1"
       d="m 62.30018,104.72875 c -0.179022,0.17902 -0.358047,0.35805 -0.53707,0.53707 1.253165,-1.43219 2.506329,-2.86437 3.759494,-4.29656 -1.074141,1.25316 -2.148283,2.50633 -3.222424,3.75949 z"
       id="path199" /><path
       style="opacity:0.315811;fill:none;stroke:#000000;stroke-width:1;stroke-dasharray:none;stroke-opacity:1"
       d="m 60.151898,118.69258 c -2.710032,-4.06504 -1.235437,-2.30958 -4.296563,-5.3707 2.685352,2.32731 5.370705,4.65461 8.056057,6.98192"
       id="path200" /><path
       style="opacity:0.315811;fill:none;stroke:#000000;stroke-width:1;stroke-dasharray:none;stroke-opacity:1"
       d="m 64.448462,129.434 c 1.925507,5.13468 1.611212,2.76698 1.611212,6.98191"
       id="path201" /></g></svg>
