<?xml version="1.0" encoding="UTF-8" standalone="no"?>
<!-- Created with Inkscape (http://www.inkscape.org/) -->

<svg
   width="95.687553mm"
   height="91.294357mm"
   viewBox="0 0 95.687553 91.294357"
   version="1.1"
   id="svg1"
   xml:space="preserve"
   xmlns:inkscape="http://www.inkscape.org/namespaces/inkscape"
   xmlns:sodipodi="http://sodipodi.sourceforge.net/DTD/sodipodi-0.dtd"
   xmlns="http://www.w3.org/2000/svg"
   xmlns:svg="http://www.w3.org/2000/svg"><sodipodi:namedview
     id="namedview1"
     pagecolor="#ffffff"
     bordercolor="#000000"
     borderopacity="0.25"
     inkscape:showpageshadow="2"
     inkscape:pageopacity="0.0"
     inkscape:pagecheckerboard="0"
     inkscape:deskcolor="#d1d1d1"
     inkscape:document-units="mm"><inkscape:page
       x="0"
       y="0"
       width="95.687553"
       height="91.294357"
       id="page2"
       margin="0"
       bleed="0" /></sodipodi:namedview><defs
     id="defs1" /><g
     inkscape:label="Capa 1"
     inkscape:groupmode="layer"
     id="layer1"
     transform="translate(-55.231415,-70.632597)"><path
       style="fill:#000000;stroke-width:1.04474"
       d="m 92.594264,161.55834 c -10.262306,-1.58414 -17.014967,-4.89121 -24.588508,-12.04208 -4.508339,-4.25675 -6.113118,-6.32788 -8.354198,-10.78203 -12.01403,-23.87787 1.469584,-51.621145 28.264962,-58.156736 9.259519,-2.258462 20.34865,-1.254846 29.00353,2.624941 l 3.16827,1.42026 v 4.413359 4.413365 l -3.68237,-2.114683 c -5.809,-3.33593 -10.66237,-4.562774 -18.041328,-4.560545 -16.339945,0.005 -29.432646,9.517535 -34.206387,24.852899 -1.55264,4.98776 -1.435741,13.74522 0.253084,18.95968 3.460786,10.68557 13.63737,20.04563 24.812347,22.82149 18.073724,4.48949 36.630674,-4.95235 42.945554,-21.85089 3.37498,-9.03142 2.07406,-20.50703 -3.22876,-28.48133 l -1.96293,-2.9518 4.4789,-0.214971 4.4789,-0.214964 1.93242,3.941155 c 9.71445,19.81246 0.60319,44.20803 -20.14975,53.95131 -7.48641,3.51478 -17.66218,5.12337 -25.123736,3.97157 z m -2.181845,-16.47681 c -7.054103,-2.19232 -13.191317,-7.39134 -16.378068,-13.87431 -1.596215,-3.24727 -1.806058,-4.46398 -1.806058,-10.472 0,-6.25092 0.168322,-7.13656 2.092142,-11.00787 3.803072,-7.65301 10.887243,-12.783764 19.844163,-14.372306 5.098482,-0.904231 10.540752,-0.104795 16.247022,2.386575 l 3.83759,1.675512 -2.78936,2.660119 -2.78935,2.66012 -2.8967,-1.10532 c -4.09025,-1.56076 -10.629128,-1.44414 -14.682881,0.26192 -6.686414,2.81401 -11.001282,8.51088 -11.570773,15.27677 -0.489096,5.81081 1.175911,10.04807 5.609918,14.27664 7.308643,6.97003 18.036966,7.25955 25.853796,0.6977 5.92461,-4.97342 7.94869,-12.69832 5.28252,-20.16059 l -1.1065,-3.09692 2.77926,-2.65047 2.77925,-2.6505 1.72318,3.58953 c 5.20161,10.83538 3.14298,21.91678 -5.52367,29.73359 -5.33611,4.81284 -10.0127,6.64645 -17.534981,6.87514 -3.853534,0.11717 -7.166209,-0.14256 -8.9705,-0.70333 z m 3.348269,-15.71182 c -3.224554,-1.51568 -5.101656,-4.3839 -5.4002,-8.25146 -0.452175,-5.85813 3.852479,-10.08713 10.272322,-10.0918 l 3.32309,-0.002 -3.492809,3.52201 c -3.901977,3.93461 -4.268678,5.5081 -1.82649,7.83714 2.442193,2.32905 4.092119,1.97933 8.217879,-1.74187 l 3.69313,-3.33098 v 3.23525 c 0,7.42467 -7.82715,12.09554 -14.786922,8.82414 z m 4.377645,-8.41868 c -1.295683,-1.23566 0.591309,-3.48931 12.106447,-14.4589 l 12.559,-11.964011 v -4.872718 -4.872713 l 7.67089,-7.294712 c 4.21896,-4.012091 7.88483,-7.090643 8.14637,-6.841225 0.26153,0.249419 0.47553,2.881279 0.47553,5.848594 v 5.395106 h 5.73028 c 3.15167,0 5.88944,0.245558 6.08394,0.545701 0.1945,0.300131 -3.10094,3.796161 -7.32321,7.768942 l -7.67688,7.223255 h -5.03288 -5.0329 L 113.29967,109.4055 c -11.50252,10.98162 -13.865646,12.78117 -15.161337,11.54553 z"
       id="path1" /><path
       style="opacity:0.375086;fill:none;stroke:#000000;stroke-width:1"
       d="m 82.17179,122.98915 c -1.221687,-4.2759 -1.074142,-2.45618 -1.074142,-5.37071 0.313794,4.50089 1.836029,6.89448 3.759495,10.74142"
       id="path2" /><path
       style="opacity:0.375086;fill:none;stroke:#000000;stroke-width:1"
       d="m 81.634718,113.85895 c 0,1.43219 0,2.86438 0,4.29656 4.583926,13.92426 0,2.98508 0,-4.29656 z"
       id="path3" /><path
       style="opacity:0.375086;fill:none;stroke:#000000;stroke-width:1"
       d="m 83.783,112.78481 c -1.36588,5.66528 0.190346,12.0059 4.296566,16.11211"
       id="path4" /><path
       style="opacity:0.375086;fill:none;stroke:#000000;stroke-width:1"
       d="m 85.394212,124.06329 c -1.016657,-3.02883 -2.074575,-7.66641 -0.53707,-10.74141 3.085287,-1.8256 -2.6694,12.34465 0.53707,10.74141 4.292778,-2.14639 -4.341145,-14.54548 -0.53707,-10.74141 3.566241,3.56624 0.53707,18.63327 0.53707,10.74141 0,-6.85409 2.248281,-4.24226 -0.53707,-10.74141 2.728688,7.50389 2.810913,3.91989 0.53707,10.74141 z"
       id="path5" /><path
       style="opacity:0.375086;fill:none;stroke:#000000;stroke-width:1"
       d="m 88.079566,116.00723 c -1.373828,1.37383 -1.327267,3.38558 -0.537073,5.90778 3.652514,10.52226 0.121918,-1.3411 0.537073,-5.90778 z"
       id="path6" /><path
       style="opacity:0.375086;fill:none;stroke:#000000;stroke-width:1"
       d="m 86.468354,125.6745 c -1.253164,-2.50633 -2.692571,-4.92789 -3.759493,-7.51898 -0.04382,-0.10642 0.03092,-4.29657 0,-4.29657 -1.615607,0 -2.420761,8.30488 -2.148282,9.66727 0.345787,1.72894 3.911459,4.83364 2.148282,4.83364 -3.456716,0 -2.436941,-11.15775 -2.148282,-12.8897 0.422663,-2.53598 2.201214,-4.29656 2.148282,-4.29656 -0.358047,0 0.160123,0.75389 0,1.07414 -2.862499,5.725 -2.667327,10.24039 0,15.57504 -3.321705,-6.72278 -3.762656,-10.19485 -1.611212,-16.64918 0.933073,4.2361 -0.921648,7.82397 1.074141,11.81555 m 4.833633,-5.90778 c -1.046437,0.67208 -3.399438,2.86839 -0.537069,8.59313 -6.454214,-4.03388 -5.366041,-1.37821 0.537069,-8.59313 z"
       id="path7" /><path
       style="opacity:0.375086;fill:none;stroke:#000000;stroke-width:1"
       d="m 85.931284,115.47016 c -2.192388,3.29501 3.52112,12.95002 0.53707,6.98192 -0.179023,-2.32731 -0.358047,-4.65461 -0.53707,-6.98192 z"
       id="path8" /><path
       style="opacity:0.375086;fill:none;stroke:#000000;stroke-width:1"
       d="m 86.468354,118.15551 c 1.056441,1.715 -1.321319,1.90111 2.685351,5.90778 -0.895117,-1.96926 -1.790234,-3.93852 -2.685351,-5.90778 z"
       id="path9" /><path
       style="opacity:0.375086;fill:none;stroke:#000000;stroke-width:1"
       d="m 89.153705,116.00723 c -1.748448,3.15121 -1.047792,5.44976 0,8.59313"
       id="path10" /><path
       style="opacity:0.375086;fill:none;stroke:#000000;stroke-width:1"
       d="m 75.189873,114.93309 c 5.494009,14.03999 2.105017,14.73512 0,0 z"
       id="path11" /><path
       style="opacity:0.375086;fill:none;stroke:#000000;stroke-width:1"
       d="m 75.189873,120.84087 c 0.179022,1.43219 0.157303,2.90408 0.53707,4.29656 0.549407,2.01449 2.573414,3.78926 3.759493,5.37071 0.02891,0.0386 -4.296563,-1.0863 -4.296563,-9.66727 z"
       id="path12" /><path
       style="opacity:0.375086;fill:none;stroke:#000000;stroke-width:1"
       d="m 73.578661,119.76673 c 0,2.86437 -0.370475,5.75281 0,8.59312 0.406191,3.11414 4.833636,5.76481 4.833636,8.59313 0,1.3425 -5.810999,-4.59647 -6.444848,-9.66727 -0.317929,-2.54343 2.757522,-5.22637 1.611212,-7.51898 -1.967029,-3.93406 -2.224617,4.60736 -2.148282,5.3707 0.508773,5.08773 2.200275,7.08591 4.296564,11.27848 0.179025,0.35805 0.25401,1.3572 0.537069,1.07414 0.47515,-0.47515 -3.22504,-2.04558 -5.370703,-5.90777 -1.577342,-2.83922 -2.686864,-5.91685 -3.222423,-9.1302 -0.05038,-0.30227 0.02661,-3.7595 0,-3.7595 -1.50907,0 2.101122,20.40868 5.370705,20.40868 0.367829,0 -3.520935,-4.79816 -3.759494,-5.3707 -1.780614,-4.27348 -4.755218,-11.51374 -3.222423,-16.11212 -0.173663,7.59123 1.494397,13.13245 5.370706,19.33454 0.474411,0.75906 0.978268,2.78123 1.611211,2.14829 0.141839,-0.14184 -3.496956,-5.74475 -3.759493,-6.44485 -1.830914,-4.88244 -1.386452,-9.98905 -3.222424,-15.03798"
       id="path13" /><path
       style="opacity:0.375086;fill:none;stroke:#000000;stroke-width:1"
       d="m 69.819167,124.60036 c 9.072626,15.12767 0.615985,4.61988 0,0 -0.03877,-0.29076 1.360258,-11.27848 2.148282,-11.27848 2.357739,0 -2.66746,9.40943 -2.148282,11.27848 0.431192,1.55229 5.889257,7.22267 7.518988,9.66727 0.643479,0.96522 -5.558632,-3.50615 -7.518988,-9.66727 -0.920546,-2.89314 -1.074142,-8.40016 -1.074142,-11.81555 -0.633277,6.37417 -0.289029,17.14527 2.685355,23.09403"
       id="path14" /><path
       style="opacity:0.375086;fill:none;stroke:#000000;stroke-width:1"
       d="m 67.133816,128.35985 c -0.537073,-2.14828 -1.074142,-4.29656 -1.611212,-6.44484 1.30308,3.46167 1.518263,7.24014 2.685353,10.74141 5.957625,17.87289 -4.845679,-14.68034 -5.370706,-16.64919 -0.189128,-0.70923 1.05316,-3.69655 1.074141,-3.75949 -0.04163,2.4119 -1.427938,7.78627 -0.53707,10.20434 7.650688,12.0225 1.512238,0.0422 3.759494,11.27848 0.03513,0.17564 3.427781,5.90778 3.759493,5.90778 0.245603,0 -3.58474,-4.57151 -3.759493,-4.83364 -5.921342,-8.88201 6.452124,8.61011 0,-6.44485 -1.241182,-2.89609 -5.692398,-2.04746 -5.370706,-5.90777 1.27275,-15.273 4.145233,-5.21196 0,-15.57505"
       id="path15" /><path
       style="opacity:0.375086;fill:none;stroke:#000000;stroke-width:1"
       d="m 62.83725,111.71067 c 0,4.32324 -0.178134,6.45017 0.537072,10.74141 0.572119,3.43272 1.974583,6.95996 3.222421,10.20434 0.805249,2.09364 3.222424,3.66462 3.222424,5.90777 0,0.54522 -2.405586,-3.99434 -3.759493,-8.05605 -2.366024,-7.09807 -4.38612,-16.47008 -1.074143,-23.09404"
       id="path16" /><path
       style="opacity:0.375086;fill:none;stroke:#000000;stroke-width:1"
       d="m 64.985531,117.08137 c 0.253865,0.65283 1.074143,13.79928 1.074143,13.42677 0,-2.90112 -1.611212,-5.69961 -1.611212,-8.59313 0,-4.90755 -0.843627,-14.19435 3.222424,-18.2604 0.254298,-0.2543 -0.163672,2.57535 -1.074143,6.44485 -2.347277,9.97593 -2.14277,21.75962 3.759494,30.61302 -4.497531,-7.10377 -8.096429,-15.45392 -5.370706,-23.63111 z"
       id="path17" /><path
       style="opacity:0.375086;fill:none;stroke:#000000;stroke-width:1"
       d="m 64.985531,117.08137 c -2.630699,5.62487 4.296566,10.92242 4.296566,15.57505 -1.821894,-7.42333 1e-6,-14.64614 1e-6,-22.01989"
       id="path18" /><path
       style="opacity:0.375086;fill:none;stroke:#000000;stroke-width:1"
       d="m 69.819167,122.98915 c 0.461968,-5.33921 2.081107,-10.53989 3.759494,-15.57505"
       id="path19" /><path
       style="opacity:0.375086;fill:none;stroke:#000000;stroke-width:1"
       d="m 71.430379,115.47016 c 8.40232,-13.24621 2.107248,-11.06305 0,0 -1.40793,7.39163 1.040916,14.63563 5.370706,20.40868"
       id="path20" /><path
       style="opacity:0.375086;fill:none;stroke:#000000;stroke-width:1"
       d="m 71.430379,124.60036 c 1.076254,5.43283 6.832317,16.52003 12.889693,14.5009"
       id="path21" /><path
       style="opacity:0.375086;fill:none;stroke:#000000;stroke-width:1"
       d="m 77.338155,135.87884 c -5.501516,2.84603 -8.652473,-17.12691 -10.741412,-15.03797 -4.330567,4.33057 9.351198,26.31645 12.352623,26.31645 0.193347,0 -1.007522,-1.54459 -1.074142,-1.61121"
       id="path22" /><path
       style="opacity:0.375086;fill:none;stroke:#000000;stroke-width:1"
       d="m 59.077756,112.24774 c 0,6.89807 4.259498,11.94716 6.444848,18.2604 1.74272,5.03453 0.328255,5.74585 3.759493,9.66726 2.411355,2.75584 4.973,5.13209 8.056058,6.98192 0.553492,0.3321 1.611211,1.71962 1.611211,1.07414 0,-2.04118 -3.390302,-2.31616 -4.833635,-3.75949 -4.792234,-4.79224 -10.483922,-13.75053 -11.815551,-20.40868 -0.450824,-2.25411 2.948654,5.0379 3.222424,6.44485 -2.511824,-5.65161 -2.148282,-3.07046 -2.148282,-7.51899 0,-2.98887 0.04363,-5.63247 0.53707,-8.59313 0.400777,-2.40466 0.231103,-6.67595 2.148283,-8.59313 1.146309,-1.14631 -0.270559,3.23457 -0.537071,4.83364 -0.354761,2.12856 1.136699,11.75299 0,12.88969 -0.427479,0.42748 -1.074141,-6.09188 -1.074141,-6.44485 0,-3.33929 0.118185,-8.82949 1.611212,-11.81555"
       id="path23" /><path
       style="opacity:0.375086;fill:none;stroke:#000000;stroke-width:1"
       d="m 68.745025,131.58228 c -0.396409,-3.07249 -1.074139,-6.03129 -1.074139,-9.1302 0,-0.89512 0.895117,-2.68535 0,-2.68535 -1.207165,0 0.729702,2.84866 1.074139,6.98191 0.133805,1.60565 0,6.44485 0,4.83364 0,-3.58047 0,-7.16094 0,-10.74141 3.575224,0.53022 -0.70834,10.74141 0,10.74141 3.58047,0 1.132246,-7.34468 0,-10.74141"
       id="path24" /><path
       style="opacity:0.375086;fill:none;stroke:#000000;stroke-width:1"
       d="m 71.967449,126.74864 c -1.135719,-5.71838 -1.124117,-13.32681 1.611212,-18.79747 -2.573238,8.19098 -4.100056,18.99398 2.685353,25.77939 1.903341,1.90334 4.295054,2.14526 5.370706,4.29656"
       id="path25" /><path
       style="opacity:0.375086;fill:none;stroke:#000000;stroke-width:1"
       d="m 76.801085,134.8047 c -3.604191,-5.52656 -4.296566,-11.28757 -4.296566,-17.72333 6.644529,4.0771 0.924601,12.66538 4.296566,17.72333 0.103147,0.15472 6.30729,2.5478 7.518987,3.7595"
       id="path26" /><path
       style="opacity:0.375086;fill:none;stroke:#000000;stroke-width:1"
       d="m 77.875224,119.76673 c -4.740164,-8.83016 5.907776,15.60185 5.907776,11.81555 0,-1.39211 -5.701144,-10.26581 -5.907776,-11.81555 -0.352954,-2.64717 1.280404,-4.95818 1.611212,-4.29657 0.113226,0.22645 0.358048,0.35805 0.53707,0.53707 -0.716092,1.25317 -2.534581,2.36882 -2.148282,3.7595 0.607132,2.18566 8.728506,13.49445 11.815554,15.03797"
       id="path27" /><path
       style="opacity:0.375086;fill:none;stroke:#000000;stroke-width:1"
       d="m 84.320072,131.0452 c -3.68495,-4.12694 -6.444848,-8.37639 -6.444848,-13.96383 0.396563,4.04228 8.390395,20.61142 11.278483,17.72333 1.443335,-1.44333 -3.454357,-2.25483 -4.833635,-3.7595 -3.37198,-3.67852 -2.877956,-9.80245 -6.444848,-13.96383"
       id="path28" /><path
       style="opacity:0.375086;fill:none;stroke:#000000;stroke-width:1"
       d="m 83.24593,123.52622 c 3.580471,1.43219 3.580471,1.43219 0,0 z"
       id="path29" /><path
       style="opacity:0.375086;fill:none;stroke:#000000;stroke-width:1"
       d="m 84.857142,117.61844 c -2.1946,-2.47405 8.593129,13.59698 8.593129,10.20434 0,-1.29095 -2.447851,-1.11551 -3.222424,-2.14828 -2.165149,-2.88686 -2.780784,-5.03448 -5.370705,-8.05606 z"
       id="path30" /><path
       style="opacity:0.375086;fill:none;stroke:#000000;stroke-width:1"
       d="m 109.56239,121.91501 c -1.44452,-3.53317 1.02334,-5.95857 0.53707,-6.44485 -0.56613,-0.56612 1.24782,1.36673 1.07414,2.14828 -0.33181,1.49316 -3.14079,4.29657 -1.61121,4.29657 3.59263,0 1.07414,-9.22666 1.07414,-8.05606 0,0.71052 1.90559,3.09714 1.61121,3.75949 -0.68593,1.54334 -4.37426,4.29657 -2.68535,4.29657 7.87763,0 -2.07853,-15.9726 4.83363,-2.14828"
       id="path31" /><path
       style="opacity:0.375086;fill:none;stroke:#000000;stroke-width:1"
       d="m 115.47016,120.84087 c 0,-5.58896 -2.91464,-6.39897 -2.68535,-7.51899 0.89512,2.50633 1.79023,5.01266 2.68535,7.51899 z"
       id="path32" /><path
       style="opacity:0.375086;fill:none;stroke:#000000;stroke-width:1"
       d="m 117.08137,127.82278 c 2.74415,-4.11621 -1.18395,-10.65999 -3.22242,-15.03797 4.30433,5.34342 4.81996,8.64785 3.22242,15.03797 z"
       id="path33" /><path
       style="opacity:0.375086;fill:none;stroke:#000000;stroke-width:1"
       d="m 114.93309,113.32188 c 1.1834,4.03252 2.44913,8.22765 1.07414,12.35262"
       id="path34" /><path
       style="opacity:0.375086;fill:none;stroke:#000000;stroke-width:1"
       d="m 110.63653,113.85895 c 0.30136,-2.20707 8.73934,0 0,0 z"
       id="path35" /><path
       style="opacity:0.375086;fill:none;stroke:#000000;stroke-width:1"
       d="m 112.78481,114.93309 c 0.71609,0.7161 1.43219,2.86438 2.14828,2.14828 0.7161,-0.71609 -1.43219,-1.43218 -2.14828,-2.14828 z"
       id="path36" /><path
       style="opacity:0.375086;fill:none;stroke:#000000;stroke-width:1"
       d="m 113.85895,112.78481 c 1.43219,2.86438 1.43219,2.86438 0,0 z"
       id="path37" /><path
       style="opacity:0.375086;fill:none;stroke:#000000;stroke-width:1"
       d="m 114.39602,112.24774 c 2.14122,9.53464 0.26482,1.85374 0,0 z"
       id="path38" /><path
       style="opacity:0.375086;fill:none;stroke:#000000;stroke-width:1"
       d="m 114.93309,111.71067 c -3.94263,6.74704 -5.07813,8.88673 0,0 z"
       id="path39" /><path
       style="opacity:0.375086;fill:none;stroke:#000000;stroke-width:1"
       d="m 117.08137,111.1736 c -0.53319,-1.52956 -6.44484,7.46125 -6.44484,5.90777 0,-2.91429 9.05146,-4.60446 6.44484,-5.90777 -3.31933,-1.65967 -6.45982,4.81866 -6.44484,4.83363 0.57108,0.57109 2.29354,-2.97754 2.68535,-3.22242 1.15616,-0.7226 2.50633,-1.07414 3.75949,-1.61121 z"
       id="path40" /><path
       style="opacity:0.375086;fill:none;stroke:#000000;stroke-width:1"
       d="m 119.76673,107.4141 c -0.94661,1.89321 -0.94661,1.89321 0,0 z"
       id="path41" /><path
       style="opacity:0.375086;fill:none;stroke:#000000;stroke-width:1"
       d="m 123.52622,116.5443 c -0.82456,-2.47367 -1.46326,-5.00443 -2.14828,-7.51898 0.71609,2.50633 -0.35805,8.23507 2.14828,7.51898 2.50633,-0.71609 -3.314,-5.18755 -2.14828,-7.51898 3.76177,-7.52353 6.72127,12.09197 2.14828,7.51898 2.09821,-6.29462 2.99323,-3.84648 -2.14828,-7.51898 -1.68086,0.42954 3.45,-8.59313 3.22242,-8.59313 -1.3634,0 -1.10485,2.4936 -1.61121,3.75949 -0.14046,0.35114 -3.61603,6.83846 -1.61121,4.83364 1.24676,-1.24676 1.35976,-3.2566 2.14828,-4.83364 0.4529,-0.90579 2.86438,-1.43219 2.14828,-2.14828 -0.71375,-0.71375 -6.42053,7.68991 -4.29656,6.98192 2.82665,-0.94222 2.16865,-6.1865 4.83363,-7.51899 1.8694,-0.9347 2.95012,2.54543 3.7595,3.75949 1.95127,2.92691 -1.86307,-1.89642 -1.61121,-2.14828 1.16709,-1.16709 4.69868,4.49763 3.22242,3.75949 -12.36153,-10.939272 -1.99109,-1.49332 0,0"
       id="path42" /><path
       style="opacity:0.375086;fill:none;stroke:#000000;stroke-width:1"
       d="m 130.50814,111.1736 c 0,-1.87381 -2.1106,-5.47636 -4.29657,-7.51899 1.43219,2.50633 2.86438,5.01266 4.29657,7.51899 z"
       id="path43" /><path
       style="opacity:0.375086;fill:none;stroke:#000000;stroke-width:1"
       d="m 128.35985,110.09946 c 0,-0.73122 -1.33042,-4.05445 -2.14828,-5.90778 0.71609,1.96926 1.43219,3.93852 2.14828,5.90778 z"
       id="path44" /><path
       style="opacity:0.375086;fill:none;stroke:#000000;stroke-width:1"
       d="m 124.60036,114.93309 c 0.2477,0.4954 0.84017,4.83364 0.53707,4.83364 -1.52868,0 -2.49256,-14.67305 0,-13.42677 1.43219,0.7161 -1.68817,2.76286 -2.14828,4.29657 -0.25628,0.85426 2.78427,7.42007 3.22242,6.98191 0.85078,-0.85077 -0.98674,-4.68367 -1.07414,-5.90777 -0.12755,-1.78569 0,-3.58047 0,-5.37071 0,-2.53177 -0.0581,5.2545 1.07414,7.51899 1.13225,2.26449 -1.55874,-10.00395 -1.07414,-7.51899 -0.17902,2.86438 -0.35805,5.72875 -0.53707,8.59313 z"
       id="path45" /><path
       style="opacity:0.375086;fill:none;stroke:#000000;stroke-width:1"
       d="m 131.0452,119.76673 c 1.94637,-3.89273 -4.90626,-14.20654 -5.90777,-11.81556 5.60634,3.11343 5.08797,6.0769 5.90777,11.81556 z"
       id="path46" /><path
       style="opacity:0.375086;fill:none;stroke:#000000;stroke-width:1"
       d="m 135.34177,122.98915 c 0,-7.02936 -5.88078,-17.98117 -8.59313,-16.64919 5.22846,-3.02758 8.93377,16.56403 8.59313,16.64919 -1.10667,0.27667 -7.71697,-15.42256 -8.59313,-16.64919 1.52963,6.02547 3.22243,12.02819 3.22243,18.2604"
       id="path47" /><path
       style="opacity:0.375086;fill:none;stroke:#000000;stroke-width:1"
       d="m 123.52622,104.72875 c 0.35805,1.07414 0.67658,2.16227 1.07414,3.22242 2.45213,6.53901 0.44224,-3.47515 -1.07414,-3.22242 -0.70592,0.11765 -4.45443,10.39368 0,0 z"
       id="path48" /><path
       style="opacity:0.375086;fill:none;stroke:#000000;stroke-width:1"
       d="m 125.6745,102.0434 c 0,-3.553277 -2.20851,3.91905 -3.22242,4.29656 1.07414,-1.43219 2.14828,-2.86437 3.22242,-4.29656 z"
       id="path49" /><path
       style="opacity:0.375086;fill:none;stroke:#000000;stroke-width:1"
       d="m 124.06329,107.4141 c 2.14828,-3.58047 2.14828,-3.58047 0,0 z"
       id="path50" /><path
       style="opacity:0.375086;fill:none;stroke:#000000;stroke-width:1"
       d="m 124.60036,107.95117 c 0.53707,-0.71609 2.32731,-1.61121 1.61121,-2.14828 -0.71609,-0.53707 -1.07414,1.43219 -1.61121,2.14828 z"
       id="path51" /><path
       style="opacity:0.375086;fill:none;stroke:#000000;stroke-width:1"
       d="m 126.21157,104.19168 c -1.1144,2.22881 -0.31502,0.74106 -2.68535,4.29657 0.89512,-1.43219 1.79023,-2.86438 2.68535,-4.29657 z"
       id="path52" /><path
       style="opacity:0.375086;fill:none;stroke:#000000;stroke-width:1"
       d="m 123.52622,106.87703 c 0.59706,-2.35379 2.37773,-4.2705 3.22242,-4.83363 2.94185,1.66991 5.55394,4.12596 6.98192,6.98192"
       id="path53" /><path
       style="opacity:0.375086;fill:none;stroke:#000000;stroke-width:1"
       d="m 129.97107,108.48825 c -1.12105,-2.24209 -2.19845,-4.35083 -4.29657,-5.90778 1.43219,1.96926 2.86438,3.93852 4.29657,5.90778 z"
       id="path54" /><path
       style="opacity:0.375086;fill:none;stroke:#000000;stroke-width:1"
       d="m 126.21157,101.50633 c 3.54697,6.03879 8.05606,13.13071 8.05606,20.40868"
       id="path55" /><path
       style="opacity:0.375086;fill:none;stroke:#000000;stroke-width:1"
       d="m 127.82278,106.87703 c 1.61711,1.44958 1.69528,2.48454 2.14829,4.29657"
       id="path56" /><path
       style="opacity:0.375086;fill:none;stroke:#000000;stroke-width:1"
       d="m 112.24774,97.746835 c 0.11104,-0.126045 7.32281,-5.029814 7.51899,-4.833636 2.10685,2.106856 -10.49854,4.833636 -7.51899,4.833636 3.54617,0 6.44484,-4.346239 6.44484,-3.759494 0,2.338964 -6.53141,4.105749 -6.44484,3.759494 1.20468,-4.818716 10.54332,-4.518568 0,0 z"
       id="path57" /><path
       style="opacity:0.375086;fill:none;stroke:#000000;stroke-width:1"
       d="m 112.78481,99.895116 c -0.75869,1.614184 -2.0897,3.761454 -2.68535,4.833634"
       id="path58" /><path
       style="opacity:0.375086;fill:none;stroke:#000000;stroke-width:1"
       d="m 108.48825,120.3038 c 1.43219,-1.61121 2.68535,-6.26583 4.29656,-4.83364 1.61121,1.43219 -2.68535,6.26583 -4.29656,4.83364 -1.61121,-1.43219 2.68535,-6.26583 4.29656,-4.83364 1.61121,1.43219 -2.68535,6.26583 -4.29656,4.83364 -1.61121,-1.43219 2.68535,-6.26583 4.29656,-4.83364 1.61121,1.43219 -2.86437,3.22243 -4.29656,4.83364 0.1564,-3.11855 7.41107,-6.39089 4.29656,-4.83364 -5.72875,6.44485 -5.72875,6.44485 0,0 -0.65738,2.16063 8.05606,-7.17443 8.05606,-6.98191 0,0.76718 -3.99855,4.14755 -3.22243,3.75949 0.81248,-0.40624 7.46103,-7.99809 4.83364,-5.37071 -9.99216,5.89626 5.56239,-5.3707 3.75949,-5.3707 -0.82527,0 -2.51121,6.61898 -3.75949,5.3707 -1.58615,-1.58615 5.46558,-5.90777 3.22242,-5.90777 -2.24315,0 -3.22242,8.15093 -3.22242,5.90777 0,-3.123 3.89764,-5.76963 3.75949,-5.90777 -0.32096,-0.32097 -1.06594,1.59645 -1.07414,1.61121 -0.8202,1.47637 -4.11754,3.40144 -2.68535,4.29656 2.18946,1.36841 2.47088,-4.61915 4.29656,-6.44484 -1.27397,2.07512 -2.57477,4.18598 -4.29656,5.90777"
       id="path69" /><path
       style="opacity:0.375086;fill:none;stroke:#000000;stroke-width:1"
       d="m 121.37794,106.87703 c -0.60432,1.20864 5.00122,-5.48505 5.3707,-5.90777 -1.79023,1.96926 -3.58047,3.93851 -5.3707,5.90777 z"
       id="path70" /><path
       style="opacity:0.375086;fill:none;stroke:#000000;stroke-width:1"
       d="m 126.74864,101.50633 c 0.56306,0.75789 -7.50877,6.43463 -13.42676,12.35262 0.36125,2.17447 -6.45866,6.72029 -3.75949,5.37071"
       id="path71" /><path
       style="opacity:0.375086;fill:none;stroke:#000000;stroke-width:1"
       d="m 108.48825,119.22965 c 10.9741,-12.34587 -2.98059,3.83843 4.29656,-4.83363 -1.43219,1.61121 -2.86437,3.22242 -4.29656,4.83363 z"
       id="path72" /><path
       style="opacity:0.375086;fill:none;stroke:#000000;stroke-width:1"
       d="m 106.87703,120.3038 c 13.89128,-13.89128 -3.42251,2.7097 4.29657,-4.29657 -1.43219,1.43219 -2.86438,2.86438 -4.29657,4.29657 z"
       id="path73" /><path
       style="opacity:0.375086;fill:none;stroke:#000000;stroke-width:1"
       d="m 106.87703,120.3038 c 2.18442,-1.94171 5.61756,-5.1803 4.83364,-4.29657 -1.61121,1.43219 -3.22243,2.86438 -4.83364,4.29657 z"
       id="path74" /><path
       style="opacity:0.375086;fill:none;stroke:#000000;stroke-width:1"
       d="m 122.45208,107.95117 c -0.7161,0.53708 -2.68535,0.89512 -2.14828,1.61122 0.16862,0.22482 6.98191,-6.3072 6.98191,-6.98192 0,-2.40851 -3.13055,7.07378 -4.83363,5.3707 -1.19424,-1.19423 1.79023,-2.86437 2.68535,-4.29656"
       id="path75" /><path
       style="opacity:0.375086;fill:none;stroke:#000000;stroke-width:1"
       d="m 100.43219,111.71067 c -1.402282,1.48325 5.20282,-6.27697 3.75949,-4.83364 -1.44333,1.44334 -4.672338,6.65933 -3.75949,4.83364 0.59681,-1.19362 6.98191,-7.07909 6.98191,-7.51899 0,-0.33226 -7.915393,7.83015 -6.98191,7.51899 0.80522,-0.26841 12.59179,-12.054721 5.90777,-5.37071 -1.9746,1.97461 -3.7158,3.17873 -5.90777,5.37071 z"
       id="path76" /><path
       style="opacity:0.375086;fill:none;stroke:#000000;stroke-width:1"
       d="m 99.895116,112.78481 c 2.148284,-2.14828 3.423394,-6.12694 6.444844,-6.44485 -2.14828,2.14828 -8.593127,4.29657 -6.444844,6.44485 2.148284,2.14828 4.352334,-4.24221 6.444844,-6.44485 12.92322,-13.603392 -9.601998,9.06492 3.7595,-4.29656 0.98398,-0.98398 7.83119,-8.905337 3.75949,-4.833635 3.25712,5.568735 -3.22242,3.663635 -3.22242,4.833635 0,1.93643 1.79497,-3.525138 3.22242,-4.833635 1.24498,-1.141235 5.98547,-2.685353 4.29657,-2.685353 -4.33198,0 -8.16211,9.342288 -7.51899,8.056058 0.93367,-1.86734 2.1866,-3.558026 3.22242,-5.370705"
       id="path77" /><path
       style="opacity:0.375086;fill:none;stroke:#000000;stroke-width:1"
       d="m 103.65461,107.4141 c -0.54449,-3.81141 -3.664485,-7.536842 0,0 -2.50351,-5.00701 0.57186,1.03936 4.29657,-2.68535 1.16709,-1.16714 -4.83364,0.57638 -4.83364,-1.07414 0,-0.17902 0.35805,0 0.53707,0 1.43219,0.35805 2.86438,0.71609 4.29657,1.07414 0.56989,-0.56989 9.64773,-10.830509 10.20433,-10.204339 1.43219,1.61121 -3.40144,5.907769 -4.83363,4.296563 -1.43219,-1.61121 3.22242,-2.864375 4.83363,-4.296563 -2.65013,1.135292 -8.58622,11.801729 -4.83363,4.296563 1.43816,-11.339392 0.50151,-1.038573 3.75949,-4.296562 0.1083,-0.108293 -2.26731,-1.611211 -2.68535,-1.611211 -1.72929,0 3.12183,0.97355 2.14828,0 -0.35882,-0.358824 -3.22242,-2.176748 -3.22242,-2.148282 0,1.540018 2.21948,2.685352 3.75949,2.685352 2.15573,0 -6.98936,-4.296564 -4.83363,-4.296564 0.25403,0 5.90778,3.738409 5.90778,2.685353 0,-1.265888 -2.49361,-0.537071 -3.7595,-0.537071 7.26371,3.184977 4.59258,1.96825 0,0"
       id="path78" /><path
       style="opacity:0.375086;fill:none;stroke:#000000;stroke-width:1"
       d="m 116.00723,95.598553 c -0.71609,0.53707 -2.68535,0.895117 -2.14828,1.611212 0.53707,0.716092 1.43219,-1.074142 2.14828,-1.611212 z"
       id="path79" /><path
       style="opacity:0.375086;fill:none;stroke:#000000;stroke-width:1"
       d="m 109.02532,103.11754 c 2.95043,-2.95043 5.80656,-5.962203 8.59312,-9.130199 -5.25995,6.011385 -2.41383,2.950908 -8.59312,9.130199 z"
       id="path80" /><path
       style="opacity:0.375086;fill:none;stroke:#000000;stroke-width:1"
       d="m 105.26582,106.33996 c -0.71609,0.7161 -2.86437,1.43219 -2.14828,2.14829 0.71609,0.71609 1.43219,-1.43219 2.14828,-2.14829 z"
       id="path81" /><path
       style="opacity:0.0812684;fill:none;stroke:#000000;stroke-width:1"
       d="m 109.02532,103.11754 c -2.38143,1.72635 -4.38035,3.84327 -6.44485,5.90778"
       id="path82" /><path
       style="opacity:0.0812684;fill:none;stroke:#000000;stroke-width:1"
       d="m 81.097648,118.15551 c -0.432945,9.71051 7.864028,14.66016 14.500905,17.72333 -12.553633,-14.34701 -8.111623,-8.1394 -14.500905,-17.72333 z"
       id="path83" /><path
       style="opacity:0.0812684;fill:none;stroke:#000000;stroke-width:1"
       d="m 83.783,116.00723 c -0.359016,8.06869 3.863011,16.51053 12.352623,17.72333"
       id="path84" /><path
       style="opacity:0.0812684;fill:none;stroke:#000000;stroke-width:1"
       d="m 89.153705,128.35985 c -4.110778,-4.00481 -5.93734,-7.37116 -4.833633,-12.88969 0.119434,8.25532 4.392223,20.17472 13.963834,18.2604"
       id="path85" /><path
       style="opacity:0.0812684;fill:none;stroke:#000000;stroke-width:1"
       d="M 93.450271,131.0452 C 82.725198,130.3545 84.373674,118.372 84.857142,110.63653"
       id="path86" /><path
       style="opacity:0.0812684;fill:none;stroke:#000000;stroke-width:1"
       d="m 89.153705,110.09946 c -7.844512,8.22935 -1.420709,18.96297 6.981918,23.6311"
       id="path87" /><path
       style="opacity:0.0812684;fill:none;stroke:#000000;stroke-width:1"
       d="m 96.672692,132.65642 c -10.425834,-6.77705 -12.098123,-13.85093 -5.907775,-24.16817 -5.310137,10.50215 -5.532589,18.968 5.907775,24.16817 z"
       id="path88" /><path
       style="opacity:0.0812684;fill:none;stroke:#000000;stroke-width:1"
       d="m 98.820974,135.34177 c -11.622362,-2.70574 -16.73466,-10.03339 -11.278481,-20.94575 -6.439525,7.87539 -4.461679,14.33579 1.611214,20.40868 -8.84002,-9.5663 -9.241708,-15.8891 -3.759494,-26.85352 -0.374518,7.1672 -4.026541,18.12687 4.833635,22.55696"
       id="path89" /><path
       style="opacity:0.0812684;fill:none;stroke:#000000;stroke-width:1"
       d="m 99.895118,135.87884 c -2.870755,0.57415 -10.686597,-0.15338 -11.278481,-4.29656 -0.254441,-1.78108 1.398602,-3.79123 0.537068,-5.37071 -0.606172,-1.11132 -2.925899,0.41561 -3.759492,-0.53707 -2.758785,-3.15289 1.872242,-12.78924 3.222424,-15.57504 -5.977821,9.96303 -1.775742,15.53932 8.056057,22.55696 -9.338174,-5.3361 -11.453876,-13.16664 -7.518989,-23.09403 -2.072444,5.52652 -3.940865,11.41954 0,16.64918 -0.173665,8.36835 7.199319,5.49858 12.889695,3.22243"
       id="path90" /><path
       style="opacity:0.0812684;fill:none;stroke:#000000;stroke-width:1"
       d="m 103.11754,132.65642 c -3.07315,4.60973 8.90015,-9.37366 7.51899,-12.35262 3.09125,4.74795 -5.86738,12.82909 -2.68535,8.05606"
       id="path91" /><path
       style="opacity:0.0812684;fill:none;stroke:#000000;stroke-width:1"
       d="m 111.71067,120.3038 c 0.31565,2.79323 -2.39912,14.39468 0,0 z"
       id="path92" /><path
       style="opacity:0.0812684;fill:none;stroke:#000000;stroke-width:1"
       d="m 111.71067,124.60036 c -1.46735,5.86938 4.51491,-3.95622 1.07414,-5.90778 -0.35805,1.96926 -3.0434,5.54973 -1.07414,5.90778 1.96926,0.35805 3.0434,-5.54973 1.07414,-5.90778 -1.96926,-0.35805 -3.0434,5.54973 -1.07414,5.90778 4.76899,0.86709 -3.55034,-16.44477 4.83363,-1.07414 0.79036,1.44898 -4.03207,-0.36867 -4.83363,1.07414 -0.8248,1.48464 1.3074,3.16266 1.61121,4.83364 0.10127,0.55699 -0.53707,2.17733 -0.53707,1.61121 0,-4.20864 2.03924,2.89529 -1.07414,-6.44485 1.43219,-0.71609 4.01013,-0.57287 4.29656,-2.14828 0.29526,-1.62389 -1.74615,-4.49763 -3.22242,-3.7595 -1.79024,0.89512 -0.71609,3.93852 -1.07414,5.90778 z"
       id="path93" /><path
       style="opacity:0.0812684;fill:none;stroke:#000000;stroke-width:1"
       d="m 106.33996,128.35985 c 2.54777,-3.39702 7.04068,-7.72302 5.37071,-12.35262 3.25283,4.78469 2.68535,4.76852 2.68535,10.20434"
       id="path94" /><path
       style="opacity:0.0812684;fill:none;stroke:#000000;stroke-width:1"
       d="m 128.35985,112.78481 c -1.14545,0.44669 0.68735,13.1151 -2.68535,8.05606"
       id="path95" /><path
       style="opacity:0.0812684;fill:none;stroke:#000000;stroke-width:1"
       d="m 122.98915,109.02532 c 4.77169,-2.69077 4.40766,26.92759 -0.53707,23.6311 -1.45875,-0.9725 2.55634,-10.03932 3.22242,-11.81555 0.68692,-1.83179 1.9442,-6.31594 1.07414,-8.05606 -0.79257,-1.58514 -4.10706,-2.02167 -3.75949,-3.75949 0.3148,-1.57402 4.78691,0.98069 5.3707,2.14828 2.32688,4.65375 1.45768,14.46267 -1.07414,18.2604"
       id="path96" /><path
       style="opacity:0.0812684;fill:none;stroke:#000000;stroke-width:1"
       d="m 131.58228,131.0452 c 3.16923,-6.33847 -0.21338,-16.23103 -4.83364,-20.94574 7.60735,4.65499 5.33726,13.39135 4.83364,20.94574 z"
       id="path97" /><path
       style="opacity:0.0812684;fill:none;stroke:#000000;stroke-width:1"
       d="m 128.89692,107.4141 c 4.881,8.71247 1.87279,18.17804 -0.53707,26.85353"
       id="path98" /><path
       style="opacity:0.0812684;fill:none;stroke:#000000;stroke-width:1"
       d="m 128.89692,121.91501 c 0,-6.35934 0.48833,-7.56032 -3.75949,-13.96384 4.06969,3.07335 6.27589,20.57764 3.7595,23.09404"
       id="path99" /><path
       style="opacity:0.0812684;fill:none;stroke:#000000;stroke-width:1"
       d="m 127.82278,136.41591 c 5.85814,5.85814 3.93832,-36.28847 0,-24.70524 6.12818,4.88573 3.50013,27.52028 -3.75949,31.15009"
       id="path100" /><path
       style="opacity:0.0812684;fill:none;stroke:#000000;stroke-width:1"
       d="m 122.45208,133.73056 c 3.968,-7.93601 3.39288,-18.81605 2.68535,-27.3906 3.92804,5.5206 4.78474,15.67284 1.61121,22.0199 -1.02529,2.05058 -3.31512,3.29877 -4.29656,5.3707 -0.69398,1.46507 -0.0712,3.28088 -0.53707,4.83364 -0.16267,0.54224 -1.35804,-0.0307 -1.61121,-0.53708"
       id="path101" /><path
       style="opacity:0.0812684;fill:none;stroke:#000000;stroke-width:1"
       d="m 127.28571,126.74864 c 1.05218,-8.4174 1.69503,-9.79773 -1.61121,-19.33454 8.28976,14.50709 2.15292,-0.16684 1.61121,19.33454 -0.26251,9.45035 4.32469,6.79352 0.53707,8.05606"
       id="path102" /><path
       style="opacity:0.0812684;fill:none;stroke:#000000;stroke-width:1"
       d="m 127.82278,116.5443 c 9.07174,-13.91675 4.19166,17.2562 -3.75949,22.55696"
       id="path103" /><path
       style="opacity:0.0812684;fill:none;stroke:#000000;stroke-width:1"
       d="m 72.504519,126.74864 c 0.179025,1.79024 -0.348221,3.80442 0.537072,5.37071 4.985409,8.82034 19.541109,14.81764 11.815551,9.66727 -7.354179,-4.90279 -9.896644,-6.03273 -12.352623,-15.03798 z"
       id="path104" /><path
       style="opacity:0.0812684;fill:none;stroke:#000000;stroke-width:1"
       d="m 70.893309,123.52622 c 0.541036,5.52008 2.245104,10.31499 5.907776,14.5009 3.518678,4.02135 7.168703,7.11201 12.35262,8.59313 1.377085,0.39345 5.577552,0.64049 4.296566,0 -9.569852,-4.78492 -19.45673,-6.68923 -24.705246,-17.18625"
       id="path105" /><path
       style="opacity:0.0812684;fill:none;stroke:#000000;stroke-width:1"
       d="m 91.839059,147.69439 c -12.515199,0 -21.479443,-15.1151 -24.705243,-25.24231 -0.82605,14.90688 10.318218,25.24232 24.705243,25.24231 z"
       id="path106" /><path
       style="opacity:0.0812684;fill:none;stroke:#000000;stroke-width:1"
       d="m 70.356237,129.97107 c 2.725616,1.3628 1.48213,0.63003 3.759494,2.14828"
       id="path107" /><path
       style="opacity:0.0812684;fill:none;stroke:#000000;stroke-width:1"
       d="m 72.504519,96.672692 c -4.659733,7.766228 -8.138734,18.249978 -3.222422,26.853528 0.320247,0.56043 0.428662,1.61121 1.07414,1.61121 1.529577,0 3.509603,-2.92281 4.296566,-1.61121 0.907145,1.51191 -3.91146,4.83363 -2.148284,4.83363 1.763178,0 2.767375,-3.18272 2.148284,-4.83363 -0.440015,-1.17338 -2.586119,0.44002 -3.759494,0 -2.210609,-0.82898 -1.414875,-10.28226 -1.074142,-11.81555 1.284036,-5.77816 6.150814,-12.889696 5.370706,-12.889696 -1.965807,0 -8.79657,23.385406 -0.53707,24.705246 -6.477478,-8.24723 0.668982,-18.99691 7.518987,-24.705244"
       id="path108" /><path
       style="opacity:0.0812684;fill:none;stroke:#000000;stroke-width:1"
       d="m 81.097648,98.820974 c -6.77015,7.447166 -11.34378,14.868936 -10.204339,25.779386 -4.222435,-6.49623 -0.617682,-18.74373 5.907776,-23.09403"
       id="path109" /><path
       style="opacity:0.0812684;fill:none;stroke:#000000;stroke-width:1"
       d="m 82.17179,95.061481 c -7.616073,6.769839 -16.460295,17.649969 -13.426765,28.464739 2.467369,-5.58807 4.82724,-19.33134 11.278483,-22.55696"
       id="path110" /><path
       style="opacity:0.0812684;fill:none;stroke:#000000;stroke-width:1"
       d="M 76.264012,97.746835 C 69.455963,102.85287 64.0902,116.362 68.745025,124.06329 c -9.310831,-3.4923 -2.287065,-17.23454 2.148284,-22.55696 1.398969,-1.678764 4.074409,-2.000239 5.370703,-3.759495 2.067732,-2.806207 0.69252,-8.056057 5.370708,-8.056057"
       id="path111" /><path
       style="opacity:0.0812684;fill:none;stroke:#000000;stroke-width:1"
       d="M 63.911392,120.84087 C 62.292163,108.16351 72.211143,94.224611 84.320072,90.764917"
       id="path112" /><path
       style="opacity:0.0812684;fill:none;stroke:#000000;stroke-width:1"
       d="m 75.726943,97.209765 c -2.864377,5.907775 -6.560524,11.480335 -8.593127,17.723325 -0.847813,2.60399 3.547647,6.11962 1.611209,8.05606 -3.995777,3.99578 3.532661,-20.87404 4.296566,-22.01989"
       id="path113" /><path
       style="opacity:0.0812684;fill:none;stroke:#000000;stroke-width:1"
       d="m 70.356237,100.96926 c -1.965381,6.28922 -6.652109,15.7748 -1.07414,21.48282 -1.790235,-1.43219 -5.14987,-2.01461 -5.370705,-4.29656 -0.744162,-7.68969 7.347725,-20.68304 13.426764,-25.242319"
       id="path114" /><path
       style="opacity:0.0812684;fill:none;stroke:#000000;stroke-width:1"
       d="m 64.448462,124.06329 c 2.745475,-9.1599 9.446521,-16.48116 15.575044,-23.6311"
       id="path115" /><path
       style="opacity:0.0812684;fill:none;stroke:#000000;stroke-width:1"
       d="m 101.50633,106.33996 c 1.02673,-4.10694 1.02673,-4.10694 0,0 z"
       id="path116" /><path
       style="opacity:0.0812684;fill:none;stroke:#000000;stroke-width:1"
       d="m 103.11754,106.87703 c -3.619688,-2.41312 -3.489182,-4.16318 -6.444846,-2.68535 -2.136313,1.06816 9.370386,-1.61121 6.981916,-1.61121 -1.9942,0 -5.812569,2.24349 -7.518986,0.53707 -1.721793,-1.72179 9.416896,-2.14828 6.981916,-2.14828 -2.94998,0 -7.962414,1.22287 -4.296564,3.22242 11.553404,6.30185 -8.654808,4.56989 4.296564,2.68535 -1.43219,0.53707 -2.86438,1.07414 -4.296566,1.61122 -0.179022,0 -0.358045,0 -0.53707,0 1.611212,-0.53707 3.222426,-1.07415 4.833636,-1.61122 z"
       id="path117" /><path
       style="opacity:0.0812684;fill:none;stroke:#000000;stroke-width:1"
       d="m 100.43219,105.80289 c 1.46492,1.03766 9.75945,4.87973 0,0 z"
       id="path118" /><path
       style="opacity:0.0812684;fill:none;stroke:#000000;stroke-width:1"
       d="m 103.11754,107.95117 c -2.56945,-1.00463 -8.814363,-1.10179 0,0 z"
       id="path119" /><path
       style="opacity:0.0812684;fill:none;stroke:#000000;stroke-width:1"
       d="m 97.746835,104.19168 c 14.492505,0 -7.416811,-1.01664 5.370705,0 -7.16094,0 -7.16094,0 0,0 -1.79023,0 -3.58047,0 -5.370705,0 z"
       id="path120" /><path
       style="opacity:0.0812684;fill:none;stroke:#000000;stroke-width:1"
       d="m 98.283904,101.50633 c 2.045106,0.6817 4.425066,1.29049 6.444846,0.53707 -2.14828,-0.17902 -4.29656,-0.35805 -6.444846,-0.53707 z"
       id="path121" /><path
       style="opacity:0.0812684;fill:none;stroke:#000000;stroke-width:1"
       d="m 111.1736,91.839059 c 10.76151,9.803231 -14.55438,-14.554379 0,0 z"
       id="path122" /><path
       style="opacity:0.0812684;fill:none;stroke:#000000;stroke-width:1"
       d="m 114.93309,91.301987 c -2.83833,-1.009121 -11.12274,-5.752031 -5.90777,-0.53707"
       id="path123" /><path
       style="opacity:0.0812684;fill:none;stroke:#000000;stroke-width:1"
       d="m 114.93309,95.061481 c -11.81717,-2.78174 0,-1.150679 0,0 0,1.650515 -4.83363,-2.724656 -4.83363,-1.07414 0,1.650516 3.1997,0.840721 4.83363,1.07414 z"
       id="path124" /><path
       style="opacity:0.0812684;fill:none;stroke:#000000;stroke-width:1"
       d="m 114.39602,96.135623 c -4.29656,-1.432187 -4.29656,-1.432187 0,0 z"
       id="path125" /><path
       style="opacity:0.0812684;fill:none;stroke:#000000;stroke-width:1"
       d="m 103.65461,89.690778 c -6.286471,-3.143237 8.15298,1.756965 8.59313,2.148281 -4.41,-0.763401 -8.69907,-2.188008 -12.889693,-3.759493"
       id="path126" /><path
       style="opacity:0.0812684;fill:none;stroke:#000000;stroke-width:1"
       d="m 111.1736,90.764917 c 5.27976,9.350013 0.28998,0.158173 0,0 -2.04313,-1.114435 -4.65461,0 -6.98192,0"
       id="path127" /><path
       style="opacity:0.0812684;fill:none;stroke:#000000;stroke-width:1"
       d="m 108.48825,94.524411 c 4.29656,2.864376 4.29656,2.864376 0,0 z"
       id="path128" /><path
       style="opacity:0.0812684;fill:none;stroke:#000000;stroke-width:1"
       d="m 111.71067,96.672692 c -1.8884,-2.504826 -4.81474,-3.740602 -6.98192,-5.907775"
       id="path129" /><path
       style="opacity:0.0812684;fill:none;stroke:#000000;stroke-width:1"
       d="m 98.283904,87.542493 c 4.271006,-0.610142 9.474266,-0.628065 12.889696,3.222424 13.33174,6.813307 1.50563,0.94102 -4.29657,-2.685351"
       id="path130" /><path
       style="opacity:0.0812684;fill:none;stroke:#000000;stroke-width:1"
       d="M 114.93309,95.061481 C 109.4243,91.202287 104.40341,88.858705 97.746835,89.690778"
       id="path131" /><path
       style="opacity:0.0812684;fill:none;stroke:#000000;stroke-width:1"
       d="m 124.60036,125.6745 c 0,1.08896 -0.88143,4.2555 -0.53707,3.22242 2.09636,-6.28907 1.61121,0.30983 1.61121,-12.35262 0,-1.62113 -0.0603,-3.28419 -0.53707,-4.83363 -0.26324,-0.85554 -2.3273,-1.61121 -1.61121,-2.14828 0.71609,-0.53707 1.07414,1.43218 1.61121,2.14828 4.2727,11.50598 6.67374,10.87349 -0.53707,13.96383 z"
       id="path132" /><path
       style="opacity:0.0812684;fill:none;stroke:#000000;stroke-width:1"
       d="m 130.50814,123.52622 c 1.30309,-5.86394 1.46794,-11.93068 -2.68536,-17.18626 5.33759,12.00958 5.03544,6.21919 2.68536,17.18626 z"
       id="path133" /><path
       style="opacity:0.0812684;fill:none;stroke:#000000;stroke-width:1"
       d="m 133.19349,120.3038 c 0,-1.79489 -0.52923,-10.4472 -4.83364,-13.42677 3.42071,5.21197 7.31682,15.07271 3.7595,20.40868"
       id="path134" /><path
       style="opacity:0.0812684;fill:none;stroke:#000000;stroke-width:1"
       d="m 129.434,104.72875 c 5.74316,10.59082 4.23188,22.78334 1.07414,33.83544"
       id="path135" /><path
       style="opacity:0.0812684;fill:none;stroke:#000000;stroke-width:1"
       d="m 132.65642,122.45208 c -1.84669,7.86226 -5.71788,14.2688 -10.74141,20.40868"
       id="path136" /><path
       style="opacity:0.0812684;fill:none;stroke:#000000;stroke-width:1"
       d="m 87.005423,143.39783 c 10.528708,3.50957 -18.118272,-6.91876 -13.426762,-13.96383 -2.543812,10.93877 3.971006,13.96383 13.426762,13.96383 z"
       id="path137" /><path
       style="opacity:0.0812684;fill:none;stroke:#000000;stroke-width:1"
       d="m 69.819167,128.89692 c 2.976142,11.79709 14.503249,16.31923 25.242314,18.79747"
       id="path138" /><path
       style="opacity:0.0812684;fill:none;stroke:#000000;stroke-width:1"
       d="m 70.356237,133.19349 c 0.260612,6.60627 3.684953,9.57034 8.593129,13.42676 5.514904,4.33314 11.769416,5.12735 18.260399,6.98192 0.544338,0.15552 -1.104858,-0.2839 -1.611212,-0.53707 -4.176705,-2.08835 -0.137091,-0.16225 -6.444848,-2.68535 -7.808531,-3.12342 -15.78756,-6.54918 -20.94575,-13.42677"
       id="path139" /><path
       style="opacity:0.0812684;fill:none;stroke:#000000;stroke-width:1"
       d="m 66.059674,130.50814 c 4.845875,9.25867 19.133346,25.56114 31.150091,22.55696"
       id="path140" /><path
       style="opacity:0.0812684;fill:none;stroke:#000000;stroke-width:1"
       d="m 66.596743,136.41591 c 2.864377,3.22242 5.165731,7.05163 8.59313,9.66727 7.544652,5.75776 18.260398,7.7891 18.260398,6.98192 0,-0.9002 -10.495687,-3.65199 -10.741411,-3.7595 -6.987365,-3.05697 -11.242037,-7.20793 -16.112117,-12.88969 z"
       id="path141" /><path
       style="opacity:0.0812684;fill:none;stroke:#000000;stroke-width:1"
       d="m 64.985531,126.74864 c 5.077069,13.13413 18.608032,19.30297 31.687161,21.48282"
       id="path142" /><path
       style="opacity:0.0812684;fill:none;stroke:#000000;stroke-width:1"
       d="m 77.875224,138.56419 c -10.746255,3.66896 23.049716,6.44485 25.779386,6.44485"
       id="path143" /><path
       style="opacity:0.0812684;fill:none;stroke:#000000;stroke-width:1"
       d="m 93.450271,144.47197 c -11.988265,2.39816 -19.629262,-7.03429 -24.168174,-16.11212 -0.660206,-1.32041 0.300435,3.03929 1.07414,4.29657 1.324692,2.15262 5.203931,6.04577 7.518987,7.51898 3.36427,2.1409 7.954045,3.05741 11.815554,3.7595 1.245467,0.22645 4.891735,-0.0291 3.759493,0.53707 -2.83361,1.4168 -6.61307,-0.49249 -9.130199,-1.61121 -13.666494,-6.074 -11.966398,-7.82068 -18.260398,-20.40868 -0.113224,-0.22645 0.457009,0.29688 0.537069,0.53707 0.745591,2.23677 0.05234,3.89033 1.074143,6.44485 1.125577,2.81394 14.28452,21.6992 17.723326,18.26039 1.062995,-1.06299 -6.891124,-4.41506 -7.518988,-4.83363 -4.463806,-2.97587 -8.357505,-7.11357 -9.667269,-12.35262"
       id="path144" /><path
       style="opacity:0.0812684;fill:none;stroke:#000000;stroke-width:1"
       d="m 67.133816,122.98915 c 0,4.07684 -0.300085,3.76986 3.222421,9.1302 2.733461,4.15961 5.549474,8.3583 9.130199,11.81555 1.999356,1.93041 9.150837,4.70276 8.056057,2.14828 -1.815502,-4.23617 -9.554122,-5.79463 -12.88969,-9.1302 -3.889258,-3.88926 -5.40753,-9.0371 -7.518987,-13.96383 z"
       id="path145" /><path
       style="opacity:0.0812684;fill:none;stroke:#000000;stroke-width:1"
       d="m 68.745025,127.28571 c -0.360611,9.07019 24.46248,19.88879 17.186259,15.03798"
       id="path146" /><path
       style="opacity:0.0812684;fill:none;stroke:#000000;stroke-width:1"
       d="m 104.72875,143.9349 c -11.088341,-3.69611 -21.783735,0.75524 -30.075947,-10.74141 -1.074142,-0.89512 -2.327307,-3.75949 -3.222424,-2.68535 -1.627052,1.95246 24.360597,16.64918 29.001811,16.64918 4.64177,-4.55913 10.91285,-4.87937 16.11211,-8.59312"
       id="path147" /><path
       style="opacity:0.0812684;fill:none;stroke:#000000;stroke-width:1"
       d="m 127.82278,129.434 c 1.58005,-6.32018 0.5678,-1.41079 0,-15.03798 1.2848,6.42399 1.07415,3.54502 1.07415,8.59313"
       id="path148" /><path
       style="opacity:0.0812684;fill:none;stroke:#000000;stroke-width:1"
       d="m 83.783,127.82278 c 1.42671,5.00854 6.962788,7.50943 11.278481,9.66727 2.75487,1.37744 -5.172187,-3.37592 -7.518988,-5.3707 -4.489053,-3.8157 -6.981915,-8.74757 -6.981915,-14.50091 1.074141,3.40145 0.79179,7.59366 3.222422,10.20434 3.110146,3.34053 7.788401,5.90778 12.352624,5.90778 2.243158,0 -3.946903,-2.13305 -5.907776,-3.22242 -9.886054,-5.49225 -4.457735,-2.47062 -9.66727,-12.8897 4.173931,1.57242 1.847951,8.82987 3.222422,10.20434 1.290958,1.29096 3.651379,0.4601 5.370707,1.07415 1.047651,0.37416 6.045611,4.6958 7.518987,3.22242 1.363403,-1.3634 -3.558649,-1.48935 -5.370705,-2.14828 -6.920098,-2.5164 -11.957798,-3.8379 -10.741411,-12.35263 4.545385,3.37187 8.651713,7.8881 12.889693,11.27849"
       id="path149" /><path
       style="opacity:0.0812684;fill:none;stroke:#000000;stroke-width:1"
       d="m 84.857142,118.69258 c -0.0016,-3.55553 -0.03577,-8.02028 2.685351,-10.74141 0.964073,-0.96407 -1.001479,2.54003 -1.611209,3.7595 -1.395137,2.79027 0.730896,15.91829 2.148282,14.5009 0.738132,-0.73813 -1.254475,-1.70432 -1.611212,-2.68535 -1.43823,-3.95513 -2.727735,-7.99672 0,-11.81555 1.52958,-2.14142 4.212013,-3.18015 6.444845,-4.29657 0.660207,-0.3301 2.148282,0.20107 2.148282,-0.53707 0,-0.30574 -3.133411,2.05927 -3.222422,2.14829 -1.501087,1.50108 -6.981917,8.38367 -6.981917,9.66726 0,3.48728 7.518987,9.13994 7.518987,12.35262 0,2.34718 -6.123519,-3.97981 -7.518987,-12.35262 z"
       id="path150" /><path
       style="opacity:0.0812684;fill:none;stroke:#000000;stroke-width:1"
       d="m 83.24593,119.22965 c -5.925809,17.76497 14.852933,13.7788 15.575044,14.50091 0.03364,0.0336 -4.566478,0.49811 -6.981915,-0.53707 -6.512245,-2.79096 -7.201061,-7.46751 -8.593129,-13.96384 z"
       id="path151" /><path
       style="opacity:0.0812684;fill:none;stroke:#000000;stroke-width:1"
       d="m 87.542493,113.85895 c -7.699182,7.88321 4.397735,15.46347 10.204342,19.33454 0.446868,0.29791 -1.074143,0 -1.611212,0 -2.470261,0 -4.920176,-1.26213 -6.444845,-3.22242 -6.556529,-8.42983 -1.166165,-12.83839 -3.759494,-21.48282 0.53707,1.79023 1.074139,3.58047 1.611209,5.3707 -1.07414,3.0434 -3.720656,5.9415 -3.222421,9.1302 1.826462,11.68934 11.816786,9.66727 19.334538,9.66727"
       id="path152" /><path
       style="opacity:0.0812684;fill:none;stroke:#000000;stroke-width:1"
       d="m 85.931284,126.74864 c 2.201182,3.9676 16.543736,9.98361 18.797466,3.22243 0.52909,-1.58728 -7.016594,3.97892 -11.278479,1.61121 -8.327956,-4.62664 -10.382054,-7.88621 -9.130199,-16.64919 -0.464371,6.03683 -1.884259,10.78341 3.222423,16.11212 4.007038,4.18125 7.809595,3.75949 12.352623,3.75949 0.358042,0 1.074142,0.35805 1.074142,0 0,-1.65051 -3.252729,-0.59987 -4.833636,-1.07414 -4.383042,-1.31491 -7.325654,-3.02373 -10.20434,-6.98192 -3.921105,-5.39152 -4.607636,-16.69438 3.222423,-18.26039 -8.169501,3.87523 -4.662844,7.18494 -3.222423,13.42676 0.362296,1.56995 -0.947668,3.53059 0,4.83363 0.868298,1.19391 2.956175,0.4555 4.296564,1.07414 9.694959,4.47461 -2.799016,0.36018 4.833635,3.22243 1.220328,0.45762 5.062807,1.07414 3.759493,1.07414 -10.659511,0 -18.461543,-9.6009 -15.037974,-19.87161 0.412143,-1.23643 0.0064,-3.01209 1.074141,-3.75949 1.173294,-0.82131 2.864376,0 4.296564,0 -3.10958,3.33733 -5.456382,6.22746 -5.907776,10.74141 -0.221375,2.21375 6.245275,16.31168 8.056058,14.5009 0.44435,-0.44435 -3.958498,-3.4514 -5.370705,-6.98192 -3.511766,-8.77941 -0.83441,-10.82286 3.222423,-18.26039 2.482798,-4.5518 3.863811,-9.667274 9.130199,-9.667274"
       id="path153" /><path
       style="opacity:0.0812684;fill:none;stroke:#000000;stroke-width:1"
       d="m 86.468354,114.39602 c -3.655668,5.4835 -2.904689,13.78231 3.222424,17.18626 5.641247,3.13402 11.171872,3.32903 10.741412,3.75949 -4.646578,4.64658 -13.7605,-3.03335 -15.037977,-6.98191 -3.541485,-10.94642 -0.02603,-11.25462 6.444846,-17.18626 -18.373783,6.12459 2.463192,30.83518 9.130201,24.16817 1.04388,-1.04384 -2.88256,-0.64994 -4.296568,-1.07414 -6.403768,-1.92113 -9.796369,-3.70655 -11.81555,-11.27848 -1.879656,-7.04871 4.267208,-11.2033 8.056057,-15.57505 -2.148282,2.32731 -4.936338,4.19698 -6.444845,6.98192 -4.190948,7.73714 2.799535,15.62262 9.130199,18.2604 0.285221,0.11884 5.370707,1.09442 5.370707,0 0,-0.53806 -7.732861,-1.52307 -8.056059,-1.61121 -4.822077,-1.31511 -7.286978,-4.94643 -10.20434,-8.59313"
       id="path154" /><path
       style="opacity:0.0812684;fill:none;stroke:#000000;stroke-width:1"
       d="m 71.430379,113.32188 c -12.992676,2.79119 8.729422,26.98172 8.056057,29.00181 -0.266909,0.80073 -5.939462,-6.66626 -6.444845,-8.05606 -1.706475,-4.6928 -4.211579,-9.52797 -3.759494,-14.5009 0.205018,-2.25519 1.99248,-4.18573 2.148282,-6.44485 0.205621,-2.98151 -3.266837,-14.478699 2.148282,-17.186257 2.397019,-1.19851 -0.494776,6.339117 -0.53707,6.444847 -2.855529,7.13882 -3.781729,16.54542 -2.148282,24.16817 1.257578,5.8687 6.442845,12.97804 11.815551,16.11212 4.19123,2.44488 12.075925,2.59856 11.815551,2.68535 -18.113028,6.03768 -36.517667,-26.85665 -24.705244,-38.66908"
       id="path155" /><path
       style="opacity:0.0812684;fill:none;stroke:#000000;stroke-width:1"
       d="m 74.652803,102.58047 c -9.817616,9.81761 -7.396779,29.12402 2.148282,38.66908 3.83641,3.83641 9.350676,6.11438 14.500902,7.51898 0.556048,0.15165 6.784168,2.60996 6.444848,2.68536 -15.118588,3.35968 -26.025951,-14.42525 -26.853526,-27.3906 -0.57699,-9.03949 3.787183,-16.04819 9.130197,-22.55696 -11.790857,0.41412 -12.032481,19.74039 -9.667267,27.92767 2.6294,9.10177 8.656123,14.49895 16.649186,18.26039 2.548397,1.19925 5.350466,2.00896 8.056058,2.68536 0.716094,0.17902 2.762446,0.94651 2.148282,0.53707 -6.79104,-4.52736 -14.312787,-4.23913 -20.40868,-10.74141 -7.210682,-7.6914 -14.280596,-29.60081 -7.518987,-39.74322 1.899521,-2.849285 4.265637,-2.938427 6.981916,-4.296566 -3.083404,9.872336 -7.207515,16.176166 -6.444846,26.853526 1.005663,14.07928 14.98637,29.00181 29.538879,29.00181 1.303313,0 -2.523064,-0.662 -3.759494,-1.07414 -4.849073,-1.61636 -10.144599,-3.43549 -13.963833,-6.98192 -9.187034,-8.53082 -15.005221,-21.54833 -9.130199,-33.29837"
       id="path156" /><path
       style="opacity:0.0812684;fill:none;stroke:#000000;stroke-width:1"
       d="m 122.45208,118.69258 c 0.17902,-0.71609 1.25316,-1.96925 0.53707,-2.14828 -3.79319,-0.9483 2.97069,7.37666 3.22242,11.27848 0.0932,1.44373 -3.13506,9.2402 -4.83363,11.27848 -0.62765,0.75318 1.51242,-5.07434 1.61121,-5.3707 0.93367,-2.80102 2.58626,-5.67326 2.14828,-8.59313 -3.38323,-22.55488 -3.88377,6.08826 0,-10.74141 0.28096,-1.21749 -3.52939,-7.74909 -2.68535,-8.59313 1.21774,-1.21774 3.70023,5.97078 3.75949,6.44485 0.83429,6.6743 0.96907,19.43961 -4.29656,24.70524 -1.16709,1.16709 0.51009,-3.28249 1.07414,-4.83363 1.53269,-4.2149 3.35106,-8.93398 3.75949,-13.42677 0.0262,-0.28826 -0.47036,-15.10468 -2.14828,-13.42676 -0.0706,0.0706 1.52469,0.95878 1.61121,1.07414 1.80927,2.41236 3.33638,5.6313 3.7595,8.59313 0.84759,5.93319 0.10628,13.85755 -4.29657,18.2604"
       id="path157" /><path
       style="opacity:0.0812684;fill:none;stroke:#000000;stroke-width:1"
       d="m 125.6745,107.95117 c 7.04438,5.96553 6.30943,21.48435 1.07414,28.46474"
       id="path158" /></g></svg>
