<?xml version="1.0" encoding="UTF-8" standalone="no"?>
<!-- Created with Inkscape (http://www.inkscape.org/) -->

<svg
   width="126.89968mm"
   height="126.86232mm"
   viewBox="0 0 126.89968 126.86232"
   version="1.1"
   id="svg1"
   xml:space="preserve"
   xmlns:inkscape="http://www.inkscape.org/namespaces/inkscape"
   xmlns:sodipodi="http://sodipodi.sourceforge.net/DTD/sodipodi-0.dtd"
   xmlns="http://www.w3.org/2000/svg"
   xmlns:svg="http://www.w3.org/2000/svg"><sodipodi:namedview
     id="namedview1"
     pagecolor="#ffffff"
     bordercolor="#000000"
     borderopacity="0.25"
     inkscape:showpageshadow="2"
     inkscape:pageopacity="0.0"
     inkscape:pagecheckerboard="0"
     inkscape:deskcolor="#d1d1d1"
     inkscape:document-units="mm"><inkscape:page
       x="0"
       y="0"
       width="126.89968"
       height="126.86232"
       id="page2"
       margin="0"
       bleed="0" /></sodipodi:namedview><defs
     id="defs1" /><g
     inkscape:label="Capa 1"
     inkscape:groupmode="layer"
     id="layer1"
     transform="translate(-44.013215,-49.316937)"><path
       style="fill:#000000"
       d="m 79.864258,175.83873 c -1.298634,-0.40932 -3.513365,-2.70267 -3.911569,-4.05041 -0.732983,-2.48083 -0.216221,-4.4584 1.653645,-6.32827 0.839132,-0.83913 1.734786,-1.45092 2.420912,-1.65365 0.73086,-0.21593 3.319667,-0.32176 7.871354,-0.32176 h 6.782324 v -8.46667 -8.46666 l -20.703645,-0.003 c -16.426102,-0.002 -20.97697,-0.0762 -22.026561,-0.35652 -3.21011,-0.8575 -5.479715,-2.7097 -6.939401,-5.66317 L 44.013218,138.5091 V 97.867983 57.226993 l 0.998099,-2.01952 c 1.178749,-2.38503 2.699867,-3.86185 5.219609,-5.06759 l 1.719792,-0.82295 h 55.443932 55.44392 l 2.01952,0.9981 c 2.95347,1.45969 4.80567,3.72929 5.66317,6.9394 0.52219,1.95489 0.52219,79.272197 0,81.227087 -1.03987,3.89284 -3.80856,6.67243 -7.67049,7.70071 -1.09856,0.2925 -5.37397,0.36341 -22.0662,0.36594 l -20.70365,0.003 v 8.46666 8.46667 h 6.78233 c 4.55168,0 7.14049,0.10583 7.87135,0.32176 2.27383,0.67183 4.39632,3.58219 4.39632,6.02824 0,2.44605 -2.12249,5.35641 -4.39632,6.02824 -1.47959,0.43715 -53.479394,0.41427 -54.870342,-0.0241 z m 54.276382,-4.60033 c 0.83376,-0.83383 0.77196,-2.11662 -0.13975,-2.90084 l -0.72031,-0.61959 H 107.34582 81.411053 l -0.773398,0.7734 c -0.979217,0.97922 -0.978181,1.70836 0.0038,2.69036 l 0.777219,0.77722 26.070696,-0.07 26.07069,-0.07 z m -18.29305,-16.22043 v -8.46666 h -8.46667 -8.466663 v 8.46666 8.46667 h 8.466663 8.46667 z m 46.27854,-13.11439 c 0.96344,-0.28611 1.751,-0.76997 2.54404,-1.56302 1.58779,-1.58778 1.97742,-3.03228 1.97742,-7.33102 v -3.39156 H 107.35265 48.057717 l 0.104708,4.03489 c 0.08427,3.24715 0.198994,4.21569 0.587644,4.96094 0.938684,1.79995 2.431991,3.01198 4.258982,3.45676 0.436562,0.10628 24.852529,0.20543 54.257699,0.22032 47.8094,0.0242 53.61154,-0.0167 54.85938,-0.38731 z m 4.52146,-49.543827 c 0,-37.19524 0.12004,-34.92261 -1.95416,-36.99681 -2.11308,-2.11308 2.65105,-1.9585 -57.98421,-1.88134 -52.074364,0.0663 -53.997192,0.0859 -54.890794,0.56189 -1.296106,0.69033 -2.332561,1.70798 -3.000794,2.94636 l -0.571081,1.05833 -0.0701,33.66824 -0.0701,33.668217 h 59.270619 59.27062 z M 102.12515,120.72645 C 88.765898,118.48692 78.234956,107.79752 75.996929,94.205073 c -1.09266,-6.63617 0.394633,-14.73742 3.764559,-20.50548 4.711682,-8.06464 12.147635,-13.40337 21.666312,-15.55558 1.03743,-0.23457 3.19187,-0.35061 6.21771,-0.3349 5.09845,0.0265 7.40869,0.45867 11.75547,2.19921 10.08043,4.03639 17.55648,13.49166 19.33424,24.45279 1.63157,10.05977 -1.84785,20.480317 -9.22484,27.627567 -2.64487,2.5625 -4.86425,4.1491 -7.97425,5.70064 -5.93367,2.96025 -12.94478,4.02112 -19.41098,2.93713 z m 9.21726,-4.21705 c 6.3461,-1.02917 11.73909,-3.82939 15.92889,-8.2708 11.77089,-12.477757 9.36718,-32.402197 -5.05208,-41.876937 -2.36656,-1.55504 -5.06809,-2.71086 -8.46878,-3.62329 -2.19591,-0.58917 -3.0613,-0.67879 -6.50181,-0.67328 -3.41205,0.005 -4.32896,0.10203 -6.53674,0.68849 -2.869245,0.76217 -6.279887,2.27131 -8.594756,3.803 -2.02283,1.33846 -5.127209,4.29649 -6.759196,6.44056 -1.790769,2.35267 -3.764524,6.49127 -4.608662,9.66351 -0.616411,2.31645 -0.702407,3.14171 -0.702407,6.74066 0,3.59807 0.08618,4.42554 0.702691,6.74688 1.27128,4.786717 3.4243,8.616557 6.866158,12.213667 6.248394,6.53023 15.054032,9.55401 23.726692,8.14754 z m -8.28094,-10.17452 c -0.99325,-0.26464 -1.84881,-0.52406 -1.90124,-0.57649 -0.1053,-0.1053 8.21493,-33.520757 8.39006,-33.695887 0.0601,-0.0601 0.51937,-0.001 1.02051,0.13112 0.50114,0.13227 1.40232,0.36775 2.00263,0.52331 l 1.09146,0.28283 -4.23336,16.93203 c -2.32835,9.31261 -4.30779,16.921267 -4.39876,16.908137 -0.091,-0.0131 -0.97805,-0.24041 -1.9713,-0.50505 z M 90.638996,96.863633 c -5.98257,-6.00012 -6.541405,-6.63763 -6.541405,-7.46232 0,-0.82469 0.558835,-1.4622 6.541405,-7.46232 3.597773,-3.60833 6.668108,-6.5606 6.822967,-6.5606 0.347826,0 2.775207,2.43586 2.775207,2.78491 0,0.13925 -2.46948,2.72477 -5.487738,5.74559 l -5.487741,5.49242 5.487741,5.49241 c 3.018258,3.02083 5.487738,5.614917 5.487738,5.764637 0,0.34663 -2.444053,2.76587 -2.794241,2.76587 -0.14439,0 -3.20616,-2.95227 -6.803933,-6.560597 z m 25.132504,5.294737 c -0.68576,-0.69622 -1.24683,-1.37979 -1.24683,-1.51905 0,-0.13925 2.46949,-2.724767 5.48774,-5.745597 l 5.48775,-5.49241 -5.48775,-5.49242 c -3.01825,-3.02082 -5.48774,-5.61491 -5.48774,-5.76463 0,-0.34663 2.44406,-2.76587 2.79425,-2.76587 0.14439,0 3.20616,2.95227 6.80393,6.5606 5.98257,6.00012 6.54141,6.63763 6.54141,7.46232 0,0.82469 -0.55884,1.4622 -6.54141,7.46232 -3.59777,3.608327 -6.66811,6.560597 -6.82297,6.560597 -0.15486,0 -0.84263,-0.56964 -1.52838,-1.26586 z m -63.423907,12.64294 v -2.11667 h 2.116666 2.116667 v 2.11667 2.11667 h -2.116667 -2.116666 z m 8.466666,0 v -2.11667 h 4.233333 4.233333 v 2.11667 2.11667 h -4.233333 -4.233333 z m 84.666661,0 v -2.11667 h 4.23333 4.23334 v 2.11667 2.11667 h -4.23334 -4.23333 z m 12.7,0 v -2.11667 h 2.11667 2.11666 v 2.11667 2.11667 h -2.11666 -2.11667 z M 52.347593,106.33464 v -2.11666 h 4.233333 4.233333 v 2.11666 2.11667 h -4.233333 -4.233333 z m 12.699999,0 v -2.11666 h 2.116666 2.116667 v 2.11666 2.11667 h -2.116667 -2.116666 z m 80.433328,0 v -2.11666 h 2.11667 2.11666 v 2.11666 2.11667 h -2.11666 -2.11667 z m 8.46667,0 v -2.11666 h 4.23333 4.23333 v 2.11666 2.11667 h -4.23333 -4.23333 z M 52.347593,97.867983 v -2.11667 h 2.116666 2.116667 v 2.11667 2.11666 h -2.116667 -2.116666 z m 8.466666,0 v -2.11667 h 4.233333 4.233333 v 2.11667 2.11666 h -4.233333 -4.233333 z m 84.666661,0 v -2.11667 h 4.23333 4.23334 v 2.11667 2.11666 h -4.23334 -4.23333 z m 12.7,0 v -2.11667 h 2.11667 2.11666 v 2.11667 2.11666 h -2.11666 -2.11667 z M 52.347593,89.401313 v -2.11667 h 4.233333 4.233333 v 2.11667 2.11667 h -4.233333 -4.233333 z m 12.699999,0 v -2.11667 h 2.116666 2.116667 v 2.11667 2.11667 h -2.116667 -2.116666 z m 80.433328,0 v -2.11667 h 2.11667 2.11666 v 2.11667 2.11667 h -2.11666 -2.11667 z m 8.46667,0 v -2.11667 h 4.23333 4.23333 v 2.11667 2.11667 h -4.23333 -4.23333 z M 52.347593,80.934643 v -2.11667 h 2.116666 2.116667 v 2.11667 2.11667 h -2.116667 -2.116666 z m 8.466666,0 v -2.11667 h 4.233333 4.233333 v 2.11667 2.11667 h -4.233333 -4.233333 z m 84.666661,0 v -2.11667 h 4.23333 4.23334 v 2.11667 2.11667 h -4.23334 -4.23333 z m 12.7,0 v -2.11667 h 2.11667 2.11666 v 2.11667 2.11667 h -2.11666 -2.11667 z M 52.347593,72.467973 v -2.11666 h 4.233333 4.233333 v 2.11666 2.11667 h -4.233333 -4.233333 z m 12.699999,0 v -2.11666 h 2.116666 2.116667 v 2.11666 2.11667 h -2.116667 -2.116666 z m 80.433328,0 v -2.11666 h 2.11667 2.11666 v 2.11666 2.11667 h -2.11666 -2.11667 z m 8.46667,0 v -2.11666 h 4.23333 4.23333 v 2.11666 2.11667 h -4.23333 -4.23333 z M 52.347593,64.001313 v -2.11667 h 2.116666 2.116667 v 2.11667 2.11666 h -2.116667 -2.116666 z m 8.466666,0 v -2.11667 h 4.233333 4.233333 v 2.11667 2.11666 h -4.233333 -4.233333 z m 84.666661,0 v -2.11667 h 4.23333 4.23334 v 2.11667 2.11666 h -4.23334 -4.23333 z m 12.7,0 v -2.11667 h 2.11667 2.11666 v 2.11667 2.11666 h -2.11666 -2.11667 z"
       id="path1" /><path
       style="opacity:0.375086;fill:none;stroke:#000000;stroke-width:1"
       d="m 52.632911,139.10126 c -2.740872,-1.37043 -4.13853,-9.13019 -1.074142,-9.13019 1.010901,0 0,17.83263 0,3.22242 0,-1.07414 0,-2.14829 0,-3.22242 1.823594,8.50879 5e-6,15.04223 0,0 2e-6,5.94707 -0.310684,2.89848 1.074142,9.13019 z"
       id="path2" /><path
       style="opacity:0.375086;fill:none;stroke:#000000;stroke-width:1"
       d="m 51.021699,133.19349 c -0.351094,0.93873 1.417926,4.83363 8.593129,4.83363"
       id="path3" /><path
       style="opacity:0.375086;fill:none;stroke:#000000;stroke-width:1"
       d="m 55.318262,138.02712 c 4.911096,0 -5.345414,0 5.370706,0"
       id="path4" /><path
       style="opacity:0.375086;fill:none;stroke:#000000;stroke-width:1"
       d="m 163.80651,131.58228 c 1.32564,-6.14421 -1.52741,4.83363 -0.53707,4.83363 1.62112,0 1.98705,-5.55862 0.53707,-4.83363 -11.0276,5.5138 -0.51647,2.64413 -1.61121,4.83363 -0.33023,0.66045 -3.7595,1.17884 -3.7595,2.14828 0,0.31873 5.3554,-6.85944 5.37071,-6.98191 0.17902,-1.43219 -1.55766,-5.31716 -0.53707,-4.29657 1.02059,1.02059 0.90896,2.90197 0.53707,4.29657 -0.43517,1.63188 -4.11754,3.40144 -2.68536,4.29656 3.91184,2.4449 1.817,-14.91247 2.68536,-16.64919 -1.7054,-3.00274 0,17.0333 0,12.35263 0,-21.59029 -2.42818,-21.85361 0,0 z"
       id="path5" /><path
       style="opacity:0.375086;fill:none;stroke:#000000;stroke-width:1"
       d="m 162.1953,125.6745 c 1.71386,6.85546 0.17279,-8.14294 0,-10.20434 2.06302,3.11461 -2.0334,19.64184 0,15.57505 -1.53213,2.42294 -1.71209,4.83363 -4.29657,4.83363"
       id="path6" /><path
       style="opacity:0.375086;fill:none;stroke:#000000;stroke-width:1"
       d="m 50.484629,122.98915 c 0,3.18136 -0.441888,7.26746 0.53707,10.20434 1.687965,5.0639 -1.034418,-11.27848 0,-11.27848 0.358047,0 0,0.71609 0,1.07414 0,3.46837 0.608931,6.85829 0,10.20434 -1.392069,-6.96035 -1.275754,-3.55618 -0.53707,-10.20434 z"
       id="path7" /><path
       style="opacity:0.375086;fill:none;stroke:#000000;stroke-width:1"
       d="m 49.947557,126.74864 c 0,2.53652 0.18094,5.03534 -0.53707,7.51899 0.179023,-2.50633 0.53707,-5.00627 0.53707,-7.51899 2e-6,-16.09909 -1.045599,7.48267 -0.53707,7.51899 5.717628,0.4084 -3.058976,-12.35262 1.074142,-12.35262 4.133079,0 -5.196717,12.05815 -1.074142,12.35262 2.50633,0.17902 0.3284,-5.01495 0.53707,-7.51899 0.233618,-2.80342 0.537072,-4.89244 0.537072,-7.51898 0,-2.51272 -0.328402,5.01495 -0.537072,7.51898 -0.20867,2.50404 -3.0434,7.33997 -0.53707,7.51899 0.452259,0.0323 1.074142,-17.4613 1.074142,-20.40868"
       id="path8" /><path
       style="opacity:0.375086;fill:none;stroke:#000000;stroke-width:1"
       d="m 52.632911,59.077756 c 0.04214,0.0028 -0.02974,10.741411 0,10.741411 1.074139,0 0,-2.148281 0,-3.222424 0,-2.506329 0,-10.025316 0,-7.518987 0,7.088489 -1.029795,12.889693 -0.53707,12.889693 1.432187,0 -0.15816,-2.873134 0,-4.296563 0.0806,-0.725379 0.687523,-8.818809 0.53707,-8.59313 -1.474539,2.211808 -1.611212,10.398408 -1.611212,13.426763 0,1.253164 0,-2.506329 0,-3.759494 0,-2.836444 -0.529873,-7.526184 1.611212,-9.667269 1.02059,-1.02059 -0.406397,2.859159 -0.53707,4.296566 -0.362095,3.983048 1.000681,7.445526 0,6.444845 -1.37214,-1.37214 -0.887367,-9.601861 0.53707,-10.741411 0.982914,-0.786331 6.561389,-0.396893 5.370706,0 -1.698366,0.566124 -7.16094,0 -5.370706,0 3.049405,0 4.933344,0.324811 7.518987,-0.53707 0.339672,-0.113223 1.32732,-0.253177 1.07414,0 -1.761705,1.761707 -9.350973,1.294916 -8.593127,0.53707 2.661901,-2.661899 8.593127,1.057841 8.593127,-1.074139 0,-0.895118 -1.790235,0 -2.685352,0 -1.685351,0 -4.944255,-0.13026 -5.907775,1.074139 -1.782815,2.228522 0.877374,8.986663 -0.53707,11.815553"
       id="path9" /><path
       style="opacity:0.375086;fill:none;stroke:#000000;stroke-width:1"
       d="m 154.67631,58.540686 c -4.26714,1.453515 -10.83142,-3.244924 4.29656,0.53707 1.3619,0.340476 3.17255,9.080328 1.61121,7.518987 -2.21625,-2.21625 -0.007,-9.130199 -1.07414,-9.130199 -1.65051,0 -4.83363,-0.576373 -4.83363,1.074142 0,0.52659 6.44484,-0.230214 6.44484,3.222424 0,1.969257 0,3.938516 0,5.907776 0,0.358047 0,1.432186 0,1.074139 0,-3.627803 -0.23746,-6.769968 -1.61121,-10.204339 -0.59838,-1.495972 -4.83363,1.611212 -4.83363,0 0,-3.067968 5.83365,-1.685332 6.98192,-0.537069 1.00434,1.004342 0.53707,11.510324 0.53707,9.667269 0,-11.162004 -9.06252,-12.21726 -7.51899,-9.1302 0.66095,1.321909 5.94599,-1.995424 6.98192,2.148282 0.61647,2.465877 -0.71646,13.964901 0.53707,10.204341"
       id="path10" /><path
       style="opacity:0.375086;fill:none;stroke:#000000;stroke-width:1"
       d="m 162.1953,70.356237 c 0,15.641394 1.23194,-8.748715 -1.07415,-11.815551 2.82562,5.801976 1.04845,12.123988 0.53708,18.260399"
       id="path11" /><path
       style="opacity:0.375086;fill:none;stroke:#000000;stroke-width:1"
       d="m 112.78481,150.37975 c 0,5.00148 -0.18655,-2.45618 -0.53707,-3.7595 1.3864,23.69187 -0.23577,-10.15167 0.53707,3.7595 0.78873,14.19723 0,14.21416 0,0 z"
       id="path12" /><path
       style="opacity:0.375086;fill:none;stroke:#000000;stroke-width:1"
       d="m 111.71067,163.26944 c 0,-2.27034 1.07414,-12.34808 1.07414,-16.11212 0,-1.30331 -0.81854,2.48149 -1.07414,3.7595 -0.31867,1.59332 0.68412,13.96383 0.53707,13.96383 -1.43219,0 0,-2.86438 0,-4.29657 0,-4.46206 -0.4103,-9.05072 0.53707,-13.42676 0,3.93852 0,7.87704 0,11.81556"
       id="path13" /><path
       style="opacity:0.375086;fill:none;stroke:#000000;stroke-width:1"
       d="m 112.78481,147.15732 c 0.0186,8e-4 -0.0153,15.03798 0,15.03798 0.35805,0 0,-0.7161 0,-1.07415 0,-3.21709 -0.53707,-6.55812 -0.53707,-9.66726 0,-1.44334 -0.48352,-5.31716 0.53707,-4.29657 0.12043,0.12043 0,31.89744 0,7.51899 0,-2.50633 0,-5.01266 0,-7.51899 z"
       id="path14" /><path
       style="opacity:0.375086;fill:none;stroke:#000000;stroke-width:1"
       d="m 112.78481,156.82459 c 0.79425,5.55977 0.9557,9.2568 0,1.61121 -0.53199,-4.25592 0.53707,-9.11054 0.53707,-13.42676 0,-1.43219 0,2.86438 0,4.29656 0,0.5178 0.87737,16.64919 0.53707,16.64919 -1.79917,0 0.53707,-3.57154 0.53707,-5.37071 0,-5.12276 -1.3356,-10.38143 -1.07414,-15.57504 -0.39417,6.46149 0.53707,12.01343 0.53707,18.2604"
       id="path15" /><path
       style="opacity:0.375086;fill:none;stroke:#000000;stroke-width:1"
       d="m 114.39602,162.73237 c 0,1.31403 -0.86858,-10.62852 -1.07414,-12.8897 -0.16208,-1.78288 0.24312,-3.59149 0,-5.3707 2.27689,5.99827 0.21473,12.2445 1.07414,18.2604 z"
       id="path16" /><path
       style="opacity:0.375086;fill:none;stroke:#000000;stroke-width:1"
       d="m 111.71067,158.97287 c 0,11.62276 1.74927,-11.96021 0.53707,-13.96383 -1.8045,-7.78601 -1.61121,29.86479 -1.61121,19.33454 0,-4.93754 1.35086,-4.63278 -0.53707,-9.66727"
       id="path17" /><path
       style="opacity:0.375086;fill:none;stroke:#000000;stroke-width:1"
       d="m 109.02532,157.89873 c 0,14.26344 1.43729,-9.45754 0,-12.88969 0,1.54281 -10e-6,29.4574 0,12.88969 z"
       id="path18" /><path
       style="opacity:0.375086;fill:none;stroke:#000000;stroke-width:1"
       d="m 107.95117,161.65823 c 2.37926,-4.75851 -0.52881,-11.51368 0.53708,-16.64919 -0.71918,5.64589 -1.24322,11.00001 -0.53708,16.64919 z"
       id="path19" /><path
       style="opacity:0.375086;fill:none;stroke:#000000;stroke-width:1"
       d="m 106.33996,145.54611 c 0,3.0434 0,6.0868 0,9.1302"
       id="path20" /><path
       style="opacity:0.375086;fill:none;stroke:#000000;stroke-width:1"
       d="m 113.32188,160.58408 c 0,6.87656 0,-13.88887 0,-15.57504 1.15156,2.36601 -3.43178,29.30219 0,15.57504 z"
       id="path21" /><path
       style="opacity:0.375086;fill:none;stroke:#000000;stroke-width:1"
       d="m 112.24774,163.26944 c 1.13397,2.26794 0.33236,-13.30877 0.53707,-16.11212 1.07194,5.56486 0.4636,10.60846 -0.53707,16.11212 z"
       id="path22" /><path
       style="opacity:0.375086;fill:none;stroke:#000000;stroke-width:1"
       d="m 111.71067,156.82459 c 0,11.26813 2.05063,-10.6507 1.07414,-12.88969 -2.63144,5.22962 -2.55729,7.69869 -1.07414,12.88969 z"
       id="path23" /><path
       style="opacity:0.375086;fill:none;stroke:#000000;stroke-width:1"
       d="m 110.09946,154.13924 c 0,2.31213 0,-7.30254 0,-8.59313 0,2.86438 0,5.72875 0,8.59313 z"
       id="path24" /><path
       style="opacity:0.375086;fill:none;stroke:#000000;stroke-width:1"
       d="m 109.02532,154.13924 c 0,-2.68535 0,-5.37071 0,-8.05606 0,2.68535 0,5.37071 0,8.05606 z"
       id="path25" /><path
       style="opacity:0.375086;fill:none;stroke:#000000;stroke-width:1"
       d="m 107.95117,152.52803 c 0,-2.50633 0,-5.01266 0,-7.51899 0,2.50633 0,5.01266 0,7.51899 z"
       id="path26" /><path
       style="opacity:0.375086;fill:none;stroke:#000000;stroke-width:1"
       d="m 111.71067,155.75045 c 0,-3.055 0.27405,-6.15177 -0.53707,-9.1302 2.07805,6.23415 2.02312,3.18598 0.53707,9.1302 z"
       id="path27" /><path
       style="opacity:0.375086;fill:none;stroke:#000000;stroke-width:1"
       d="m 112.78481,163.80651 c 1.32575,-2.6515 -0.49411,-12.23933 0,-17.18626 0.85705,5.69184 0.81289,11.49602 0,17.18626 z"
       id="path28" /><path
       style="opacity:0.375086;fill:none;stroke:#000000;stroke-width:1"
       d="m 126.21157,168.64014 c 1.32313,0.20178 7.34474,3.81758 2.68535,5.37071 -3.64779,1.21593 0.7723,-1.23486 0.53708,-1.61121 -0.87478,-1.39964 -4.38952,-4.92659 -3.22243,-3.7595 1.34566,1.34566 2.8353,2.63301 3.7595,4.29657 0.22218,0.39992 -3.7595,0.86466 -3.7595,0.53707 0,-5.09462 5.85781,8.83459 0,-4.83364 z"
       id="path29" /><path
       style="opacity:0.375086;fill:none;stroke:#000000;stroke-width:1"
       d="m 128.89692,168.10307 c 0.6988,5.2956 1.74839,6.11937 0,0 z"
       id="path30" /><path
       style="opacity:0.375086;fill:none;stroke:#000000;stroke-width:1"
       d="m 129.97107,171.86257 c 2.36957,1.18478 0.7577,-3.76185 -1.07415,-4.83364 0.35805,1.61121 0.7161,3.22243 1.07415,4.83364 z"
       id="path31" /><path
       style="opacity:0.375086;fill:none;stroke:#000000;stroke-width:1"
       d="m 128.35985,171.86257 c 3.60327,0 1.66843,-4.93193 0,-5.37071 0,1.79024 0,3.58047 0,5.37071 z"
       id="path32" /><path
       style="opacity:0.375086;fill:none;stroke:#000000;stroke-width:1"
       d="m 127.28571,172.93671 c 3.70371,0 2.31421,-5.14775 -0.53707,-6.98192 0.17902,2.32731 0.35805,4.65461 0.53707,6.98192 z"
       id="path33" /><path
       style="opacity:0.375086;fill:none;stroke:#000000;stroke-width:1"
       d="m 128.89692,171.86257 c -0.35804,-1.96926 0.72215,-5.02488 -1.07414,-5.90778 0.35805,1.96926 0.71609,3.93852 1.07414,5.90778 z"
       id="path34" /><path
       style="opacity:0.375086;fill:none;stroke:#000000;stroke-width:1"
       d="m 121.37794,167.566 c -8.0348,0 4.50182,1.81647 5.90777,3.22243 0.7786,0.77859 -6.02052,-2.03554 -6.44484,-1.61122 -1.56582,1.56582 5.74459,-0.48955 6.44484,1.61122 0.64548,1.93643 -7.73346,0.69836 -5.90777,1.61121 1.60686,0.80343 4.54138,-1.38922 5.90777,-1.61121 -1.96926,-1.07414 -4.83363,-5.19169 -5.90777,-3.22243 -1.07414,1.96926 3.93851,2.14829 5.90777,3.22243 -10.87697,-7.47929 -15.47496,4.97803 -5.90777,-3.22243 z"
       id="path35" /><path
       style="opacity:0.375086;fill:none;stroke:#000000;stroke-width:1"
       d="m 118.15551,169.71428 c -8.04158,2.0104 4.17793,1.65362 5.90778,1.61122 0.0803,0.54708 -11.27848,-3.50957 -11.27848,-2.68536 0,1.82569 7.19639,1.07414 5.3707,1.07414 -5.52144,0 -9.84505,-1.09388 0,0 z"
       id="path36" /><path
       style="opacity:0.375086;fill:none;stroke:#000000;stroke-width:1"
       d="m 124.06329,170.78843 c -3.49112,-0.22854 -18.68271,0.53707 -6.44485,0.53707 0.12813,-2.29613 -9.95742,-4.29657 -5.90777,-4.29657"
       id="path37" /><path
       style="opacity:0.375086;fill:none;stroke:#000000;stroke-width:1"
       d="m 122.98915,165.95479 c -0.53749,0.42947 -4.83364,-0.6075 -4.83364,0 0,1.61121 3.23487,0.19985 4.83364,0 z"
       id="path38" /><path
       style="opacity:0.375086;fill:none;stroke:#000000;stroke-width:1"
       d="m 125.13743,169.17721 c -0.17902,0.7161 -1.25316,1.96926 -0.53707,2.14829 0.71609,0.17902 0.35805,-1.43219 0.53707,-2.14829 z"
       id="path39" /><path
       style="opacity:0.375086;fill:none;stroke:#000000;stroke-width:1"
       d="m 125.13743,172.39964 c 0.87837,-2.63513 -0.11094,-4.89183 -1.61121,-7.51899 0.53707,2.50633 1.07414,5.01266 1.61121,7.51899 z"
       id="path40" /><path
       style="opacity:0.375086;fill:none;stroke:#000000;stroke-width:1"
       d="m 127.82278,171.3255 c -4.9851,-14.95532 2.64294,3.64927 -1.61121,-4.83364 0.53707,1.61121 1.07414,3.22243 1.61121,4.83364 z"
       id="path41" /><path
       style="opacity:0.375086;fill:none;stroke:#000000;stroke-width:1"
       d="m 128.89692,170.78843 c 0.0721,-0.14413 1.8335,-0.99461 -1.07414,-3.7595 0.35805,1.25317 0.71609,2.50633 1.07414,3.7595 z"
       id="path42" /><path
       style="opacity:0.375086;fill:none;stroke:#000000;stroke-width:1"
       d="m 129.434,168.10307 c 0.71609,3.58047 0.71609,3.58047 0,0 z"
       id="path43" /><path
       style="opacity:0.375086;fill:none;stroke:#000000;stroke-width:1"
       d="m 130.50814,171.3255 c 0,-0.0671 0.41377,-3.30521 0,-4.29657 0,1.43219 0,2.86438 0,4.29657 z"
       id="path44" /><path
       style="opacity:0.375086;fill:none;stroke:#000000;stroke-width:1"
       d="m 129.97107,168.10307 c 0.53707,0.7161 0.89511,2.68536 1.61121,2.14828 0.71609,-0.53707 -1.07414,-1.43218 -1.61121,-2.14828 z"
       id="path45" /><path
       style="opacity:0.375086;fill:none;stroke:#000000;stroke-width:1"
       d="m 162.1953,134.8047 c 0.44571,-1.56 0.93713,-2.70874 1.07414,-3.7595 -0.35805,1.25317 -0.71609,2.50633 -1.07414,3.7595 z"
       id="path46" /><path
       style="opacity:0.375086;fill:none;stroke:#000000;stroke-width:1"
       d="m 161.65823,136.95298 c 0.91877,-0.4018 2.16763,-8.59313 2.14828,-8.59313 -0.7161,0 0.17368,1.45357 0,2.14829 -0.54221,2.16882 -1.31928,4.23415 -2.14828,6.44484 z"
       id="path47" /><path
       style="opacity:0.375086;fill:none;stroke:#000000;stroke-width:1"
       d="m 159.50994,136.95298 c -0.0752,0.69321 3.7595,-0.30636 3.7595,-9.1302 -0.73477,6.61293 0.43561,3.53674 -3.7595,9.1302 z"
       id="path48" /><path
       style="opacity:0.375086;fill:none;stroke:#000000;stroke-width:1"
       d="m 158.4358,136.95298 c 1.45548,0.33769 4.83364,-5.4362 4.83364,-11.81555 3.89007,0.92639 -4.83364,12.78413 -4.83364,11.81555 0,-1.90305 2.64018,-2.7575 3.7595,-4.29656 1.43287,-1.9702 1.57073,-11.98833 1.61121,-12.35262"
       id="path49" /><path
       style="opacity:0.375086;fill:none;stroke:#000000;stroke-width:1"
       d="m 163.80651,125.13743 c -1.24713,-19.14387 0,-12.90258 0,0 0,-3.93852 0,-7.87703 0,-11.81555"
       id="path50" /><path
       style="opacity:0.375086;fill:none;stroke:#000000;stroke-width:1"
       d="m 163.26944,120.3038 c 1.11474,-3.34887 0.53707,-20.314423 0.53707,-9.1302"
       id="path51" /><path
       style="opacity:0.375086;fill:none;stroke:#000000;stroke-width:1"
       d="m 162.73237,105.80289 c 0.59875,6.04137 0.94748,12.85925 -0.53707,18.79747"
       id="path52" /><path
       style="opacity:0.375086;fill:none;stroke:#000000;stroke-width:1"
       d="m 51.021699,127.82278 c -0.36894,2.10783 0.154059,3.99272 0.53707,5.90778 0.146436,0.73218 0.457324,3.75949 1.074142,3.75949 0.332237,0 -1.04848,-2.58271 -1.074142,-2.68535 -0.316368,-1.26548 0.674544,-6.98192 -0.53707,-6.98192 -3.035816,0 1.908368,7.81614 2.685351,8.59313 -1.07414,-1.43219 -1.790234,-5.3707 -3.222421,-4.29656 -1.432187,1.07414 1.432187,4.29656 3.222421,4.29656 1.601234,0 -1.670672,-2.76822 -2.14828,-4.29656 -0.43051,-1.37764 -0.358047,-2.86438 -0.537071,-4.29657 z"
       id="path53" /><path
       style="opacity:0.375086;fill:none;stroke:#000000;stroke-width:1"
       d="m 55.855335,138.56419 c 4.106936,1.02674 4.106936,1.02674 0,0 z"
       id="path54" /><path
       style="opacity:0.375086;fill:none;stroke:#000000;stroke-width:1"
       d="m 62.83725,138.56419 c -2.528512,0 -5.060635,0.21777 -7.518988,-0.53707 2.506329,0.17902 5.012659,0.35805 7.518988,0.53707 z"
       id="path55" /><path
       style="opacity:0.375086;fill:none;stroke:#000000;stroke-width:1"
       d="m 51.021699,125.13743 c 0.65305,-2.33786 0.853792,-4.70966 1.611212,-6.98192"
       id="path56" /><path
       style="opacity:0.375086;fill:none;stroke:#000000;stroke-width:1"
       d="m 52.632911,59.614828 c -0.651846,0.527471 -1.403974,5.370703 -1.074142,5.370703 1.825688,0 0.631346,-3.599526 1.074142,-5.370703 z"
       id="path57" /><path
       style="opacity:0.375086;fill:none;stroke:#000000;stroke-width:1"
       d="m 54.781193,58.003617 c -1.209831,-2.331808 -5.344184,8.593126 -3.759494,8.593126 1.443334,0 -0.205518,-3.058914 0.53707,-4.296563 0.92107,-1.535113 2.148281,-2.864377 3.222424,-4.296563 z"
       id="path58" /><path
       style="opacity:0.375086;fill:none;stroke:#000000;stroke-width:1"
       d="m 49.947559,74.652803 c 0,-5.68509 -0.521825,-11.706351 3.759491,-16.112117 8.638805,0.825045 4.433036,-2.728021 0,0 -1.649179,1.014881 -2.148281,3.222424 -3.222421,4.833636 -0.352726,6.509014 0,12.85141 0,19.334539"
       id="path59" /><path
       style="opacity:0.375086;fill:none;stroke:#000000;stroke-width:1"
       d="m 50.484629,82.70886 c 0,-2.199314 0,-10.306926 0,-14.500905 1.636657,5.077488 1.260736,9.457965 0,14.500905 z"
       id="path60" /><path
       style="opacity:0.375086;fill:none;stroke:#000000;stroke-width:1"
       d="m 51.558769,73.041591 c 0,2.327304 0,4.654611 0,6.981915"
       id="path61" /><path
       style="opacity:0.375086;fill:none;stroke:#000000;stroke-width:1"
       d="m 64.985531,60.151898 c -2.908167,0 -5.509638,-1.848591 -8.593126,-1.074142 5.814329,-0.726789 2.945129,-1.043857 8.593126,1.074142 z"
       id="path62" /><path
       style="opacity:0.375086;fill:none;stroke:#000000;stroke-width:1"
       d="m 61.226038,58.540686 c 3.442247,0.09475 7.103557,-0.47625 10.204341,1.074142"
       id="path63" /><path
       style="opacity:0.375086;fill:none;stroke:#000000;stroke-width:1"
       d="m 160.04701,60.688968 c -12.44461,-6.913674 7.59822,-5.793314 -4.83363,-2.685351 -0.69471,0.173677 2.14828,-0.716095 2.14828,0 0,0.716092 -1.43219,0 -2.14828,0 1.61121,0.895117 3.22242,1.790234 4.83363,2.685351 z"
       id="path64" /><path
       style="opacity:0.375086;fill:none;stroke:#000000;stroke-width:1"
       d="m 161.12115,63.911392 c -2.72342,-5.446855 -1.74932,-4.979657 -3.22242,-6.444848 -4.20732,-0.581234 -3.79871,-1.093749 -5.90777,-2.14828"
       id="path65" /><path
       style="opacity:0.375086;fill:none;stroke:#000000;stroke-width:1"
       d="m 140.71248,57.466546 c 4.53972,0 10.17064,-1.686079 15.03797,-0.537072 -1.30343,0.160912 -13.68006,-1.674534 -6.98192,0 -2.68535,0.179024 -5.3707,0.358048 -8.05605,0.537072 z"
       id="path66" /><path
       style="opacity:0.375086;fill:none;stroke:#000000;stroke-width:1"
       d="m 116.5443,110.63653 c 2.00104,-2.00103 8.11755,-4.03385 9.1302,-7.51899 -1.24102,2.48205 -4.71777,4.23887 -6.98192,5.90778 -3.01471,1.50736 -5.57645,3.22242 -9.13019,3.22242 -8.08921,0 5.75202,0.15575 9.13019,-3.22242 2.28211,-2.28211 -8.1096,6.28419 -9.13019,3.22242 -1.02059,-3.06177 9.82268,-0.1441 9.13019,-3.22242 -1.38337,2.76674 -6.37723,2.09694 -9.13019,3.22242 -1.43466,-0.15805 -2.86438,-0.35805 -4.29657,-0.53707"
       id="path67" /><path
       style="opacity:0.375086;fill:none;stroke:#000000;stroke-width:1"
       d="m 123.52622,70.893309 c 2.14828,2.864374 2.14828,2.864374 0,0 z"
       id="path68" /><path
       style="opacity:0.375086;fill:none;stroke:#000000;stroke-width:1"
       d="m 127.82278,81.097648 c 0,-5.734164 -4.91879,-8.024979 -5.90777,-8.593129 5.37814,5.37814 3.58539,2.400106 5.90777,8.593129 z"
       id="path69" /><path
       style="opacity:0.375086;fill:none;stroke:#000000;stroke-width:1"
       d="m 125.13743,75.726943 c -0.35805,-0.716095 -0.35805,-2.50633 -1.07414,-2.148282 -0.71609,0.358047 1.64026,2.714405 1.07414,2.148282 -9.52349,-9.523495 -0.35704,-1.788219 3.22242,5.370705"
       id="path70" /><path
       style="opacity:0.375086;fill:none;stroke:#000000;stroke-width:1"
       d="m 124.60036,103.65461 c 0.83128,-0.50395 3.90451,-4.833636 3.22242,-4.833636 -0.26331,0 -10.20434,11.496666 -10.20434,10.741416 0,-0.52227 3.20787,-2.13373 2.68536,-1.61122 -0.88375,0.88375 -5.90778,2.25268 -5.90778,3.22243 0,0.58195 8.07099,-2.67043 7.51899,-3.22243 -1.0435,-1.04349 -8.72346,6.51451 -2.14828,0.53708 1.68602,-1.53276 3.22242,-3.22243 4.83363,-4.83364 z"
       id="path71" /><path
       style="opacity:0.375086;fill:none;stroke:#000000;stroke-width:1"
       d="m 127.82278,90.764917 c 0,6.428849 3.65118,-7.21683 0,-9.667269 1.30631,10.450355 0,-2.585109 0,9.667269 0,6.298301 -1.61121,10.217123 -1.61121,10.204343 0,-0.53118 4.46545,-10.561126 1.61121,-10.204343 -1.43219,0.179025 0.53707,2.853231 0.53708,4.296566 0,0.808532 -3.90382,5.226387 -3.22243,5.907777 1.64024,1.64024 3.7595,-14.944325 3.7595,-15.575047 0,-1.476266 -1.07415,-5.772831 -1.07415,-4.296565 0,5.80071 0.49312,8.768922 -1.07414,15.037976 -0.0315,0.126233 -2.04797,3.759494 -1.61121,3.759494 2.7751,0 4.29657,-13.926932 4.29657,-14.500905 0,-4.644271 -3.16085,-9.068626 -6.44485,-12.352622 -0.21839,-0.218388 -1.83213,-2.685352 -2.14828,-2.685352 -1.71024,0 9.56997,10.741409 6.98191,10.741409 -0.21082,0 -6.73278,-10.286028 -8.05605,-11.27848 -0.26018,-0.195132 -4.29657,-2.196909 -4.29657,-1.611211 0,0.320634 7.88695,4.429129 8.59313,5.370705 1.6813,2.241728 6.26582,8.77215 3.75949,7.518986 -8.44574,-4.222871 2.78012,-12.573481 0,9.667269 z"
       id="path72" /><path
       style="opacity:0.375086;fill:none;stroke:#000000;stroke-width:1"
       d="m 127.82278,91.839059 c 0,-3.45972 2.76589,-6.913768 0,-10.741411 2.60331,6.305709 3.7328,5.515502 0,10.741411 z"
       id="path73" /><path
       style="opacity:0.375086;fill:none;stroke:#000000;stroke-width:1"
       d="m 129.97107,83.783 c -0.242,2.177391 -1.07415,16.44327 -1.07415,9.667271"
       id="path74" /><path
       style="opacity:0.375086;fill:none;stroke:#000000;stroke-width:1"
       d="m 129.97107,89.153705 c 0.71959,2.471703 0.32154,3.656947 0,5.907776 -1.31486,9.203989 -2.30899,0.537072 1.07413,0.537072 0.0928,0 -4.86856,7.484057 -4.83363,7.518987 1.40225,1.40224 4.99519,-9.638913 3.7595,-13.963835 z"
       id="path75" /><path
       style="opacity:0.375086;fill:none;stroke:#000000;stroke-width:1"
       d="m 126.74864,102.0434 c 2.5288,-5.689809 3.15313,-6.960974 3.7595,-14.500907 0,3.441803 -1.61122,6.278827 -1.61122,9.667272 0,2.563225 1.61122,-4.955762 1.61122,-7.518987 0,-0.46949 -1.07953,8.259971 -1.61122,7.518987 -0.71609,1.611212 -1.43219,3.222425 -2.14828,4.833635 z"
       id="path76" /><path
       style="opacity:0.375086;fill:none;stroke:#000000;stroke-width:1"
       d="m 126.21157,102.0434 c -2.15328,2.80183 -5.22233,4.74461 -8.05606,6.44485"
       id="path77" /></g></svg>
