<?xml version="1.0" encoding="UTF-8" standalone="no"?>
<!-- Created with Inkscape (http://www.inkscape.org/) -->

<svg
   width="99.479279mm"
   height="101.53264mm"
   viewBox="0 0 99.479279 101.53264"
   version="1.1"
   id="svg1"
   xml:space="preserve"
   xmlns:inkscape="http://www.inkscape.org/namespaces/inkscape"
   xmlns:sodipodi="http://sodipodi.sourceforge.net/DTD/sodipodi-0.dtd"
   xmlns="http://www.w3.org/2000/svg"
   xmlns:svg="http://www.w3.org/2000/svg"><sodipodi:namedview
     id="namedview1"
     pagecolor="#ffffff"
     bordercolor="#000000"
     borderopacity="0.25"
     inkscape:showpageshadow="2"
     inkscape:pageopacity="0.0"
     inkscape:pagecheckerboard="0"
     inkscape:deskcolor="#d1d1d1"
     inkscape:document-units="mm"
     inkscape:zoom="0.49264169"
     inkscape:cx="397.85508"
     inkscape:cy="561.25984"
     inkscape:window-width="1366"
     inkscape:window-height="705"
     inkscape:window-x="-8"
     inkscape:window-y="-8"
     inkscape:window-maximized="1"
     inkscape:current-layer="layer1"><inkscape:page
       x="0"
       y="-5.5948117e-13"
       width="99.479279"
       height="101.53263"
       id="page2"
       margin="0"
       bleed="0" /></sodipodi:namedview><defs
     id="defs1" /><g
     inkscape:label="Capa 1"
     inkscape:groupmode="layer"
     id="layer1"
     transform="translate(-71.043,-73.99271)"><path
       style="fill:#000000"
       d="m 89.956654,175.15245 c -3.730308,-0.92432 -6.863306,-3.92352 -7.763979,-7.43241 -0.149411,-0.58208 -0.767878,-5.67881 -1.374371,-11.32607 -1.054596,-9.8197 -1.082416,-10.29018 -0.637529,-10.78178 0.643907,-0.7115 1.863201,-0.66887 2.324737,0.0813 0.232683,0.3782 0.763191,4.33923 1.454596,10.86074 1.161327,10.95392 1.307037,11.63105 2.891126,13.43522 0.44408,0.50578 1.384001,1.21411 2.088711,1.57406 l 1.281293,0.65446 9.326562,0.0758 9.32656,0.0758 4.1e-4,-3.77996 c 4.9e-4,-4.51898 0.26413,-5.29847 2.10617,-6.22736 0.87841,-0.44295 1.64021,-0.59531 2.97657,-0.59531 h 1.79602 v -0.75143 c 0,-2.22832 1.74451,-7.02076 3.62711,-9.96419 4.1242,-6.44821 11.96921,-10.98021 19.00702,-10.98021 1.98032,0 1.80046,0.32984 2.23633,-4.10104 0.15747,-1.60073 0.3515,-3.35691 0.43118,-3.90261 l 0.14487,-0.99219 H 111.20606 81.212078 l 0.389445,3.9734 c 0.355088,3.62286 0.351925,4.01091 -0.03586,4.3987 -0.52476,0.52476 -1.71492,0.55309 -2.215271,0.0527 -0.239964,-0.23996 -0.530497,-1.80545 -0.816333,-4.39869 -0.419049,-3.80181 -0.475382,-4.02615 -1.011006,-4.02615 -1.137607,0 -3.201723,-0.79914 -4.203134,-1.62729 -1.274937,-1.05435 -2.275429,-3.12954 -2.276913,-4.72271 -0.0019,-2.04843 0.478733,-3.20288 1.943184,-4.66733 1.398455,-1.39846 2.619733,-1.94287 4.364917,-1.94577 0.604753,-10e-4 0.845733,-0.10702 0.755119,-0.33221 -0.0732,-0.1819 -0.457003,-1.07099 -0.852903,-1.97575 -0.817537,-1.86835 -0.750918,-2.70451 0.258515,-3.24474 1.170145,-0.62624 1.786837,-0.0747 2.999411,2.68277 l 1.086872,2.47158 2.672259,0.0756 c 2.493197,0.0705 2.65578,0.0439 2.426315,-0.39688 -0.13527,-0.25984 -1.765152,-3.98478 -3.62196,-8.27764 -1.856808,-4.29287 -3.415596,-7.85095 -3.463973,-7.90686 -0.141477,-0.16349 -4.338483,1.63279 -4.338483,1.85683 0,0.11196 0.416719,1.15135 0.926042,2.30976 0.962692,2.18956 1.150603,3.40987 0.608541,3.95194 -0.413839,0.41384 -1.57932,0.40663 -2.138503,-0.0132 -0.242262,-0.1819 -1.086583,-1.87855 -1.876268,-3.77032 l -1.435792,-3.43958 1.00746,-7.762088 c 0.900039,-6.93445 1.071412,-7.83016 1.607236,-8.40052 1.129228,-1.20201 1.900863,-0.93 6.257432,2.20584 2.173326,1.56435 5.037786,3.61818 6.365466,4.56406 2.829192,2.01562 2.042433,0.61004 7.89746,14.109148 2.409449,5.55512 4.476139,10.20129 4.592646,10.32481 0.116506,0.12353 0.297345,-0.17413 0.401863,-0.66145 0.491487,-2.29161 2.141698,-7.52898 3.229008,-10.24808 1.11329,-2.78406 1.16894,-3.03191 0.73532,-3.27457 -1.05477,-0.59028 -2.4587,-2.10191 -3.17576,-3.419388 -0.613635,-1.12746 -0.783851,-1.8173 -0.874484,-3.54407 -0.169329,-3.22615 0.759054,-5.91026 3.378824,-9.76869 1.53205,-2.25643 2.12684,-4.36734 2.12684,-7.54819 0,-2.40466 0.0506,-2.65779 0.68096,-3.40694 0.37452,-0.4451 1.14407,-0.94802 1.71011,-1.11761 0.89164,-0.26714 1.25142,-0.22881 2.69248,0.28683 4.68648,1.67695 9.57683,5.76468 11.4095,9.53695 1.36634,2.81241 1.8427,4.92619 1.8484,8.20209 0.005,3.07509 -0.35381,4.98512 -1.33239,7.08558 -0.77089,1.654658 -2.80527,3.745678 -4.3,4.419708 -0.58706,0.26473 -1.06739,0.63 -1.06739,0.81172 0,0.18172 0.22891,1.68169 0.5087,3.33326 0.27978,1.65157 0.58186,4.13394 0.67128,5.51639 0.0894,1.38245 0.225,3.01956 0.30127,3.63802 l 0.13868,1.12448 h 2.07993 2.07994 l 0.26869,-0.85989 c 0.14779,-0.47295 0.76099,-2.75914 1.36268,-5.08043 0.60169,-2.32129 1.20857,-4.43465 1.34863,-4.69636 0.39184,-0.73215 1.96867,-0.6395 2.48329,0.14591 0.37833,0.57741 0.32218,0.94281 -0.78765,5.12518 -0.65726,2.47689 -1.19502,4.69742 -1.19502,4.93452 0,0.36812 0.36704,0.43107 2.51354,0.43107 1.38245,0 2.51354,-0.0553 2.51354,-0.12286 0,-0.0676 1.07156,-4.21942 2.38125,-9.22634 1.30969,-5.00692 2.38125,-9.282798 2.38125,-9.501948 0,-0.27985 -0.67935,-0.56884 -2.28229,-0.97087 -1.25526,-0.31483 -2.31622,-0.53781 -2.35768,-0.49551 -0.0415,0.0423 -0.27335,0.85081 -0.51531,1.7967 -0.55814,2.181928 -1.02427,2.910418 -1.86228,2.910418 -0.65434,0 -1.71369,-0.81962 -1.71369,-1.32589 0,-1.00494 3.29363,-12.711078 3.87896,-13.786538 0.91951,-1.68944 2.64681,-3.27158 4.54137,-4.15972 1.27813,-0.59916 1.8567,-0.7039 3.88846,-0.7039 2.15824,0 2.55422,0.0824 4.13347,0.85988 3.16614,1.55877 5.20971,4.55108 5.45566,7.98847 0.11443,1.59941 -0.15776,2.84158 -3.08099,14.060308 -1.76358,6.76825 -3.20651,12.37737 -3.20651,12.46471 0,0.0873 0.99179,0.20077 2.20397,0.25209 1.89989,0.0804 2.38262,0.20377 3.49874,0.89404 3.49538,2.16172 4.07303,6.97172 1.19379,9.94054 -1.18556,1.22244 -3.11481,2.091 -4.64453,2.091 -0.53284,0 -0.5875,0.23723 -1.0398,4.51254 -0.26256,2.48189 -0.43435,4.54232 -0.38176,4.57874 0.0526,0.0364 0.95634,0.26577 2.00833,0.50969 2.28279,0.5293 5.63779,1.89635 6.40254,2.60882 1.02655,0.95638 0.4592,2.60688 -0.8961,2.60688 -0.33707,0 -1.37036,-0.35446 -2.29621,-0.78769 -4.2215,-1.97538 -9.75593,-2.50423 -14.11876,-1.34913 -6.04312,1.59996 -10.76261,5.44398 -13.50569,11.00036 -1.31054,2.65464 -1.89652,4.667 -2.15016,7.38408 -0.24463,2.6205 -0.49007,2.80238 -3.78172,2.80238 -3.216,0 -3.18431,-0.0369 -3.18431,3.70417 0,3.82746 -0.12802,3.70416 3.84576,3.70416 h 3.29799 v -2.11666 c 0,-1.76389 0.0882,-2.20487 0.52917,-2.64584 0.29104,-0.29104 0.76729,-0.52916 1.05833,-0.52916 0.29104,0 0.76729,0.23812 1.05834,0.52916 0.44097,0.44097 0.52916,0.88195 0.52916,2.64584 v 2.11666 h 3.57188 3.57187 v -1.19062 c 0,-0.83785 0.15679,-1.34742 0.52917,-1.71979 1.18615,-1.18616 2.64583,-0.23737 2.64583,1.71979 v 1.19062 h 3.57188 3.57187 v -2.11666 c 0,-1.76389 0.0882,-2.20487 0.52917,-2.64584 0.29104,-0.29104 0.76729,-0.52916 1.05833,-0.52916 0.29104,0 0.76729,0.23812 1.05833,0.52916 0.44098,0.44097 0.52917,0.88195 0.52917,2.64584 v 2.11666 h 3.57188 3.57187 v -1.19062 c 0,-1.35776 0.66526,-2.24896 1.67878,-2.24896 0.95582,0 1.49622,0.7959 1.49622,2.20364 v 1.23594 h 3.57187 3.57188 v -1.94869 c 0,-2.83399 1.04125,-4.01376 2.58696,-2.9311 0.52912,0.37061 0.58804,0.63688 0.58804,2.65743 v 2.24554 l 1.91823,-0.0777 1.91823,-0.0777 v -3.57187 -3.57188 l -2.81106,-0.0748 c -2.26768,-0.0603 -2.88589,-0.1626 -3.19819,-0.52917 -0.21291,-0.24992 -0.52763,-1.55536 -0.69937,-2.90097 -0.56882,-4.45692 -2.33045,-8.25986 -5.49863,-11.87027 -1.47386,-1.6796 -1.77659,-2.65163 -1.0211,-3.27863 0.92691,-0.76927 1.78696,-0.39986 3.57106,1.53383 2.93573,3.18189 4.91719,7.10257 5.74341,11.3644 l 0.47429,2.44651 1.72988,8.8e-4 c 2.17735,0.001 3.83249,0.77256 4.5344,2.11343 0.40264,0.76916 0.4826,1.55893 0.4826,4.76663 0,4.54933 -0.26376,5.32886 -2.12616,6.28385 l -1.16097,0.59531 -37.97779,-0.0225 c -29.2498,-0.0173 -38.28182,-0.0978 -39.300707,-0.3503 z m 56.418116,-47.69616 c 1.31244,-0.62279 2.05682,-2.30799 1.66395,-3.76699 -0.38905,-1.44483 -1.51748,-2.32497 -3.24444,-2.53056 -0.76548,-0.0911 -16.4532,-0.12962 -34.86159,-0.0855 -27.042791,0.0648 -33.586818,0.14692 -34.079255,0.42779 -1.46247,0.83412 -2.129928,3.46464 -1.211732,4.77555 0.235265,0.33589 0.800812,0.83819 1.25677,1.11622 0.804824,0.49076 1.831555,0.50554 35.184857,0.5065 31.61131,9.1e-4 34.43059,-0.0345 35.29144,-0.44298 z m -31.41782,-10.33781 c -0.004,-1.44617 -0.73774,-8.13325 -1.08704,-9.9087 -0.27895,-1.41788 -0.35671,-1.53217 -1.12624,-1.65527 -1.00865,-0.16136 -5.47378,-0.67123 -5.88725,-0.67226 -0.53992,-0.001 -2.71625,5.79562 -3.82398,10.18571 -0.29374,1.16417 -0.59579,2.32503 -0.6712,2.57969 -0.12792,0.43195 0.29026,0.46302 6.23071,0.46302 h 6.36783 z m 24.34075,0.39688 c 0.13722,-0.32742 1.16915,-4.14629 2.29318,-8.48636 1.51778,-5.86047 1.96131,-7.94196 1.72357,-8.08889 -0.42213,-0.2609 -4.2832,-1.168258 -4.41413,-1.037338 -0.17281,0.172808 -4.62517,17.253178 -4.62557,17.744878 -3.4e-4,0.40679 0.28952,0.46302 2.38654,0.46302 2.22501,0 2.40384,-0.0404 2.63641,-0.59531 z m -43.773485,-0.13229 c -0.09768,-0.25466 -2.039464,-4.76423 -4.315081,-10.02126 l -4.137486,-9.558238 -2.122776,0.90859 c -1.167527,0.49972 -2.157456,0.94327 -2.199842,0.98565 -0.04239,0.0424 1.681053,4.139468 3.829863,9.104628 l 3.906928,9.02756 2.607995,0.008 c 2.376834,0.007 2.592253,-0.033 2.430399,-0.45497 z M 115.48894,101.1514 c 1.63405,-0.76784 3.287,-2.330658 3.69108,-3.489798 0.23734,-0.68084 0.21519,-0.74888 -0.18984,-0.58319 -1.21291,0.49616 -2.28879,0.67776 -3.05553,0.51573 -2.14438,-0.45314 -3.34734,-1.88624 -4.54898,-5.41919 -1.24372,-3.65669 -2.00073,-3.7923 -5.6339,-1.00927 -0.91706,0.70247 -1.95459,1.34931 -2.30562,1.43741 -0.77513,0.19455 -0.97471,0.75543 -0.97471,2.73928 0,4.10612 3.56729,6.690248 9.04875,6.554898 2.0678,-0.0511 2.77161,-0.18333 3.96875,-0.74587 z M 79.991996,97.364192 c 2.644296,-1.15134 4.775256,-2.12591 4.735468,-2.16569 -0.225312,-0.22532 -8.530084,-6.14623 -8.565767,-6.10699 -0.02365,0.026 -0.296881,2.13088 -0.607173,4.6775 -0.310293,2.54661 -0.624991,4.90975 -0.69933,5.25141 -0.07434,0.34167 -0.03073,0.57979 0.09692,0.52917 0.127642,-0.0506 2.395591,-1.03405 5.039886,-2.1854 z m 65.097794,-1.86582 c 1.03833,-4.13992 0.61487,-6.26222 -1.64668,-8.25291 -1.45055,-1.27684 -3.10249,-1.81265 -4.92351,-1.59698 -2.2436,0.26573 -4.14559,1.56841 -5.12332,3.50899 -0.497,0.98645 -1.58401,5.14805 -1.39424,5.33783 0.17477,0.17476 11.52515,3.20054 12.09557,3.22443 0.32355,0.0135 0.57009,-0.53841 0.99218,-2.22136 z m -26.49284,-1.9278 1.68882,-0.99219 -0.17156,-1.84773 c -0.51274,-5.52221 -3.78228,-9.86235 -9.5489,-12.67564 -2.73202,-1.33283 -2.79956,-1.31468 -2.60072,0.69889 0.19993,2.02454 -0.35545,4.8717 -1.32257,6.78024 -0.72788,1.43639 -0.67748,1.56348 0.38026,0.95882 0.3638,-0.20796 1.32846,-0.38234 2.14368,-0.3875 2.55214,-0.0161 3.83029,1.23074 5.15115,5.02511 0.72892,2.09393 1.61233,3.43219 2.26567,3.43219 0.17894,0 1.08532,-0.44649 2.01417,-0.99219 z m 8.44238,70.887488 c -1.38643,-1.53198 0.57681,-7.16992 3.49837,-10.04648 6.29215,-6.1952 16.90977,-4.40927 20.81972,3.50198 1.24205,2.51312 1.72571,5.35888 1.07863,6.34645 l -0.4468,0.68191 h -12.25602 c -11.53741,0 -12.28169,-0.0284 -12.6939,-0.48386 z m 11.16864,-6.19687 c 0.18221,-1.92815 0.39672,-3.72978 0.47669,-4.00362 0.13058,-0.44709 0.0412,-0.47898 -0.87567,-0.31256 -3.46569,0.62902 -6.37525,3.19118 -7.61539,6.7061 l -0.39368,1.11581 h 4.03838 4.03838 z m 11.14506,3.04271 c -0.0103,-1.84722 -2.93779,-5.43255 -5.35443,-6.55766 -2.23541,-1.04073 -2.20326,-1.0699 -2.5615,2.32433 -0.17278,1.6371 -0.38005,3.36351 -0.4606,3.83645 l -0.14644,0.8599 h 4.26277 c 3.88439,0 4.26255,-0.0411 4.2602,-0.46302 z"
       id="path1" /><path
       style="opacity:0.315811;fill:none;stroke:#000000;stroke-width:1"
       d="m 75.189873,99.895116 c 0.179022,-1.790234 0.358047,-3.580471 0.53707,-5.370705 -0.179023,1.790235 -2.327305,5.191682 -0.53707,5.370705 1.790235,0.179024 0.358047,-3.58047 0.53707,-5.370705 1.074141,1.432188 2.148283,2.864377 3.222424,4.296565 0,-0.179023 0,-0.358047 0,-0.53707"
       id="path2" /><path
       style="opacity:0.315811;fill:none;stroke:#000000;stroke-width:1"
       d="m 80.023506,97.209765 c 3.441687,-13.766742 -1.12164,5.270885 1.074142,-4.296566 -0.358047,1.432189 -0.716095,2.864377 -1.074142,4.296566 z"
       id="path3" /><path
       style="opacity:1;fill:none;stroke:#000000;stroke-width:1"
       d="m 107.95117,104.72875 c 1.94087,0.23619 -3.75949,8.67804 -3.75949,14.5009 0,0.12637 0.20009,1.8113 -0.53707,1.07415 -0.48413,-0.48414 0.53707,-2.61543 0.53707,-3.22243 0,-4.72525 1.63069,-8.095 3.75949,-12.35262 z"
       id="path6" /><path
       style="opacity:1;fill:none;stroke:#000000;stroke-width:1"
       d="m 104.72875,116.5443 c 0,-4.51819 2.15946,-8.0073 4.29657,-11.81555 1.5271,3.94829 0,3.63945 0,6.44485"
       id="path7" /><path
       style="opacity:1;fill:none;stroke:#000000;stroke-width:1"
       d="m 111.1736,107.4141 c 0,-12.732011 1.00874,-0.0511 1.07414,-5.3707 -0.35805,1.79023 -0.71609,3.58047 -1.07414,5.3707 z"
       id="path8" /><path
       style="opacity:1;fill:none;stroke:#000000;stroke-width:1"
       d="m 138.02712,88.616635 c -1.57164,0.785818 -2.54726,4.496054 -3.22242,4.833636 -2.96182,1.48091 4.83363,-7.869592 4.83363,-5.907778 0,1.132242 -2.28033,0.446085 -3.22242,1.074142 -1.25293,0.835287 -2.38831,4.639361 -1.61121,4.833636 1.98024,0.495059 3.75949,-2.792455 3.75949,-4.833636 0,-2.041181 -2.31616,3.390302 -3.75949,4.833636 -0.73813,0.738132 0.71609,-3.222424 1.61121,-2.685354 0.89512,0.53707 -1.07414,1.790234 -1.61121,2.685354 1.43219,0.895118 2.86438,1.790235 4.29657,2.685353 0.17902,0 0.35804,0 0.53707,0 1.24278,-0.240742 2.50633,-0.358047 3.75949,-0.537071"
       id="path9" /><path
       style="opacity:1;fill:none;stroke:#000000;stroke-width:1"
       d="m 135.34177,95.598553 c 0,-2.864377 0,-2.864377 0,0 z"
       id="path10" /><path
       style="opacity:1;fill:none;stroke:#000000;stroke-width:1"
       d="m 139.10126,97.209765 c 0.77052,0.726093 3.7595,4.543635 3.7595,-5.370706 0,-0.895117 0.63294,2.052408 0,2.685352 -1.08896,1.088959 -2.50633,1.790234 -3.7595,2.685354 z"
       id="path11" /><path
       style="opacity:1;fill:none;stroke:#000000;stroke-width:1"
       d="m 139.10126,102.0434 c -0.35804,1.25316 -2.3273,3.40144 -1.07414,3.75949 1.25317,0.35805 -0.16228,-4.17163 1.07414,-3.75949 1.69837,0.56612 -1.26588,6.63659 0,5.3707 1.31395,-1.31394 0.11298,-4.46691 0,-5.3707 z"
       id="path12" /><path
       style="opacity:1;fill:none;stroke:#000000;stroke-width:1"
       d="m 138.56419,109.56239 c -1.44333,2.88666 2.44265,-5.99843 3.22243,-9.1302 -1.07414,3.0434 -2.14829,6.0868 -3.22243,9.1302 z"
       id="path13" /><path
       style="opacity:1;fill:none;stroke:#000000;stroke-width:1"
       d="m 141.24955,99.895116 c -0.58413,3.397714 -2.0299,7.024264 -3.22243,10.204344"
       id="path14" /><path
       style="opacity:1;fill:none;stroke:#000000;stroke-width:1"
       d="m 135.87884,95.598553 c 5.25259,-0.338476 -5.7542,6.506277 -3.22242,7.518987 0.89511,0.35805 0.69437,-1.79923 1.07414,-2.68535 0.69455,-1.620619 2.14828,-3.070462 2.14828,-4.833637 0,-0.366908 -4.05789,10.264067 -3.75949,9.667267 0.99017,-1.98033 3.75949,-20.31478 3.75949,-9.667267 0,3.093365 -5.38594,10.204337 -3.22242,10.204337 0.19367,0 0.91997,-5.48382 1.07414,-5.907774 0.54721,-1.504831 3.58047,-3.580471 2.14828,-4.296563 -1.93478,-0.967391 -4.21493,4.378198 -2.68535,5.907777 1.52958,1.52958 2.68535,-8.070928 2.68535,-5.907777 0,1.601234 -1.43219,2.864376 -2.14828,4.296563"
       id="path15" /><path
       style="opacity:1;fill:none;stroke:#000000;stroke-width:1"
       d="m 141.24955,101.50633 c -7.08069,18.88352 7.00673,-11.86518 -2.14829,6.44484"
       id="path16" /><path
       style="opacity:1;fill:none;stroke:#000000;stroke-width:1"
       d="m 85.394212,148.76853 c 0,-2.35011 -0.229341,-12.61146 -1.07414,-17.18625 1.879029,5.56419 0.423517,11.65595 1.07414,17.18625 1.724437,14.65772 1.611213,1.13579 1.611213,5.90778"
       id="path25" /><path
       style="opacity:1;fill:none;stroke:#000000;stroke-width:1"
       d="M 87.005423,157.36166 C 84.032208,148.44201 84.923552,138.66012 83.783,129.434 c -0.412691,11.34754 4.296566,22.63353 4.296566,33.83544"
       id="path26" /><path
       style="opacity:1;fill:none;stroke:#000000;stroke-width:1"
       d="m 88.079566,162.1953 c -1.246056,-7.47633 -3.90692,-21.03485 -4.296566,-30.61302 -0.191417,8.98908 3.222425,17.92731 3.222425,26.85352"
       id="path27" /><path
       style="opacity:1;fill:none;stroke:#000000;stroke-width:1"
       d="m 86.468354,158.4358 c -1.683896,-10.10338 -2.956748,-21.17182 -3.222424,-31.68716 2.233169,1.44967 3.7868,17.24087 2.685354,15.03798"
       id="path28" /><path
       style="opacity:1;fill:none;stroke:#000000;stroke-width:1"
       d="m 88.079566,147.15732 c 0,-5.77275 -1.583944,-11.46101 -2.148282,-17.18625 2.375393,5.4657 2.148282,11.3729 2.148282,17.18625 z"
       id="path29" /><path
       style="opacity:1;fill:none;stroke:#000000;stroke-width:1"
       d="m 88.616635,144.47197 c 0,-4.67735 -0.05758,-9.36881 -1.074142,-13.96383 2.168707,5.40255 2.597259,8.63293 1.074142,13.96383 z"
       id="path30" /><path
       style="opacity:1;fill:none;stroke:#000000;stroke-width:1"
       d="m 125.13743,132.11935 c 0,-1.47297 6.41972,0.53707 9.1302,0.53707 1.79916,0 -5.37071,1.26209 -5.37071,-0.53707 0,-1.97738 4.50956,0.86114 5.90778,-0.53707 0.52314,-0.52314 -4.99541,-1.44944 -4.29656,-2.14828 0.89511,-0.89512 2.4936,0.53707 3.75949,0.53707 1.65104,0 5.58082,-0.18706 5.90777,1.61121 0.45853,2.52188 -5.03489,5.16944 -3.22242,6.98191 0.88568,0.88568 0.49327,-2.05188 0.53707,-2.14828 0.76271,-1.67795 3.50964,-3.18506 2.68535,-4.83363 -3.08277,-6.16556 -2.68535,6.25248 -2.68535,5.90777 0,-2.16315 3.88526,-4.10792 2.68535,-5.90777 -0.85424,-1.28138 -2.38206,1.99663 -3.75949,2.68535 -0.0479,0.024 -2.54049,-1.219 -2.14828,-1.61121 0.49188,-0.49188 0.94755,0.75829 1.61121,0.53707 1.45109,-0.4837 3.37882,-2.83488 4.29656,-1.61121 0.92402,1.23201 -1.93745,2.41327 -2.68535,3.75949 -0.12486,0.22475 0.10594,3.22242 0,3.22242 -2.49351,0 3.37037,-4.58435 2.68535,-6.98191 -0.54986,-1.92453 -3.90623,1.07414 -5.90777,1.07414 -1.19042,0 4.35052,-3.15049 5.90777,-1.07414 1.18886,1.58513 -2.44573,4.53618 -0.53707,6.44484 1.52434,1.52433 -1.49709,-7.15853 0.53707,-6.44484 7.65187,2.24184 -23.35942,0.53707 -15.03797,0.53707 1.97738,0 7.6764,0.34724 5.90778,-0.53707 -0.65891,-0.32946 -8.00266,0.53707 -5.90778,0.53707 1.62113,0 5.01266,1.07414 4.83364,-0.53707 -0.17903,-1.61121 -3.23718,0.8188 -4.83364,0.53707 -4.67162,-0.8244 -4.29656,-3.91403 -4.29656,-1.07414"
       id="path37" /><path
       style="opacity:1;fill:none;stroke:#000000;stroke-width:1"
       d="m 132.65642,156.82459 c -2.50799,5.6869 -2.44822,5.71252 0,0 z"
       id="path38" /><path
       style="opacity:1;fill:none;stroke:#000000;stroke-width:1"
       d="m 133.19349,159.50994 c -2.79988,4.19982 2.19507,-3.02732 1.61121,-4.83363 -0.53707,1.61121 -1.07414,3.22242 -1.61121,4.83363 z"
       id="path39" /><path
       style="opacity:1;fill:none;stroke:#000000;stroke-width:1"
       d="m 134.26763,161.12115 c -0.35805,0.7161 -0.7161,1.43219 -1.07414,2.14829 -1.47192,2.94383 5.41323,-11.97588 3.75949,-9.1302 -0.89512,2.3273 -1.79023,4.65461 -2.68535,6.98191 z"
       id="path40" /><path
       style="opacity:1;fill:none;stroke:#000000;stroke-width:1"
       d="m 134.8047,162.1953 c 1.23159,-2.87372 2.43143,-5.7627 3.75949,-8.59313 -0.71933,6.47406 0.51795,3.60278 -3.75949,8.59313 z"
       id="path41" /><path
       style="opacity:1;fill:none;stroke:#000000;stroke-width:1"
       d="m 156.28752,154.13924 c -0.71609,-0.17903 -1.96926,-1.25317 -2.14828,-0.53707 -0.17903,0.71609 1.91486,-0.16318 2.14828,0.53707 0.40211,1.20634 -0.46195,5.13411 0,6.98191 0.006,0.0229 1.07705,2.14829 0.53707,2.14829 -3.04866,0 0.7405,-6.36214 -0.53707,-9.1302 -0.19894,-0.43104 -6.57539,-4.16602 -6.98192,-3.75949 -0.43601,0.43601 0.85091,0.79509 1.07415,1.07414 0.71609,0.89511 1.01082,2.54317 2.14828,2.68535 1.24348,0.15543 3.1509,-1.09546 3.75949,0 0.80156,1.44281 -0.75045,3.21517 -1.07414,4.83363 -0.0539,0.2693 0.70174,1.61121 0.53707,1.61121 -2.15573,0 1.64618,-4.59632 0.53707,-6.44484 -0.8738,-1.45634 -3.31457,-0.85168 -4.83363,-1.61121 -0.61122,-0.30561 -6.19456,-8.01957 -8.05606,-4.29657 -0.18753,0.37506 4.2265,1.30765 4.83363,1.61121 1.45458,0.7273 2.77102,3.25098 4.29657,3.7595 1.20092,0.40031 5.02538,0.53707 3.75949,0.53707 -7.18731,0 -6.31759,-5.37071 -15.57504,-5.37071"
       id="path42" /><path
       style="opacity:1;fill:none;stroke:#000000;stroke-width:1"
       d="m 125.13743,133.73056 c 3.14019,-0.22754 5.98062,-1.61121 9.1302,-1.61121 -6.54605,2.61842 -3.46194,2.42096 -9.1302,1.61121 z"
       id="path46" /><path
       style="opacity:1;fill:none;stroke:#000000;stroke-width:1"
       d="m 140.1754,135.87884 c -0.35804,1.61121 -0.71609,3.22242 -1.07414,4.83364 0,-0.17903 0,-0.35805 0,-0.53708"
       id="path50" /><path
       style="opacity:1;fill:none;stroke:#000000;stroke-width:1"
       d="m 78.412297,124.60036 c 1.893202,-0.9466 1.893202,-0.9466 0,0 z"
       id="path54" /><path
       style="opacity:1;fill:none;stroke:#000000;stroke-width:1"
       d="m 84.320072,126.21157 c -0.722003,0.361 -6.488779,1.92863 -6.981917,-0.53707 -0.361474,-1.80737 6.676794,-2.68535 4.833635,-2.68535 -1.843161,0 -4.60502,0.85643 -4.833635,2.68535 -0.209484,1.67586 5.670883,3.66701 4.296563,2.68535 -1.374317,-0.98165 -4.08708,-1.00949 -4.296563,-2.68535 -0.19861,-1.58887 5.768331,-2.77904 4.296563,-2.14828 -1.471766,0.63076 -3.580469,0.71609 -4.296563,2.14828 -0.452898,0.9058 2.864376,1.43219 2.148281,2.14828 -0.716095,0.7161 -1.432187,-1.43219 -2.148281,-2.14828 2.327306,0.17902 4.654611,0.35805 6.981917,0.53707 z"
       id="path55" /><path
       style="opacity:1;fill:none;stroke:#000000;stroke-width:1"
       d="m 94.524411,123.52622 c -4.645679,0.58067 -9.269537,0.68619 -13.963833,0.53707 4.699035,0.18562 9.292443,-0.0699 13.963833,-0.53707 z"
       id="path56" /><path
       style="opacity:1;fill:none;stroke:#000000;stroke-width:1"
       d="m 92.376129,123.52622 c 0.249507,-0.0832 5.907775,-0.97047 5.907775,-0.53707 0,0.23926 -16.73974,0.46356 -18.260398,1.07414 4.117541,-0.17902 8.236087,-0.33626 12.352623,-0.53707 3.22356,-0.15725 6.443531,-0.38356 9.667271,-0.53707 10.57583,-0.50361 -9.667271,1.51039 -9.667271,0.53707 0,-0.51724 15.160631,-1.07414 16.649191,-1.07414 1.43218,0 4.29656,1.43219 4.29656,0 0,-0.20701 -3.31228,0.53707 -6.44485,0.53707 -2.3273,0 -6.981912,-2.32731 -6.981912,0 0,0.53707 1.074142,0 1.611212,0 4.77048,0 16.25386,0.94237 18.2604,1.61121"
       id="path57" /><path
       style="opacity:1;fill:none;stroke:#000000;stroke-width:1"
       d="m 113.85895,124.60036 c 4.2061,-1.8788 8.94543,-1.07414 13.42676,-1.07414"
       id="path58" /><path
       style="opacity:1;fill:none;stroke:#000000;stroke-width:1"
       d="m 118.69258,124.06329 c 0.37389,0 12.43675,0 7.51899,0"
       id="path59" /><path
       style="opacity:1;fill:none;stroke:#000000;stroke-width:1"
       d="m 82.17179,123.52622 c -6.513367,-0.44016 1.07414,6.75392 1.07414,5.3707 0,-0.023 -2.687119,-1.59707 -2.685352,-1.61121 0.169109,-1.35287 0.391748,-4.36922 1.611212,-3.75949 1.290955,0.64548 -0.537072,2.85323 -0.537072,4.29656 0,0.74009 2.707111,1.58946 3.222424,1.07414 1.415304,-1.4153 -1.896907,-3.53099 -2.685352,-5.3707 z"
       id="path60" /><path
       style="opacity:1;fill:none;stroke:#000000;stroke-width:1"
       d="m 85.931284,126.21157 c 0,2.86438 0,2.86438 0,0 z"
       id="path61" /><path
       style="opacity:1;fill:none;stroke:#000000;stroke-width:1"
       d="m 80.560578,124.60036 c -5.246777,0.39826 6.826002,-1.51592 8.593127,-1.07414"
       id="path62" /><path
       style="opacity:1;fill:none;stroke:#000000;stroke-width:1"
       d="m 84.857142,122.98915 c 5.632106,1.03143 11.425094,0 17.186258,0"
       id="path63" /><path
       style="opacity:1;fill:none;stroke:#000000;stroke-width:1"
       d="m 98.283904,124.06329 c 8.757116,-0.6006 17.529936,-0.53707 26.316456,-0.53707 5.02854,-0.66843 9.97006,-1.07414 15.03798,-1.07414"
       id="path64" /><path
       style="opacity:1;fill:none;stroke:#000000;stroke-width:1"
       d="m 136.95298,161.65823 c 0,4.32154 0.32265,-4.25617 1.61121,-5.37071 -0.53707,1.79024 -1.07414,3.58047 -1.61121,5.37071 z"
       id="path65" /><path
       style="opacity:1;fill:none;stroke:#000000;stroke-width:1"
       d="m 136.95298,152.52803 c -0.96493,3.36796 -1.22836,6.75871 -1.61121,10.20434"
       id="path66" /><path
       style="opacity:1;fill:none;stroke:#000000;stroke-width:1"
       d="m 134.8047,141.78662 c 0,7.17646 1.0609,-11.73301 3.22242,-11.27848 -0.75231,7.52312 0.20743,3.73281 -3.22242,11.27848 z"
       id="path67" /><path
       style="opacity:1;fill:none;stroke:#000000;stroke-width:1"
       d="m 140.1754,130.50814 c -0.23606,1.84617 -1.07414,11.86014 -1.07414,9.66726"
       id="path68" /><path
       style="opacity:1;fill:none;stroke:#000000;stroke-width:1"
       d="m 136.95298,139.63833 c -2.73465,5.46931 5.01389,-19.23127 2.68535,-9.66726 0.79603,6.36819 1.27967,3.05891 -2.68535,9.66726 z"
       id="path71" /><path
       style="opacity:1;fill:none;stroke:#000000;stroke-width:1"
       d="m 142.32369,131.0452 c -0.56318,2.54671 -1.61121,4.88715 -1.61121,7.51899"
       id="path72" /><path
       style="opacity:1;fill:none;stroke:#000000;stroke-width:1"
       d="m 139.10126,104.72875 c -0.44206,8.36718 4.29657,-21.217734 4.29657,-12.889691 0,2.387148 -1.80617,6.932234 -2.68535,9.130201 -0.50636,1.26588 -2.57529,4.72356 -1.61122,3.75949 2.43867,-2.43866 2.1328,-5.687457 3.22243,-8.593127 0.59633,-1.590231 3.30957,-4.833636 1.61121,-4.833636 -0.23804,0 -1.61121,5.693151 -1.61121,4.833636 0,-0.309531 0.96683,-6.981918 0.53707,-6.981918 -0.59562,0 0.0734,4.856798 0,5.370706 -0.55796,3.90567 -1.76152,6.707869 -3.7595,10.204339 z"
       id="path73" /><path
       style="opacity:1;fill:none;stroke:#000000;stroke-width:1"
       d="m 140.1754,106.33996 c -0.2984,3.06793 -1.9467,5.63853 -2.68535,8.59313"
       id="path74" /><path
       style="opacity:1;fill:none;stroke:#000000;stroke-width:1"
       d="m 141.24955,102.0434 c 2.0247,-4.183527 -4.67099,17.98423 -3.7595,13.42676 0.64219,-3.21096 1.653,-6.5702 2.68535,-9.66727 0.41215,-1.23643 1.07415,-5.0628 1.07415,-3.75949 0,7.06618 -7.47163,15.57504 -5.37071,15.57504 0.35805,0 -0.16012,-0.75389 0,-1.07414 0.67638,-1.35276 1.06767,-3.20299 1.61121,-4.83363 0.4837,-1.45109 3.14079,-4.29657 1.61121,-4.29657 -0.66978,0 -2.39393,5.96196 -2.68535,6.98192 -0.45343,1.58701 -2.72465,4.83363 -1.07414,4.83363 1.04291,0 2.06089,-6.45756 2.14828,-6.98191 0.0291,-0.17484 1.96506,-4.83364 1.61121,-4.83364 -1.26588,0 -0.23004,2.53141 -0.53707,3.7595 -0.15007,0.60031 -1.72607,7.40413 -1.61121,7.51898 0.40926,0.40927 0.41321,-7.20932 2.68535,-12.88969 0.50636,-1.26589 2.22095,-4.97896 1.61122,-3.75949 -7.60959,15.21917 -0.55119,0.0565 -2.14829,6.44485 -0.0971,0.38835 -0.93737,1.07414 -0.53707,1.07414 1.30505,0 2.66677,-7.43537 2.68536,-7.51899 0.54922,-2.471488 3.60591,-7.518989 1.07414,-7.518989 -1.35471,0 -1.07414,8.171399 -1.07414,7.518989 0,-3.049407 -0.32481,-4.933346 0.53707,-7.518989 0.11322,-0.339672 0,-1.432187 0,-1.07414 0,1.010677 -1.26489,9.320949 -0.53707,8.593129 0.38124,-0.38124 -0.57524,-6.406681 0.53707,-7.518989 1.45573,-1.455735 0.0209,1.074142 0.53707,1.074142 0.31031,0 1.68702,-3.911116 1.07414,-2.685354 -0.73813,1.476266 -2.72466,4.833636 -1.07414,4.833636 0.34901,0 0.8273,-3.222424 0.53707,-3.222424 -0.91285,0 -0.12884,1.868879 -0.53707,2.685354"
       id="path75" /><path
       style="opacity:1;fill:none;stroke:#000000;stroke-width:1"
       d="m 138.56419,147.15732 c 5.31959,-0.0654 -7.36131,-1.07414 5.37071,-1.07414 3.03088,1.5059 6.29905,3.27227 8.05606,5.90778 3.71803,2.86149 3.64979,3.54009 4.83363,5.90777"
       id="path76" /><path
       style="opacity:1;fill:none;stroke:#000000;stroke-width:1"
       d="m 156.82459,160.58408 c -0.92953,-3.71813 -2.94143,-6.87951 -4.83363,-10.20433 1.61121,3.40144 3.22242,6.80289 4.83363,10.20433 z"
       id="path77" /><path
       style="opacity:1;fill:none;stroke:#000000;stroke-width:1"
       d="m 155.21338,162.1953 c 0,-3.21851 -1.065,-6.11547 -2.14828,-9.1302 0.71609,3.0434 1.43219,6.0868 2.14828,9.1302 z"
       id="path78" /><path
       style="opacity:1;fill:none;stroke:#000000;stroke-width:1"
       d="m 154.13924,155.75045 c 1.33233,7.32783 0.82588,3.92169 1.61121,10.20434"
       id="path79" /><path
       style="opacity:1;fill:none;stroke:#000000;stroke-width:1"
       d="m 155.75045,162.1953 c 0.71609,2.86437 0.71609,2.86437 0,0 z"
       id="path80" /><path
       style="opacity:1;fill:none;stroke:#000000;stroke-width:1"
       d="m 156.82459,165.95479 c -0.17902,-1.43219 -0.37902,-2.86191 -0.53707,-4.29656 0.17902,1.43219 0.35805,2.86437 0.53707,4.29656 z"
       id="path81" /><path
       style="opacity:1;fill:none;stroke:#000000;stroke-width:1"
       d="m 157.36166,164.34358 c -0.71609,-2.86438 -0.71609,-2.86438 0,0 z"
       id="path82" /><path
       style="opacity:1;fill:none;stroke:#000000;stroke-width:1"
       d="m 158.4358,163.26944 c 0,1.3634 -1.61121,-2.39609 -1.61121,-3.7595 0,-12.23126 1.83203,4.51739 1.61121,4.29657 -1.08157,-1.08158 -0.30258,-3.53773 -1.61121,-4.29657 0.53707,1.25317 1.07414,2.50633 1.61121,3.7595 z"
       id="path83" /><path
       style="opacity:1;fill:none;stroke:#000000;stroke-width:1"
       d="m 158.97287,164.34358 c 2.86438,0.71609 2.86438,0.71609 0,0 z"
       id="path84" /><path
       style="opacity:1;fill:none;stroke:#000000;stroke-width:1"
       d="m 157.36166,163.80651 c 0.35805,0.71609 0.35805,2.50633 1.07414,2.14828 0.7161,-0.35805 -0.71609,-1.43219 -1.07414,-2.14828 z"
       id="path85" /><path
       style="opacity:1;fill:none;stroke:#000000;stroke-width:1"
       d="m 158.4358,164.34358 c 8.02225,-0.78463 -9.43968,1.42525 4.29657,-0.53707 0.17722,-0.0253 -0.35805,0 -0.53707,0 -1.25317,0.17902 -5.02539,0.53707 -3.7595,0.53707 11.06547,0 1.7333,0 0,0 z"
       id="path91" /><path
       style="opacity:1;fill:none;stroke:#000000;stroke-width:1"
       d="m 162.73237,163.26944 c -2.10868,0 -3.22421,0.0747 -5.37071,-1.07414 1.79024,0.35805 3.58047,0.71609 5.37071,1.07414 z"
       id="path92" /><path
       style="opacity:1;fill:none;stroke:#000000;stroke-width:1"
       d="m 163.26944,164.34358 c -2.44804,-1.22402 -4.72344,1.04186 -7.51899,0.53707 2.50633,-0.17902 5.01266,-0.35805 7.51899,-0.53707 z"
       id="path93" /><path
       style="opacity:1;fill:none;stroke:#000000;stroke-width:1"
       d="m 157.36166,165.41772 c 4.85832,-0.60729 2.9273,-0.0806 5.90778,-1.07414"
       id="path94" /><path
       style="opacity:0.214731;fill:none;stroke:#000000;stroke-width:1"
       d="m 110.09946,104.72875 c 0,0.71609 -0.7161,2.14828 0,2.14828 0.71609,0 0.17368,-2.84299 0,-2.14828 -0.52823,2.11289 -1.07414,8.62276 -1.07414,6.44485 0,-0.29408 1.63428,-7.56514 1.07414,-6.44485 -0.0747,0.14949 -1.07414,6.12826 -1.07414,7.51899"
       id="path95" /><path
       style="opacity:0.214731;fill:none;stroke:#000000;stroke-width:1"
       d="m 137.49005,90.764917 c -0.36118,1.54541 -3.64711,4.833636 0.53707,4.833636 0.17903,0 0,-0.358047 0,-0.537072 -0.17902,-1.432187 -1.82802,-4.942041 -0.53707,-4.296564 1.67174,0.835869 2.20226,7.143853 1.61121,5.370706 -4.01386,-12.04159 -4.81906,-3.895582 2.68536,-4.833636 0.73243,-0.09155 0.53707,-2.886414 0.53707,-2.148282 0,2.001544 -1.07414,3.906232 -1.07414,5.907776"
       id="path96" /><path
       style="opacity:0.214731;fill:none;stroke:#000000;stroke-width:1"
       d="m 142.32369,95.061483 c -1.48395,2.967897 -1.7206,1.910282 -6.98192,-2e-6 3.68259,-0.613765 5.69857,-0.562989 6.44485,-4.833634 0.17902,1.611212 0.35805,3.222424 0.53707,4.833636 z"
       id="path97" /><path
       style="opacity:0.214731;fill:none;stroke:#000000;stroke-width:1"
       d="m 143.39783,93.450271 c -0.17902,1.432187 -0.35805,2.864374 -0.53707,4.296564 -0.17903,0.179022 -0.35805,0.358047 -0.53707,0.537069"
       id="path98" /><path
       style="opacity:0.214731;fill:none;stroke:#000000;stroke-width:1"
       d="m 135.34177,138.02712 c 0.74336,-1.85838 1.71275,-3.62135 2.68535,-5.3707 -0.89512,1.79023 -1.79023,3.58047 -2.68535,5.3707 z"
       id="path99" /><path
       style="opacity:0.214731;fill:none;stroke:#000000;stroke-width:1"
       d="m 132.65642,138.56419 c 0.96807,-2.42018 1.81608,-4.93362 2.14828,-7.51899 -0.71609,2.50633 -1.43219,5.01266 -2.14828,7.51899 z"
       id="path100" /><path
       style="opacity:0.214731;fill:none;stroke:#000000;stroke-width:1"
       d="m 131.58228,142.32369 c 0.30049,-1.50249 1.88857,-8.01235 3.22242,-11.27849 -0.64928,-0.008 0.68752,11.27849 -3.22242,11.27849 -1.60124,0 1.48569,-2.83885 2.14828,-4.29657 0.97438,-2.14363 2.12719,-9.08802 1.07414,-6.98192 -1.23145,2.46291 -1.96072,8.33451 -3.22242,11.27849 z"
       id="path101" /><path
       style="opacity:0.214731;fill:none;stroke:#000000;stroke-width:1"
       d="m 133.73056,140.71248 c -0.62932,-1.88797 0.003,-5.87327 0.53707,-8.59313 -0.17902,2.86438 -0.35805,5.72875 -0.53707,8.59313 z"
       id="path102" /><path
       style="opacity:0.214731;fill:none;stroke:#000000;stroke-width:1"
       d="m 138.02712,139.63833 c 0.52287,-2.09136 0.69613,-4.29499 0.53707,-6.44484 -3.16221,-0.17866 -4.68797,4.34661 -6.44484,6.98192"
       id="path103" /><path
       style="opacity:0.214731;fill:none;stroke:#000000;stroke-width:1"
       d="m 131.0452,141.24955 c 0,2.65059 1.59206,-8.03392 2.14829,-8.59313 -0.7161,2.86438 -1.43219,5.72875 -2.14829,8.59313 z"
       id="path104" /><path
       style="opacity:0.214731;fill:none;stroke:#000000;stroke-width:1"
       d="m 131.0452,139.63833 c -2.24901,11.2451 2.17729,-3.86369 2.14829,-6.98191 -0.7161,2.3273 -4.47559,6.26581 -2.14829,6.98191 2.3273,0.7161 -0.13166,-6.12694 2.14829,-6.98191 3.96205,-1.48576 1.08152,10.18959 1.61121,9.1302 0.57594,-1.15187 2.33137,-8.05606 2.68535,-8.05606 0.78652,0 -0.53707,8.15373 -0.53707,7.51899 0,-0.79798 2.74168,-7.99973 3.22243,-7.51899 0.01,0.01 -0.86913,6.03482 -0.53707,5.37071 0.87519,-1.7504 2.76379,-12.58794 0.53707,-5.90778"
       id="path105" /><path
       style="opacity:0.214731;fill:none;stroke:#000000;stroke-width:1"
       d="m 132.65642,158.4358 c -4.96019,8.35307 1.44046,-3.95507 1.61121,-4.29656 0.25318,-0.50636 1.94026,0.0764 1.61121,0.53707 -0.95934,1.34308 -4.69869,4.49762 -3.22242,3.75949 1.5303,-0.76515 10.75747,-9.41279 0,0 z"
       id="path106" /><path
       style="opacity:0.214731;fill:none;stroke:#000000;stroke-width:1"
       d="m 138.56419,154.67631 c -4.1094,0.14761 -6.98191,7.89004 -6.98191,6.44484 4.08842,-5.45122 1.66806,-3.40835 6.98191,-6.44484 z"
       id="path107" /><path
       style="opacity:0.214731;fill:none;stroke:#000000;stroke-width:1"
       d="m 137.49005,154.67631 c -3.70284,2.22062 -6.60605,4.51123 -4.83363,8.05606"
       id="path108" /><path
       style="opacity:0.214731;fill:none;stroke:#000000;stroke-width:1"
       d="m 141.24955,145.54611 c -2.30567,0.62575 -10.49201,4.66311 0,0 z"
       id="path109" /><path
       style="opacity:0.214731;fill:none;stroke:#000000;stroke-width:1"
       d="m 135.87884,147.69439 c 8.47177,-2.82392 9.26745,-0.42151 -4.29656,1.07414 3.25722,-2.17148 6.66757,-2.6585 10.74141,-1.61121 5.1743,-0.12543 7.24278,5.76968 10.74141,7.51899"
       id="path110" /><path
       style="opacity:0.214731;fill:none;stroke:#000000;stroke-width:1"
       d="m 147.15732,149.84267 c 3.84612,3.57225 6.691,7.06023 8.59313,11.81556"
       id="path111" /><path
       style="opacity:0.214731;fill:none;stroke:#000000;stroke-width:1"
       d="m 154.67631,162.73237 c 0,1.59982 -1.58774,-7.55636 -3.22242,-9.1302 6.67853,16.69633 -2.83826,-8.32272 3.22242,12.88969 0.34427,1.20495 -1.21575,-3.45555 0,-3.75949 0.54967,-0.13742 11.47411,7.17131 0,0 z"
       id="path112" /><path
       style="opacity:0.375086;fill:none;stroke:#000000;stroke-width:1"
       d="m 161.12115,166.49186 c -17.49313,-5.83104 13.22979,0.63885 -5.90777,-1.61121 1.96926,0.53707 3.93851,1.07414 5.90777,1.61121 z"
       id="path113" /><path
       style="opacity:0.375086;fill:none;stroke:#000000;stroke-width:1"
       d="m 158.97287,165.95479 c 1.93625,-0.52304 10.89658,-1.21073 0,0 z"
       id="path114" /><path
       style="opacity:0.375086;fill:none;stroke:#000000;stroke-width:1"
       d="m 150.37975,156.82459 c 0.32113,-4.32255 -2.72497,-8.06596 -6.98192,-9.1302 -4.34408,-1.08602 4.29656,2.68142 4.29656,3.22243 0,0.56612 -1.06199,-0.39977 -1.61121,-0.53707 -2.26565,-0.56642 -4.25797,-0.51778 -6.44485,-1.61122 -3.48174,-0.93973 -12.16139,-1.07414 -3.75949,-1.07414"
       id="path115" /><path
       style="opacity:0.375086;fill:none;stroke:#000000;stroke-width:1"
       d="m 140.1754,147.69439 c -3.40925,-1.51667 -8.35331,-1.01669 -10.20433,2.68536"
       id="path116" /><path
       style="opacity:0.375086;fill:none;stroke:#000000;stroke-width:1"
       d="m 136.41591,147.15732 c -4.64986,1.75225 -6.01072,3.32537 -9.1302,6.44485"
       id="path117" /><path
       style="opacity:0.375086;fill:none;stroke:#000000;stroke-width:1"
       d="m 140.71248,97.746835 c -1.72025,23.187625 -6.81268,13.625345 0,0 0.73813,-1.476267 -0.64887,3.238845 -1.07415,4.833635 -0.57063,2.13986 -4.63811,16.40416 -3.22242,10.74141"
       id="path118" /><path
       style="opacity:0.375086;fill:none;stroke:#000000;stroke-width:1"
       d="m 138.56419,103.11754 c -2.48041,19.46193 -7.68198,15.36398 0,0 0.64548,-1.29096 -0.27888,2.87651 -0.53707,4.29656 -0.66746,3.67106 -2.14828,6.97075 -2.14828,10.74141 0,0.35805 -0.35805,1.07414 0,1.07414 0.89512,0 -0.0988,-1.7957 0,-2.68535 0.50606,-4.55454 1.37475,-9.05807 2.68535,-13.42676 z"
       id="path119" /><path
       style="opacity:0.375086;fill:none;stroke:#000000;stroke-width:1"
       d="m 140.71248,92.913199 c -0.6293,2.808388 0,8.370251 0,0 z"
       id="path120" /><path
       style="opacity:0.375086;fill:none;stroke:#000000;stroke-width:1"
       d="m 141.78662,90.764917 c 0.40609,3.134775 -0.24793,7.932095 -4.29657,5.907775 5.13894,-7.066037 4.29657,-8.342759 4.29657,-1.611209"
       id="path121" /><path
       style="opacity:0.375086;fill:none;stroke:#000000;stroke-width:1"
       d="m 133.73056,96.135623 c -0.7161,3.580471 -0.7161,3.580471 0,0 z"
       id="path122" /><path
       style="opacity:0.375086;fill:none;stroke:#000000;stroke-width:1"
       d="m 132.65642,95.598553 c -1.69622,1.803098 -0.6209,4.464227 -1.61122,6.444847 -0.9903,1.98062 3.82562,-6.444847 1.61122,-6.444847 -2.50069,0 -3.09487,8.210467 -3.7595,10.204337"
       id="path123" /><path
       style="opacity:0.375086;fill:none;stroke:#000000;stroke-width:1"
       d="m 107.4141,84.857142 c 0.89512,-0.53707 2.17841,-0.698699 2.68536,-1.611212 0.95635,-1.72144 1.96925,-5.907775 0,-5.907775 -1.08896,0 1.09733,2.288651 0.53707,3.222423 -0.92107,1.535113 -1.43219,4.296564 -3.22243,4.296564 -1.60123,0 1.5536,-2.809854 2.14829,-4.296564 0.33659,-0.84148 -0.31503,-2.842865 -1.07414,-3.222423 -0.74955,-0.374772 1.78026,7.518987 -1.07415,7.518987 -1.65051,0 0.75045,-3.215172 1.07415,-4.833636 0.14475,-0.723797 -1.05901,-2.67022 -0.53708,-2.148282 1.65052,1.650516 -2.18758,8.632434 -0.53707,6.981918 8.33273,2.460135 1.4658,-3.468653 2.14829,-4.833636 0.17902,-0.358045 0.93737,-1.07414 0.53707,-1.07414 -0.27143,0 0.7419,1.303965 0.53707,1.611212 -0.99305,1.489565 -1.43219,4.296564 -3.22243,4.296564 -1.6889,0 1.86515,-2.820197 2.68536,-4.296564 0.14297,-0.257357 -0.2669,-3.087335 0.53707,-2.685354 1.01282,0.506413 1.15198,8.05606 1.07414,8.05606 -1.05802,0 -0.71416,-5.553599 -0.53707,-5.907778 0.97104,-1.942081 1.6946,8.139451 1.61121,8.05606 -0.89077,-0.89077 -0.53707,-2.681253 -0.53707,-3.759494 0,-9.219914 3.32402,5.907775 2.14828,5.907775 -0.98693,0 -1.86203,-8.342315 -1.07414,-9.130199 0.61175,-0.611751 3.23268,9.662139 2.14828,10.204339 -0.55331,0.276659 -2.36794,-7.836395 -1.07414,-9.130197 0.42362,-0.423619 3.60985,7.668625 2.14828,9.130197 -1.28901,1.289015 -3.40955,-8.655505 -1.61121,-8.056057 2.91893,0.972976 3.52765,10.944897 1.61121,9.667269 -1.9805,-1.320337 -1.51335,-8.885931 0.53707,-7.518987 1.46388,0.975918 2.7589,9.704043 -0.53707,8.056059 -8.18151,-4.090754 4.15889,-10.865448 1.61121,-3.222424 -3.13547,9.40643 -3.20056,-14.972405 1.07414,-2.148281 0.26156,0.784674 -0.85181,3.549663 -2.14828,2.685351 -1.11653,-0.744352 -3.10725,-9.130199 -2.14828,-9.130199 1.47188,0 3.26288,4.853863 2.14828,4.296566 -1.95455,-0.977278 -5.94475,-5.370706 -3.75949,-5.370706 1.29096,0 4.51338,2.148282 3.22242,2.148282 -0.6527,0 -5.3707,-1.893006 -5.3707,-2.685354 0,-0.433858 5.945,5.73232 6.44484,6.981917 1.26756,3.168886 3.74559,5.917049 2.14829,6.981918 -2.80936,1.872906 -7.68322,-2.521125 -5.37071,-4.833636 0.53302,-0.533021 1.68871,2.60785 1.07414,3.222424 -2.15898,2.158979 -4.64051,-3.608663 -3.75949,-5.370706 0.56833,-1.13666 2.19658,-0.633666 2.68535,-1.611211 2.0202,-4.040405 -3.97257,-7.356989 -4.29656,-7.518988"
       id="path124" /><path
       style="opacity:0.375086;fill:none;stroke:#000000;stroke-width:1"
       d="m 78.412297,92.913199 c -0.537073,0.716095 -2.327307,1.611212 -1.611212,2.148282 0.716092,0.537072 1.94365,-2.979378 1.611212,-2.148282 -5.680713,14.201781 -1.694569,-0.564856 0,0 1.565814,0.521938 -2.724658,4.833636 -1.074142,4.833636 1.865772,0 0.537069,-8.657749 0.537069,-9.1302 0,-2.914292 1.199071,5.708126 1.611212,8.59313 0.208775,1.461426 -2.474648,-4.763402 -1.074139,-4.296566 0.716092,1.432189 0.716092,5.012658 2.148281,4.296566 1.432187,-0.716095 -3.749518,-4.296566 -2.148281,-4.296566 1.903044,0 2.413836,2.950908 3.759493,4.296566 1.081575,1.081574 0.243115,-4.980615 1.61121,-4.296566 1.03606,0.51803 0.185967,0.909002 0.537072,1.611212 0.240183,0.480369 1.611212,-0.53707 1.611212,0 0,1.90822 -7.518987,2.436302 -7.518987,3.222424 0,0.177244 4.296563,-1.331548 4.296563,-1.611212 0,-1.790235 -4.296563,-5.012658 -4.296563,-3.222424 0,2.041183 5.202827,3.390302 3.759493,4.833636 -1.192953,1.19295 -5.357622,1.074139 -4.833635,1.074139 5.926489,0 -6.980542,-6.874227 5.907775,-4.296563 0.262173,0.05244 0.567785,-1.043424 1.074142,-0.53707 1.415304,1.415304 -5.907775,-3.075686 -5.907775,-1.074142 0,10.116431 11.799101,-3.933034 0,0 -2.052146,0.684048 -4.848503,5.907775 -2.685354,5.907775 0.716094,0 -0.347766,-1.522301 0,-2.148282 0.7479,-1.346218 2.685354,-5.299511 2.685354,-3.759493 0,1.688904 -1.865149,2.820196 -2.685354,4.296566 -0.09003,0.162057 0.253378,2.938725 -0.53707,2.148282 -1.698366,-1.698366 1.524055,-8.143214 3.222424,-6.444848 1.721792,1.721794 -4.583266,6.981917 -2.148285,6.981917 0.373031,0 1.591562,-1.499867 2.148285,-1.611212 1.695307,-0.33906 3.137,-0.508595 4.833633,-1.074139"
       id="path125" /><path
       style="opacity:0.375086;fill:none;stroke:#000000;stroke-width:1"
       d="m 106.87703,105.80289 c 0.7161,-0.35805 2.50633,-0.35805 2.14829,-1.07414 -0.35805,-0.71609 -2.3053,0.28907 -2.14829,1.07414 0.56721,2.83605 5.26753,6.01096 3.22243,8.05606 -1.01271,1.01271 0.64049,-3.01558 0,-4.29656 -0.73814,-1.47627 -3.22243,-5.41001 -3.22243,-3.7595 0,1.79024 2.42181,2.69533 3.22243,4.29657 0.0298,0.0596 -0.72864,6.63641 -1.07414,6.98191 -0.55489,0.55488 0.68534,-7.11123 0.53707,-7.51898 -0.5263,-1.4473 -4.06279,-4.44821 -2.68536,-3.7595 6.75537,3.37769 3.17252,11.17868 2.68536,10.20434 -0.79035,-1.58068 0.73302,-4.29513 0,-5.90777 -0.69888,-1.53753 -4.37426,-4.29657 -2.68536,-4.29657 1.79024,0 2.53387,2.64404 3.22243,4.29657 1.13296,2.71912 -2.41026,8.59312 -1.61121,8.59312 0.90446,0 0.87506,-4.77347 1.07414,-5.3707 0.17902,-0.53707 1.10319,-1.61121 0.53707,-1.61121 -1.43219,0 0,2.86437 0,4.29656 0,1.07414 -1.07414,3.22242 0,3.22242 0.0957,0 0.53707,-10.82351 0.53707,-11.81555 0,-0.56612 1.10319,-1.61121 0.53707,-1.61121 -0.56612,0 0.007,1.76674 -0.53707,1.61121 -1.31095,-0.37455 -3.49211,-2.94813 -3.7595,-1.61121 -0.35109,1.75547 2.30136,2.76145 3.22243,4.29657 0.36842,0.61404 -0.7161,2.14828 0,2.14828 0.0137,0 -0.0196,-2.52843 0,-2.68535 0.24526,-1.96211 2.51445,-5.90778 0.53707,-5.90778 -1.44334,0 -2.43286,1.57972 -3.7595,2.14828 z"
       id="path126" /><path
       style="opacity:0.375086;fill:none;stroke:#000000;stroke-width:1"
       d="m 81.634718,126.74864 c -1.896832,0.52916 7.77598,-0.62273 5.907775,0 -1.868201,0.62274 -7.546297,1.09235 -5.907775,0 3.09045,-2.0603 7.64473,-0.25148 8.593129,-2.14828"
       id="path127" /><path
       style="opacity:0.375086;fill:none;stroke:#000000;stroke-width:1"
       d="m 142.86076,126.74864 c -2.69132,0 -6.15301,1.36598 -8.05606,-0.53707 -0.92158,-0.92158 4.48244,0.0103 3.75949,-1.07414 -2.94887,-4.42331 -13.2985,0.69472 -5.90777,-0.53707 1.94893,-0.32482 3.31624,-0.53707 5.3707,-0.53707 1.90157,0 -10.25667,0.48473 -9.66727,1.07414 1.69517,1.69517 8.64668,-1.02059 10.20434,0.53707 0.0235,0.0235 -10.92332,0.89657 -12.35262,1.61121 -0.16705,0.0835 5.24787,2.14829 9.66727,2.14829 1.61121,0 -3.22242,0 -4.83364,0 -0.90838,0 -12.35262,-0.22581 -12.35262,-1.61122 0,-0.006 5.25245,-0.52227 5.37071,-0.53707 1.75429,-0.21929 4.22221,-0.11568 5.90778,-0.53707 0.38835,-0.0971 1.07413,-0.93738 1.07413,-0.53707 0,1.96926 -3.9466,-0.17829 -5.90777,0 -1.79177,0.16289 -3.58047,0.35805 -5.3707,0.53707 -2.31648,0.23165 -4.15122,0.53707 -6.44485,0.53707 -0.80261,0 15.03797,-0.70503 15.03797,-2.14828 0,-2.14828 -4.29656,0 -6.44484,0 -3.82134,0 -7.47167,-0.53707 -11.27848,-0.53707 -0.53707,0 1.07414,0 1.61121,0 2.94501,0 5.72801,0.53707 8.59313,0.53707 1.25316,0 -2.51601,-0.15544 -3.7595,0 -3.59349,0.44917 -7.12335,-0.12076 -10.74141,0.53707 -2.29653,0.41755 -6.981913,2.87125 -6.981913,0.53707 0,-0.0108 8.256623,1.07414 14.500903,1.07414 0.56612,0 -1.06199,-0.39976 -1.61121,-0.53707 -2.63695,-0.65924 -5.81876,0 -8.59313,0 -4.180922,0 -8.19544,0.53707 -12.352623,0.53707 -0.943094,0 5.036214,-0.88046 5.907778,-1.07414 2.659515,-0.591 8.200705,0.39243 10.204335,-1.61121 0.25318,-0.25318 -0.71609,0 -1.07414,0 -4.88052,0 -9.67707,0.53707 -14.500901,0.53707 -0.598141,0 -7.692665,0.17368 -6.444847,-1.07414 1.434941,-1.43494 23.182208,4.89089 5.370705,1.07414 -4.242011,-0.909 -6.726327,-0.53707 -10.741411,-0.53707 -12.890656,0 12.459004,1.02095 14.500905,0 3.345886,-1.67294 -15.64581,0.54486 -9.130199,-0.53707 7.425111,-9.95002 -6.66166,-0.21681 -5.370704,1.07414 1.644349,1.64435 5.370704,-15.1213 5.370704,-1.07414 0,1.31379 -5.071086,4.59618 -6.981915,2.68535 -0.632944,-0.63294 1.870467,0.37041 2.685352,0 1.537522,-0.69887 2.744215,-3.35064 4.296563,-2.68535 4.102381,1.75816 -5.530498,6.16078 7.518989,4.29657"
       id="path128" /><path
       style="opacity:0.375086;fill:none;stroke:#000000;stroke-width:1"
       d="m 138.02712,126.21157 c 4.29657,-0.71609 4.29657,-0.71609 0,0 z"
       id="path129" /><path
       style="opacity:0.375086;fill:none;stroke:#000000;stroke-width:1"
       d="m 122.98915,131.58228 c 1.07414,0.35804 2.86437,2.14828 3.22242,1.07414 1.08079,-3.24235 -19.6387,-1.07414 -3.22242,-1.07414 z"
       id="path130" /><path
       style="opacity:0.375086;fill:none;stroke:#000000;stroke-width:1"
       d="m 125.6745,132.65642 c -0.50321,-0.82391 -7.51899,-1.7591 -7.51899,-1.07414 0,0.12225 3.47645,0.59855 7.51899,1.07414 11.87996,1.39764 -0.30722,0 0,0 1.79917,0 3.76149,1.34168 5.3707,0.53707 0.34358,-0.17179 -5.81309,-0.97946 -5.3707,-0.53707 2.54415,2.54415 8.66278,-2.28758 3.7595,7.51898 -0.57807,1.15614 1.35679,-5.87952 0.53707,-7.51898 -0.6405,-1.28099 -3.88503,-1.37179 -4.29657,0 -0.60211,2.00704 1.67711,3.86602 2.14828,5.90777 0.21678,0.93939 -1.07414,3.64943 -1.07414,2.68536 0,-1.08009 1.29671,-2.86922 1.07414,-3.7595 -0.42763,-1.71053 -3.39503,-3.58688 -2.14828,-4.83363 3.80918,-3.80919 1.62031,8.02876 1.61121,8.05606 -2.3428,7.02842 0.78163,-4.29657 3.22243,-4.29657 0.52403,0 -5.79701,9.01943 -2.68536,5.90778"
       id="path131" /><path
       style="opacity:0.375086;fill:none;stroke:#000000;stroke-width:1"
       d="m 136.95298,133.73056 c 3.54211,0.0668 -2.61416,4.90483 -1.07414,6.44484 0.73813,0.73814 1.61121,-1.64147 1.61121,-2.68535 0,-1.26589 -1.77837,-4.00775 -0.53707,-3.75949 1.75547,0.35109 2.30136,2.76145 3.22242,4.29656 1.83712,3.06186 -2.7886,3.35049 -7.51898,4.29657 -1.83277,0.36655 -5.37071,3.48027 -5.37071,1.61121 0,-0.5424 2.74818,-1.91116 3.22243,-2.14828 -2.78183,-0.0693 -14.36448,8.32315 -5.90778,2.68535 -0.77464,1.50078 -3.44065,5.80717 -2.68535,4.29657"
       id="path132" /><path
       style="opacity:0.375086;fill:none;stroke:#000000;stroke-width:1"
       d="m 126.74864,142.32369 c -0.35068,1.56236 -2.86437,5.72875 -2.14828,4.29656"
       id="path133" /></g></svg>
